<?xml version="1.0" encoding="UTF-8"?>
<svg version="1.1" xmlns="http://www.w3.org/2000/svg" width="1280" height="1280">
<path d="M0 0 C422.4 0 844.8 0 1280 0 C1280 422.4 1280 844.8 1280 1280 C857.6 1280 435.2 1280 0 1280 C0 857.6 0 435.2 0 0 Z " fill="#F45136" transform="translate(0,0)"/>
<path d="M0 0 C1.38251953 1.06347656 1.38251953 1.06347656 2.79296875 2.1484375 C7.87696016 6.13680906 12.71854704 10.35303277 17.48828125 14.7109375 C19.1799032 16.25260229 20.88605651 17.77845444 22.60546875 19.2890625 C27.09670649 23.24352598 31.26855 27.22993627 35.1171875 31.8125 C36.49535164 33.41368655 37.9252413 34.97074497 39.3828125 36.5 C53.23083437 51.03436697 64.11749123 67.58951558 74 85 C74.60038086 86.03809814 74.60038086 86.03809814 75.21289062 87.09716797 C89.25853396 111.50954892 98.28858888 138.53576589 103.8125 166.0625 C104.00763184 167.01713135 104.20276367 167.9717627 104.40380859 168.95532227 C108.17117382 189.07730873 108.29651586 209.54776413 108.2746582 229.94580078 C108.27793209 232.67058235 108.28414185 235.39535571 108.29014587 238.12013245 C108.30276547 244.69538004 108.30470266 251.27058656 108.30234561 257.84584422 C108.30054759 263.20260184 108.30234348 268.5593472 108.30657005 273.91610336 C108.30716524 274.68449064 108.30776043 275.45287792 108.30837366 276.24454965 C108.30958567 277.80658516 108.31079981 279.36862067 108.31201603 280.93065618 C108.32284282 295.51455501 108.32075246 310.09843061 108.31463119 324.68233071 C108.30946816 337.95325159 108.32070999 351.22409892 108.33972941 364.49500526 C108.35921606 378.19954073 108.36734488 391.90404159 108.36360615 405.60859096 C108.36171018 413.27134365 108.36402234 420.93403385 108.37832069 428.59677505 C108.39037486 435.1215414 108.39148566 441.64620683 108.37953053 448.17097493 C108.37373773 451.48412038 108.37396952 454.79693545 108.38453293 458.11009026 C108.452315 481.05384839 107.27571943 504.20174355 102.375 526.6875 C101.99867432 528.45347534 101.99867432 528.45347534 101.61474609 530.25512695 C97.35529273 549.27008964 90.38817294 567.44799185 82 585 C81.53907959 585.9912085 81.53907959 585.9912085 81.06884766 587.00244141 C63.96659066 623.74564226 36.17075462 658.56714055 3.63085938 682.76611328 C2.07550388 683.94287476 0.55984069 685.17155817 -0.953125 686.40234375 C-22.43625798 703.75194198 -47.71421897 716.53352487 -73.5 726.06738281 C-75.56286523 726.83692824 -77.61169426 727.64398895 -79.65625 728.4609375 C-99.4326766 736.14633101 -121.07916943 739.20193194 -142 742 C-143.25538574 742.176521 -144.51077148 742.35304199 -145.80419922 742.53491211 C-150.10381779 743.06563194 -154.35877838 743.17800419 -158.6875 743.203125 C-159.49912598 743.21013931 -160.31075195 743.21715363 -161.14697266 743.22438049 C-163.76470526 743.24183974 -166.38221123 743.24823688 -169 743.25 C-169.89638184 743.25067474 -170.79276367 743.25134949 -171.71630859 743.25204468 C-186.01208786 743.23496356 -199.90693523 742.56806958 -214 740 C-214.97211426 739.82839355 -215.94422852 739.65678711 -216.94580078 739.47998047 C-238.83082133 735.52945006 -259.78636992 729.27609199 -280 720 C-280.98822754 719.54963379 -281.97645508 719.09926758 -282.99462891 718.63525391 C-296.23705939 712.55979347 -308.9200094 706.15225712 -321 698 C-322.35653592 697.10641411 -323.71331277 696.21319389 -325.0703125 695.3203125 C-333.90976717 689.43744893 -342.03572302 683.01119294 -350 676 C-350.78246094 675.34 -351.56492187 674.68 -352.37109375 674 C-353.05300781 673.4225 -353.73492187 672.845 -354.4375 672.25 C-354.99308594 671.78078125 -355.54867187 671.3115625 -356.12109375 670.828125 C-358.9573791 668.06849601 -361.46017488 665.03128624 -364 662 C-360.7318517 658.70687173 -357.46023304 655.41724235 -354.18554688 652.13061523 C-353.07524416 651.0153271 -351.96584571 649.89913789 -350.85742188 648.78198242 C-349.2511523 647.16339038 -347.64150558 645.54821928 -346.03125 643.93359375 C-345.54756958 643.44475204 -345.06388916 642.95591034 -344.56555176 642.45225525 C-341.87656665 639.76284692 -339.11666112 637.21196033 -336.23242188 634.73242188 C-331.34514191 630.49566167 -326.80797403 625.93312771 -322.25 621.34765625 C-321.35128174 620.44752304 -320.45256348 619.54738983 -319.52661133 618.61997986 C-317.16413425 616.25288737 -314.80384888 613.88365361 -312.44464111 611.51330566 C-310.02614819 609.08449258 -307.60474054 606.65858897 -305.18359375 604.23242188 C-300.45307046 599.49092631 -295.72542027 594.74658102 -291 590 C-288.00114367 591.43131343 -286.0348963 592.78821383 -283.76953125 595.23046875 C-280.04181143 599.06121352 -276.02830352 602.20679096 -271.6875 605.3125 C-270.91204834 605.869375 -270.13659668 606.42625 -269.33764648 607 C-261.25899132 612.69013367 -252.78251679 617.4917014 -244 622 C-242.59621094 622.73283203 -242.59621094 622.73283203 -241.1640625 623.48046875 C-221.02711146 633.29485025 -198.32408003 638.49661388 -176 639 C-175.29166016 639.02046387 -174.58332031 639.04092773 -173.85351562 639.06201172 C-127.42752635 640.30154056 -83.26635316 622.69633766 -49.30981445 591.16723633 C-17.77198215 561.25932016 1.33835126 519.62363069 3.1167407 476.14594841 C3.31293984 468.14203453 3.29412167 460.13666416 3.29052734 452.13085938 C3.2965223 449.44973219 3.30327525 446.76861605 3.31088257 444.0874939 C3.32737413 437.59699292 3.33298671 431.1065283 3.33410732 424.6160081 C3.33506355 419.33010556 3.33920218 414.04421484 3.34550858 408.75831604 C3.36308927 393.7122323 3.37235252 378.66617688 3.37084763 363.6200828 C3.37076772 362.81185196 3.3706878 362.00362112 3.37060547 361.17089844 C3.37048283 359.95704085 3.37048283 359.95704085 3.37035771 358.71866089 C3.36954588 345.62246561 3.38866572 332.52638562 3.4168822 319.43022364 C3.44574668 305.92477839 3.45941506 292.41938911 3.45769465 278.9139123 C3.45703537 271.35513076 3.4623223 263.79647009 3.48405075 256.23771667 C3.50244242 249.79940687 3.50646505 243.36127268 3.4930319 236.9229477 C3.48659107 233.6508124 3.48831545 230.37907492 3.5037384 227.1069603 C3.68205283 186.60891613 -5.61549037 147.45361357 -31 115 C-31.44166504 114.4342627 -31.88333008 113.86852539 -32.33837891 113.28564453 C-61.17471428 76.89016758 -103.58306671 52.8262229 -149.83555603 47.2104187 C-153.37655212 46.86617703 -156.90528091 46.81747788 -160.4609375 46.796875 C-161.2503775 46.79117493 -162.0398175 46.78547485 -162.85317993 46.77960205 C-164.51880582 46.77021039 -166.1844498 46.76364148 -167.85009766 46.75976562 C-170.33401272 46.75015853 -172.81706309 46.71912084 -175.30078125 46.6875 C-186.48548454 46.61392694 -197.04503521 47.78603932 -208 50 C-209.09664223 50.21750664 -209.09664223 50.21750664 -210.21543884 50.43940735 C-235.34445746 55.46374416 -258.73978456 66.37363307 -279 82 C-279.90105469 82.68964844 -280.80210937 83.37929688 -281.73046875 84.08984375 C-314.357217 109.63481719 -336.53802901 146.19234617 -344 187 C-344.20625 188.01449219 -344.4125 189.02898437 -344.625 190.07421875 C-350.59492947 223.77944557 -344.11418015 260.53624163 -329 291 C-328.69481445 291.62664551 -328.38962891 292.25329102 -328.07519531 292.89892578 C-316.08996398 317.28545606 -297.79028057 337.93171165 -276 354 C-275.43216797 354.4228125 -274.86433594 354.845625 -274.27929688 355.28125 C-255.49749938 369.08188191 -233.49100623 378.03770774 -210.875 383.25 C-210.21975342 383.40138428 -209.56450684 383.55276855 -208.8894043 383.70874023 C-193.0025827 387.10168813 -177.20451902 387.33272449 -161.03125 387.4140625 C-158.65514481 387.43281031 -156.27904602 387.4523863 -153.9029541 387.4727478 C-147.70208544 387.52369363 -141.50119527 387.56351841 -135.30023193 387.60089111 C-127.83171927 387.64827178 -120.36331012 387.70970608 -112.8948822 387.76873779 C-101.59663079 387.8564912 -90.29839458 387.92658362 -79 388 C-79 421.99 -79 455.98 -79 491 C-103.069375 491.061875 -103.069375 491.061875 -127.625 491.125 C-135.12468506 491.15231201 -135.12468506 491.15231201 -142.77587891 491.18017578 C-174.68928818 491.24931354 -205.68373538 490.92422694 -237 484 C-238.10504883 483.75660889 -238.10504883 483.75660889 -239.23242188 483.50830078 C-243.54764384 482.5250994 -247.77861246 481.32152062 -252 480 C-252.87688477 479.72816895 -253.75376953 479.45633789 -254.65722656 479.17626953 C-268.19018876 474.93683909 -281.21254789 470.1260428 -294 464 C-295.18190918 463.44771729 -295.18190918 463.44771729 -296.38769531 462.88427734 C-309.67447974 456.66218626 -321.91871321 449.31286323 -334 441 C-334.58136719 440.60006836 -335.16273438 440.20013672 -335.76171875 439.78808594 C-357.75485761 424.51199515 -378.88867545 405.17124173 -394.82080078 383.58496094 C-395.93848013 382.08268882 -397.0913902 380.60681668 -398.24609375 379.1328125 C-415.26366819 357.23140654 -427.34750299 332.8880231 -437 307 C-437.30953613 306.17081055 -437.61907227 305.34162109 -437.93798828 304.48730469 C-444.73805832 285.96446261 -448.65113204 266.56169779 -451 247 C-451.09498779 246.23856689 -451.18997559 245.47713379 -451.2878418 244.69262695 C-455.20725872 208.54139551 -451.17150113 172.75835606 -441 138 C-440.74992187 137.14196777 -440.49984375 136.28393555 -440.2421875 135.39990234 C-436.58711281 123.12176339 -431.56542312 111.52398386 -426 100 C-425.5968457 99.16098145 -425.19369141 98.32196289 -424.77832031 97.45751953 C-409.09708438 65.22386788 -386.51782209 35.13550035 -359 12 C-358.11803955 11.24154785 -358.11803955 11.24154785 -357.21826172 10.46777344 C-285.38351047 -51.24715274 -186.55633552 -71.77116144 0 0 Z " fill="#FEFEFD" transform="translate(812,297)"/>
<path d="M0 0 C1.91703735 -0.00472824 1.91703735 -0.00472824 3.87280273 -0.009552 C5.27848342 -0.00776222 6.6841638 -0.00571127 8.08984375 -0.00341797 C9.52091488 -0.00409105 10.9519859 -0.00506111 12.38305664 -0.00631714 C15.38591599 -0.00779391 18.38874565 -0.00564023 21.39160156 -0.00097656 C25.24886946 0.00472073 29.10606779 0.00144161 32.96333313 -0.00454903 C35.91947966 -0.00815521 38.87560958 -0.00701579 41.83175659 -0.00442123 C43.25438444 -0.00375212 44.67701378 -0.00457984 46.09963989 -0.00690079 C48.08465549 -0.0094282 50.06967634 -0.00489589 52.0546875 0 C53.75226196 0.00119339 53.75226196 0.00119339 55.48413086 0.00241089 C58.02734375 0.12939453 58.02734375 0.12939453 59.02734375 1.12939453 C61.35720498 1.33908204 63.69178411 1.49754842 66.02734375 1.62939453 C72.91623264 2.01828342 72.91623264 2.01828342 74.02734375 3.12939453 C75.70618613 3.52255933 77.3958442 3.87024905 79.08984375 4.19189453 C80.00894531 4.36849609 80.92804688 4.54509766 81.875 4.72705078 C82.58527344 4.85982422 83.29554688 4.99259766 84.02734375 5.12939453 C84.02734375 5.45939453 84.02734375 5.78939453 84.02734375 6.12939453 C76.416125 5.59079805 68.89925229 4.75146688 61.3515625 3.62939453 C49.22517617 2.08575894 36.98431111 1.89645047 24.77734375 1.87939453 C24.00429901 1.87705811 23.23125427 1.87472168 22.43478394 1.87231445 C8.63651835 1.85672139 -4.82583947 2.89206271 -18.49780273 4.85400391 C-21.01077979 5.13363675 -23.44638854 5.17693715 -25.97265625 5.12939453 C-25.33328125 4.82001953 -24.69390625 4.51064453 -24.03515625 4.19189453 C-22.03654804 3.29487823 -22.03654804 3.29487823 -20.97265625 2.12939453 C-17.35092883 1.80343906 -13.72810415 1.61558917 -10.09765625 1.41064453 C-6.33575971 1.07207384 -4.0857078 0.00287224 0 0 Z " fill="#DE5E48" transform="translate(613.97265625,238.87060546875)"/>
<path d="M0 0 C1.07934814 0.1429248 2.15869629 0.28584961 3.27075195 0.43310547 C16.93384539 2.11994918 30.43678697 2.23461687 44.1875 2.125 C46.41340738 2.11493757 48.63931922 2.10581756 50.86523438 2.09765625 C56.24358939 2.07593027 61.6217728 2.04271778 67 2 C67 2.33 67 2.66 67 3 C63.5335262 3.78439648 60.33382708 4.12621586 56.7824707 4.12939453 C55.76824539 4.13254669 54.75402008 4.13569885 53.70906067 4.13894653 C52.62557846 4.1369223 51.54209625 4.13489807 50.42578125 4.1328125 C49.30560104 4.13376923 48.18542084 4.13472595 47.03129578 4.13571167 C44.66856836 4.13639113 42.30583905 4.13455319 39.94311523 4.13037109 C36.3155502 4.12500451 32.68810814 4.13033177 29.06054688 4.13671875 C26.76562473 4.13605822 24.47070265 4.13477759 22.17578125 4.1328125 C21.08622635 4.13483673 19.99667145 4.13686096 18.87409973 4.13894653 C17.8693309 4.13579437 16.86456207 4.13264221 15.8293457 4.12939453 C14.94285843 4.12859894 14.05637115 4.12780334 13.14302063 4.12698364 C11 4 11 4 9 3 C7.46331135 2.77532169 5.92031946 2.59203195 4.375 2.4375 C3.55773437 2.35371094 2.74046875 2.26992187 1.8984375 2.18359375 C1.27195312 2.12300781 0.64546875 2.06242187 0 2 C0 1.34 0 0.68 0 0 Z " fill="#DA5C47" transform="translate(603,1037)"/>
<path d="M0 0 C0.66 0.33 1.32 0.66 2 1 C0.9171875 1.8353125 0.9171875 1.8353125 -0.1875 2.6875 C-3.92423947 5.75993023 -7.22106558 9.18910323 -10.5703125 12.67578125 C-11.83488281 13.98095703 -11.83488281 13.98095703 -13.125 15.3125 C-13.97320313 16.19550781 -14.82140625 17.07851563 -15.6953125 17.98828125 C-18 20 -18 20 -21 20 C-21 20.66 -21 21.32 -21 22 C-21.66 21.67 -22.32 21.34 -23 21 C-16.51934131 12.69665605 -8.2290262 6.49216206 0 0 Z " fill="#E5624D" transform="translate(534,377)"/>
<path d="M0 0 C0.33 0.33 0.66 0.66 1 1 C3.32986123 1.20968751 5.66444036 1.36815389 8 1.5 C14.88888889 1.88888889 14.88888889 1.88888889 16 3 C17.67884238 3.3931648 19.36850045 3.74085452 21.0625 4.0625 C21.98160156 4.23910156 22.90070312 4.41570312 23.84765625 4.59765625 C24.55792969 4.73042969 25.26820313 4.86320313 26 5 C26 5.33 26 5.66 26 6 C19.52638993 5.54190469 13.11440213 4.90844397 6.6875 4 C-0.86828026 2.95188969 -8.38680481 2.41035662 -16 2 C-16 1.67 -16 1.34 -16 1 C-14.27111445 0.83044205 -12.54187557 0.66448486 -10.8125 0.5 C-9.84957031 0.4071875 -8.88664063 0.314375 -7.89453125 0.21875 C-5.24017969 0.01815123 -2.65960351 -0.11337564 0 0 Z " fill="#E05F4B" transform="translate(672,239)"/>
<path d="M0 0 C0.33 0 0.66 0 1 0 C1.02895225 3.29164829 1.0467823 6.58326399 1.0625 9.875 C1.07087891 10.81214844 1.07925781 11.74929688 1.08789062 12.71484375 C1.09111328 13.61074219 1.09433594 14.50664062 1.09765625 15.4296875 C1.10289307 16.25710449 1.10812988 17.08452148 1.11352539 17.93701172 C1 20 1 20 0 22 C-0.22858114 24.0374763 -0.41024278 26.08040303 -0.5625 28.125 C-0.64628906 29.22070312 -0.73007812 30.31640625 -0.81640625 31.4453125 C-0.87699219 32.28835938 -0.93757813 33.13140625 -1 34 C-1.33 34 -1.66 34 -2 34 C-2.24020685 22.47007127 -1.74018655 11.40443688 0 0 Z " fill="#FBD8CF" transform="translate(362,474)"/>
<path d="M0 0 C0.33 0 0.66 0 1 0 C1.14920499 6.13871965 0.61106632 11.93478832 -0.3125 18 C-0.43044922 18.85078125 -0.54839844 19.7015625 -0.66992188 20.578125 C-1.49178678 26.07408311 -2.87726269 30.86261894 -5 36 C-6.19362049 32.48521952 -5.80279893 29.98596697 -5.0390625 26.38671875 C-4.81476562 25.30326172 -4.59046875 24.21980469 -4.359375 23.10351562 C-4.11703125 21.97623047 -3.8746875 20.84894531 -3.625 19.6875 C-3.15714101 17.46259914 -2.69094963 15.23734685 -2.2265625 13.01171875 C-2.0090332 11.97063965 -1.79150391 10.92956055 -1.56738281 9.85693359 C-0.91625136 6.57830181 -0.41154305 3.31627132 0 0 Z " fill="#DE6C59" transform="translate(917,802)"/>
<path d="M0 0 C0.66 0.33 1.32 0.66 2 1 C-2.8836671 6.90436923 -8.1719243 12.03093773 -14 17 C-14.66 16.67 -15.32 16.34 -16 16 C-10.72 10.72 -5.44 5.44 0 0 Z " fill="#FFE7E0" transform="translate(521,887)"/>
<path d="M0 0 C3.02101088 0.31085327 6.04180204 0.62363234 9.0625 0.9375 C9.91005859 1.02451172 10.75761719 1.11152344 11.63085938 1.20117188 C16.43912966 1.70242013 21.21949483 2.28000533 26 3 C26 3.33 26 3.66 26 4 C23.54159395 4.02691685 21.08348118 4.04679802 18.625 4.0625 C17.92632813 4.07087891 17.22765625 4.07925781 16.5078125 4.08789062 C11.2265625 4.11328125 11.2265625 4.11328125 9 3 C7.46331135 2.77532169 5.92031946 2.59203195 4.375 2.4375 C3.55773437 2.35371094 2.74046875 2.26992187 1.8984375 2.18359375 C1.27195312 2.12300781 0.64546875 2.06242187 0 2 C0 1.34 0 0.68 0 0 Z " fill="#E26853" transform="translate(603,1037)"/>
<path d="M0 0 C6.41069287 5.27101414 12.18590512 11.09128152 18 17 C17.34 17.66 16.68 18.32 16 19 C14.89591797 17.78763672 14.89591797 17.78763672 13.76953125 16.55078125 C12.78391591 15.47129779 11.79823535 14.39187388 10.8125 13.3125 C10.32974609 12.78205078 9.84699219 12.25160156 9.34960938 11.70507812 C7.00110738 9.13591151 4.64122183 6.652969 2.13671875 4.23046875 C0 2 0 2 0 0 Z " fill="#E16A55" transform="translate(427,693)"/>
<path d="M0 0 C1.47906892 -0.02689216 2.95827483 -0.04634621 4.4375 -0.0625 C5.26121094 -0.07410156 6.08492187 -0.08570313 6.93359375 -0.09765625 C9 0 9 0 10 1 C12.32817964 1.36760731 14.6618385 1.70241581 17 2 C17 2.66 17 3.32 17 4 C11.147205 3.48517081 5.6702363 2.54642808 0 1 C0 0.67 0 0.34 0 0 Z " fill="#FCD9D1" transform="translate(571,779)"/>
<path d="M0 0 C2.32421875 0.21875 2.32421875 0.21875 5.32421875 3.21875 C-0.94578125 2.88875 -7.21578125 2.55875 -13.67578125 2.21875 C-13.67578125 1.88875 -13.67578125 1.55875 -13.67578125 1.21875 C-11.9468957 1.04919205 -10.21765682 0.88323486 -8.48828125 0.71875 C-7.52535156 0.6259375 -6.56242188 0.533125 -5.5703125 0.4375 C-3.7131195 0.29714533 -1.85629618 0.1517556 0 0 Z " fill="#E47360" transform="translate(669.67578125,238.78125)"/>
<path d="M0 0 C0 0.66 0 1.32 0 2 C-5.24385089 3.7479503 -9.47322267 4.19392201 -15 4 C-10.22894198 1.32820751 -5.46088946 0 0 0 Z " fill="#E16753" transform="translate(721,1029)"/>
<path d="M0 0 C0.33 0.66 0.66 1.32 1 2 C-1.68058098 5.57410797 -4.42589203 8.31941902 -8 11 C-8.66 10.67 -9.32 10.34 -10 10 C-6.7 6.7 -3.4 3.4 0 0 Z " fill="#FFE3DC" transform="translate(463,944)"/>
<path d="M0 0 C0.66 0 1.32 0 2 0 C2.40652968 5.42039575 1.03993514 9.07015675 -1 14 C-2.13732426 10.59598052 -1.83989957 8.22543336 -1.0625 4.75 C-0.86785156 3.85796875 -0.67320312 2.9659375 -0.47265625 2.046875 C-0.31667969 1.37140625 -0.16070313 0.6959375 0 0 Z " fill="#E36451" transform="translate(913,824)"/>
<path d="M0 0 C0.33 0.99 0.66 1.98 1 3 C-1.31 4.98 -3.62 6.96 -6 9 C-6.66 8.67 -7.32 8.34 -8 8 C-5.36 5.36 -2.72 2.72 0 0 Z " fill="#E3614D" transform="translate(848,949)"/>
<path d="M0 0 C1.93833996 0.08715017 3.8757429 0.19532964 5.8125 0.3125 C7.43091797 0.39951172 7.43091797 0.39951172 9.08203125 0.48828125 C12.17497517 1.03068507 13.13022903 1.55289624 15 4 C9.76119922 3.44854729 5.02649303 2.57077907 0 1 C0 0.67 0 0.34 0 0 Z " fill="#E36F5D" transform="translate(702,246)"/>
<path d="M0 0 C0.88336837 2.4667645 1.1312406 3.63859372 0.22265625 6.140625 C-0.16019531 6.83671875 -0.54304687 7.5328125 -0.9375 8.25 C-1.31777344 8.95640625 -1.69804688 9.6628125 -2.08984375 10.390625 C-2.39019531 10.92171875 -2.69054687 11.4528125 -3 12 C-3.66 12 -4.32 12 -5 12 C-3.68938409 7.76570244 -2.05643741 3.92592596 0 0 Z " fill="#E16752" transform="translate(896,876)"/>
<path d="M0 0 C1.18771723 3.42943519 0.80226223 5.37784675 -0.4375 8.75 C-0.86869141 9.94882812 -0.86869141 9.94882812 -1.30859375 11.171875 C-1.53675781 11.77515625 -1.76492188 12.3784375 -2 13 C-2.66 13 -3.32 13 -4 13 C-3.52140759 11.39566191 -3.04210442 9.79153584 -2.5625 8.1875 C-2.29566406 7.29417969 -2.02882813 6.40085937 -1.75390625 5.48046875 C-1.19612127 3.64526945 -0.60655425 1.81966274 0 0 Z " fill="#E36A57" transform="translate(903,858)"/>
<path d="M0 0 C0.65234375 1.796875 0.65234375 1.796875 1 4 C-0.36489377 6.33370072 -2.1419038 8.00594554 -4 10 C-4.33 9.34 -4.66 8.68 -5 8 C-4.00390625 6.0546875 -4.00390625 6.0546875 -2.5625 3.875 C-2.08941406 3.15054688 -1.61632812 2.42609375 -1.12890625 1.6796875 C-0.75636719 1.12539063 -0.38382813 0.57109375 0 0 Z " fill="#E06552" transform="translate(882,903)"/>
</svg>
