<?xml version="1.0" standalone="no"?>
<!DOCTYPE svg PUBLIC "-//W3C//DTD SVG 20010904//EN"
 "http://www.w3.org/TR/2001/REC-SVG-20010904/DTD/svg10.dtd">
<svg version="1.0" xmlns="http://www.w3.org/2000/svg"
 width="1280.000000pt" height="1280.000000pt" viewBox="0 0 1280.000000 1280.000000"
 preserveAspectRatio="xMidYMid meet">
<rect width="100%" height="100%" fill="white"/>

<g transform="translate(0.000000,1280.000000) scale(0.100000,-0.100000)"
fill="#000000" stroke="none">
<path d="M4460 10784 c-81 -21 -206 -86 -276 -143 -234 -191 -373 -525 -436
-1046 -24 -203 -13 -914 18 -1065 4 -22 -4 -31 -54 -67 -75 -53 -189 -158
-269 -247 -416 -465 -553 -1212 -347 -1876 40 -128 102 -266 157 -353 20 -32
37 -63 37 -70 0 -7 -15 -48 -34 -92 -209 -499 -269 -1092 -160 -1590 38 -174
131 -405 224 -551 l39 -61 -49 -125 c-134 -342 -198 -674 -187 -963 6 -150 28
-302 54 -362 61 -147 263 -201 391 -106 91 68 122 160 97 288 -59 308 1 662
188 1100 31 72 59 149 63 172 9 55 -11 129 -46 178 -178 244 -239 382 -286
640 -24 136 -25 445 -1 606 38 253 102 466 211 694 64 136 71 155 70 210 -1
76 -20 119 -81 187 -121 133 -205 337 -244 593 -19 120 -16 391 4 502 53 284
155 495 329 679 125 132 283 231 475 297 172 60 320 86 615 106 109 7 134 12
170 34 62 36 82 62 129 162 54 117 108 192 208 288 147 140 327 239 557 306
232 68 510 74 736 17 354 -90 603 -293 789 -645 27 -50 58 -95 81 -112 66 -53
93 -59 270 -59 195 0 310 -12 439 -45 471 -121 793 -484 904 -1021 39 -189 42
-385 9 -598 -35 -219 -129 -418 -233 -491 -107 -73 -149 -207 -101 -314 11
-24 43 -81 71 -127 108 -180 197 -401 239 -600 31 -144 38 -403 15 -548 -35
-222 -112 -438 -232 -646 -142 -245 -142 -238 -50 -467 114 -283 163 -499 174
-758 4 -101 1 -189 -8 -270 -20 -170 -18 -220 11 -279 63 -125 219 -180 344
-121 54 26 112 90 131 143 30 90 48 301 42 512 -9 291 -46 504 -138 775 -28
82 -54 156 -58 163 -5 9 16 61 55 135 159 310 245 606 262 907 23 395 -55 763
-238 1132 l-50 101 29 36 c200 255 310 727 272 1161 -51 572 -285 1043 -674
1359 l-63 51 7 68 c46 433 33 977 -32 1291 -87 422 -268 720 -516 849 -119 61
-178 75 -298 70 -90 -4 -108 -8 -176 -41 -216 -104 -374 -307 -505 -650 -64
-167 -144 -521 -144 -635 l0 -33 -42 26 c-109 68 -285 138 -446 180 -157 40
-282 55 -469 55 -328 1 -600 -61 -889 -201 -55 -27 -103 -49 -106 -49 -3 0 -8
34 -12 76 -32 347 -177 765 -345 992 -175 236 -407 342 -621 286z m187 -576
c84 -110 153 -263 202 -448 57 -218 65 -284 66 -545 l0 -240 -28 -55 c-46 -90
-40 -87 -172 -100 -97 -10 -307 -48 -421 -77 -18 -4 -22 1 -27 41 -4 25 -9
143 -13 263 -19 617 96 1095 290 1214 37 23 51 15 103 -53z m3632 37 c72 -37
157 -182 206 -350 52 -181 85 -465 85 -729 0 -175 -11 -391 -20 -406 -5 -8
-29 -6 -86 8 -144 36 -331 62 -445 62 -65 0 -67 1 -82 33 -40 84 -47 458 -12
667 47 284 157 565 266 681 25 27 48 49 53 49 4 0 20 -7 35 -15z"/>
<path d="M6253 7120 c-240 -20 -516 -113 -713 -240 -157 -102 -314 -259 -406
-407 -297 -476 -108 -1046 439 -1321 251 -126 539 -181 892 -169 633 21 1053
232 1235 620 62 131 84 236 84 397 0 219 -56 383 -192 566 -237 316 -619 519
-1047 555 -122 10 -158 10 -292 -1z m344 -366 c384 -57 709 -297 805 -597 24
-74 28 -215 9 -297 -80 -333 -451 -520 -1033 -520 -246 0 -410 29 -584 103
-297 125 -474 384 -434 634 50 312 425 613 845 677 122 19 266 19 392 0z"/>
<path d="M6175 6329 c-42 -12 -85 -59 -95 -103 -14 -62 6 -103 81 -164 l66
-54 5 -120 c6 -129 13 -148 72 -192 38 -29 124 -29 162 0 59 44 67 65 72 189
l5 115 64 51 c74 59 93 91 93 153 0 84 -88 149 -169 126 -18 -5 -58 -28 -88
-50 l-54 -42 -54 42 c-44 34 -105 63 -125 59 -3 0 -19 -5 -35 -10z"/>
<path d="M4553 7036 c-92 -30 -166 -97 -210 -191 -23 -50 -28 -73 -28 -140 0
-69 4 -89 31 -145 38 -80 91 -134 164 -169 47 -22 68 -26 150 -26 83 0 101 4
145 27 70 36 132 100 163 166 23 49 27 71 27 147 0 76 -4 98 -26 145 -33 69
-93 131 -161 166 -64 33 -186 43 -255 20z"/>
<path d="M8032 7036 c-242 -79 -315 -395 -133 -577 76 -76 145 -102 256 -97
98 4 157 31 231 105 164 163 115 442 -96 549 -67 33 -188 43 -258 20z"/>
</g>
</svg>
