<?xml version="1.0" encoding="UTF-8"?>
<svg version="1.1" xmlns="http://www.w3.org/2000/svg" width="200" height="200">
<path d="M0 0 C66 0 132 0 200 0 C200 66 200 132 200 200 C134 200 68 200 0 200 C0 134 0 68 0 0 Z " fill="#2F2A3D" transform="translate(0,0)"/>
<path d="M0 0 C66 0 132 0 200 0 C200 25.74 200 51.48 200 78 C138.62 77.505 138.62 77.505 76 77 C67 60 67 60 66 53 C69.3 46.4 72.6 39.8 76 33 C114.94 33 153.88 33 194 33 C194 30.36 194 27.72 194 25 C153.08 25 112.16 25 70 25 C69.34 26.98 68.68 28.96 68 31 C67.45580173 32.23048087 66.88417181 33.44958867 66.2734375 34.6484375 C65.809375 35.56689453 65.809375 35.56689453 65.3359375 36.50390625 C64.86027344 37.43009766 64.86027344 37.43009766 64.375 38.375 C64.05015625 39.01566406 63.7253125 39.65632813 63.390625 40.31640625 C62.59742593 41.87947501 61.79922969 43.44000622 61 45 C57 40 57 40 50 25 C25.25 24.505 25.25 24.505 0 24 C0 16.08 0 8.16 0 0 Z " fill="#2E4545" transform="translate(0,0)"/>
<path d="M0 0 C18.48 0 36.96 0 56 0 C56 17.49 56 34.98 56 53 C85.37 53 114.74 53 145 53 C145 35.51 145 18.02 145 0 C150.94 0 156.88 0 163 0 C163 17.49 163 34.98 163 53 C175.21 53 187.42 53 200 53 C200 61.25 200 69.5 200 78 C134 78 68 78 0 78 C0 52.26 0 26.52 0 0 Z " fill="#2B2638" transform="translate(0,122)"/>
<path d="M0 0 C66 0 132 0 200 0 C200 7.92 200 15.84 200 24 C157.43 24.33 114.86 24.66 71 25 C67.7 31.6 64.4 38.2 61 45 C57 40 57 40 50 25 C25.25 24.505 25.25 24.505 0 24 C0 16.08 0 8.16 0 0 Z " fill="#252032" transform="translate(0,0)"/>
<path d="M0 0 C13.86 0 27.72 0 42 0 C44.64 5.61 47.28 11.22 50 17 C50.66 17.33 51.32 17.66 52 18 C54.97 12.06 57.94 6.12 61 0 C101.92 0 142.84 0 185 0 C185 2.64 185 5.28 185 8 C146.06 8 107.12 8 67 8 C66.34 9.98 65.68 11.96 65 14 C63.4820716 16.93152026 61.9427811 19.83664152 60.30273438 22.70117188 C57.84467639 27.3157797 57.89050765 29.96709477 59 35 C60.18083442 37.90869911 61.59379967 40.66497934 63.0625 43.4375 C63.62807617 44.53481445 63.62807617 44.53481445 64.20507812 45.65429688 C65.12759296 47.44093953 66.0625312 49.22115829 67 51 C67.84923475 51.00634791 67.84923475 51.00634791 68.71562576 51.01282406 C82.53953196 51.11646873 96.36339014 51.22521154 110.1872139 51.33933926 C116.87251439 51.39444035 123.55781982 51.44776912 130.24316406 51.49731445 C136.70117513 51.54523692 143.15913682 51.59758753 149.61708832 51.65294075 C152.07447827 51.67323868 154.53188169 51.69197141 156.98929596 51.70907402 C160.44506161 51.73339858 163.90073641 51.7634114 167.35644531 51.79467773 C168.36058472 51.8004332 169.36472412 51.80618866 170.39929199 51.81211853 C177.30328944 51.88259856 184.12759552 52.34388244 191 53 C191 55.97 191 58.94 191 62 C148.43 62 105.86 62 62 62 C54 47 54 47 52 42 C47.60910032 47.85453291 44.44384289 54.54279459 41 61 C29.45 61 17.9 61 6 61 C6 58.36 6 55.72 6 53 C15.9 53 25.8 53 36 53 C36.33 51.35 36.66 49.7 37 48 C37.86376953 46.05883789 37.86376953 46.05883789 38.8828125 44.22265625 C39.24503906 43.54396484 39.60726562 42.86527344 39.98046875 42.16601562 C40.74364564 40.76338506 41.51450535 39.36490763 42.29296875 37.97070312 C43.97743485 34.78591507 45.00086245 32.65977596 44.99609375 29.01171875 C43.68136115 25.03658606 41.89574188 21.44326447 39.9375 17.75 C36 10.23846154 36 10.23846154 36 8 C24.12 8 12.24 8 0 8 C0 5.36 0 2.72 0 0 Z " fill="#36C779" transform="translate(9,25)"/>
<path d="M0 0 C21.45 0 42.9 0 65 0 C65 17.49 65 34.98 65 53 C88.43 53 111.86 53 136 53 C136 35.51 136 18.02 136 0 C147.55 0 159.1 0 171 0 C171 17.49 171 34.98 171 53 C178.59 53 186.18 53 194 53 C194 55.97 194 58.94 194 62 C183.77 62 173.54 62 163 62 C163 44.51 163 27.02 163 9 C157.06 9 151.12 9 145 9 C145 26.49 145 43.98 145 62 C115.63 62 86.26 62 56 62 C56 44.51 56 27.02 56 9 C37.52 9 19.04 9 0 9 C0 6.03 0 3.06 0 0 Z " fill="#3EC37D" transform="translate(0,113)"/>
<path d="M0 0 C18.48 0 36.96 0 56 0 C56 17.49 56 34.98 56 53 C37.52 53 19.04 53 0 53 C0 35.51 0 18.02 0 0 Z " fill="#263E3D" transform="translate(0,122)"/>
<path d="M0 0 C16.5 0 33 0 50 0 C50 0.33 50 0.66 50 1 C36.47 1 22.94 1 9 1 C9 3.64 9 6.28 9 9 C20.88 9 32.76 9 45 9 C48.875 17.3125 48.875 17.3125 50.08544922 19.91918945 C50.40529785 20.60198975 50.72514648 21.28479004 51.0546875 21.98828125 C51.37937012 22.68477783 51.70405273 23.38127441 52.03857422 24.09887695 C53.07423509 26.240819 53.07423509 26.240819 55 29 C54.77411665 34.78826075 52.80653451 38.8532842 50 43.75 C47.17032718 48.72028985 47.17032718 48.72028985 45 54 C35.1 54 25.2 54 15 54 C15 56.64 15 59.28 15 62 C26.55 62 38.1 62 50 62 C50 62.33 50 62.66 50 63 C33.5 63 17 63 0 63 C0 42.21 0 21.42 0 0 Z " fill="#263F3D" transform="translate(0,24)"/>
<path d="M0 0 C5.94 0 11.88 0 18 0 C18 17.49 18 34.98 18 53 C12.06 53 6.12 53 0 53 C0 35.51 0 18.02 0 0 Z " fill="#3F5657" transform="translate(145,122)"/>
<path d="M0 0 C14.39573389 -0.02343855 28.79146479 -0.04096608 43.1872139 -0.05181217 C49.87253762 -0.05695197 56.55784768 -0.06407683 63.24316406 -0.07543945 C69.70114009 -0.08634634 76.15910378 -0.09229332 82.61708832 -0.09487724 C85.07449284 -0.09671747 87.53189672 -0.10031087 89.98929596 -0.10573006 C93.44502698 -0.11304413 96.90070774 -0.1139866 100.35644531 -0.11352539 C101.36058472 -0.11712067 102.36472412 -0.12071594 103.39929199 -0.12442017 C110.30903048 -0.11451428 117.12336796 0.33346261 124 1 C124 3.97 124 6.94 124 10 C81.43 10 38.86 10 -5 10 C-5 9.67 -5 9.34 -5 9 C32.29 9 69.58 9 108 9 C108.33 6.36 108.66 3.72 109 1 C73.03 1 37.06 1 0 1 C0 0.67 0 0.34 0 0 Z " fill="#378161" transform="translate(76,77)"/>
<path d="M0 0 C0.80993408 0.00141495 1.61986816 0.0028299 2.4543457 0.00428772 C5.01126994 0.00983242 7.56810276 0.02237418 10.125 0.03515625 C11.87109247 0.04017841 13.61718634 0.04474006 15.36328125 0.04882812 C19.61722209 0.05978365 23.87109561 0.07700931 28.125 0.09765625 C28.125 0.42765625 28.125 0.75765625 28.125 1.09765625 C18.225 1.09765625 8.325 1.09765625 -1.875 1.09765625 C-1.875 3.73765625 -1.875 6.37765625 -1.875 9.09765625 C9.675 9.09765625 21.225 9.09765625 33.125 9.09765625 C33.125 9.42765625 33.125 9.75765625 33.125 10.09765625 C16.625 10.09765625 0.125 10.09765625 -16.875 10.09765625 C-16.875 7.12765625 -16.875 4.15765625 -16.875 1.09765625 C-11.20004784 0.28413384 -5.72807186 -0.03849309 0 0 Z " fill="#2C875B" transform="translate(16.875,76.90234375)"/>
<path d="M0 0 C42.57 0 85.14 0 129 0 C129 2.97 129 5.94 129 9 C127.02 9 125.04 9 123 9 C123 6.36 123 3.72 123 1 C82.41 1 41.82 1 0 1 C0 0.67 0 0.34 0 0 Z " fill="#2D6A51" transform="translate(71,24)"/>
<path d="M0 0 C4.95 0 9.9 0 15 0 C15 2.97 15 5.94 15 9 C10.05 9 5.1 9 0 9 C0 6.03 0 3.06 0 0 Z " fill="#2C8A5C" transform="translate(0,113)"/>
<path d="M0 0 C16.5 0 33 0 50 0 C50 0.33 50 0.66 50 1 C36.47 1 22.94 1 9 1 C9 3.64 9 6.28 9 9 C6.03 9 3.06 9 0 9 C0 6.03 0 3.06 0 0 Z " fill="#2A6F51" transform="translate(0,24)"/>
<path d="M0 0 C1.32 0 2.64 0 4 0 C4 2.64 4 5.28 4 8 C19.18 8 34.36 8 50 8 C50 8.33 50 8.66 50 9 C33.5 9 17 9 0 9 C0 6.03 0 3.06 0 0 Z " fill="#2A6F51" transform="translate(0,78)"/>
<path d="M0 0 C1.98 0 3.96 0 6 0 C6 2.97 6 5.94 6 9 C4.02 9 2.04 9 0 9 C0 6.03 0 3.06 0 0 Z " fill="#307759" transform="translate(194,166)"/>
<path d="M0 0 C1.98 0 3.96 0 6 0 C6 2.97 6 5.94 6 9 C4.33388095 9.042721 2.66617115 9.04063832 1 9 C0 8 0 8 -0.09765625 6.15234375 C-0.06510417 4.1015625 -0.03255208 2.05078125 0 0 Z " fill="#2EA567" transform="translate(9,113)"/>
<path d="M0 0 C1.98 0 3.96 0 6 0 C6 2.64 6 5.28 6 8 C4.02 8 2.04 8 0 8 C0 5.36 0 2.72 0 0 Z " fill="#2FA568" transform="translate(9,78)"/>
<path d="M0 0 C1.98 0 3.96 0 6 0 C6 2.64 6 5.28 6 8 C4.02 8 2.04 8 0 8 C0 5.36 0 2.72 0 0 Z " fill="#2F7758" transform="translate(194,25)"/>
<path d="M0 0 C1.98 0 3.96 0 6 0 C6 2.64 6 5.28 6 8 C4.02 8 2.04 8 0 8 C0 5.36 0 2.72 0 0 Z " fill="#2FA568" transform="translate(9,25)"/>
<path d="M0 0 C1.98 0 3.96 0 6 0 C6 2.97 6 5.94 6 9 C4.02 9 2.04 9 0 9 C0 6.03 0 3.06 0 0 Z " fill="#31C173" transform="translate(15,113)"/>
<path d="M0 0 C1.65 0 3.3 0 5 0 C5 2.64 5 5.28 5 8 C3.35 8 1.7 8 0 8 C0 5.36 0 2.72 0 0 Z " fill="#31C173" transform="translate(15,78)"/>
<path d="M0 0 C1.65 0 3.3 0 5 0 C5 2.64 5 5.28 5 8 C3.35 8 1.7 8 0 8 C0 5.36 0 2.72 0 0 Z " fill="#31C173" transform="translate(15,25)"/>
<path d="M0 0 C1.65 0 3.3 0 5 0 C5 2.64 5 5.28 5 8 C3.35 8 1.7 8 0 8 C0 5.36 0 2.72 0 0 Z " fill="#2D8A5C" transform="translate(4,25)"/>
<path d="M0 0 C1.32 0 2.64 0 4 0 C4 2.64 4 5.28 4 8 C4.66 8.33 5.32 8.66 6 9 C4.02 9 2.04 9 0 9 C0 6.03 0 3.06 0 0 Z " fill="#2A7353" transform="translate(0,113)"/>
</svg>
