<?xml version="1.0" encoding="UTF-8"?>
<svg version="1.1" xmlns="http://www.w3.org/2000/svg" width="640" height="640">
<path d="M0 0 C3.2126249 0.02682471 6.42175732 0.00010765 9.63427734 -0.03173828 C25.24732616 -0.05893688 39.1873628 2.00015513 53.09130859 9.52685547 C53.74719971 9.86998779 54.40309082 10.21312012 55.07885742 10.56665039 C82.32818017 25.03085662 102.08177221 47.01892143 111.96240234 76.35107422 C112.98837477 79.76722416 113.88948871 83.18253584 114.71630859 86.65185547 C114.94189453 87.55291016 115.16748047 88.45396484 115.39990234 89.38232422 C117.65965575 100.18238707 118.82484498 114.93554448 115.71630859 125.65185547 C117.20130859 125.15685547 117.20130859 125.15685547 118.71630859 124.65185547 C150.41032289 122.49313004 181.72636953 130.02566082 206.12304688 151.22558594 C230.52458811 173.06956447 245.07747225 200.78403194 247.00146484 233.74951172 C247.73987182 265.82205828 235.32840319 293.47338151 213.71630859 316.65185547 C209.98393972 320.52772082 206.18016798 324.33255554 202.3684082 328.13012695 C200.6492219 329.8439278 198.93548276 331.56304629 197.22216797 333.28271484 C196.10465004 334.3995722 194.98682208 335.51611944 193.86865234 336.63232422 C193.36945786 337.13354294 192.87026337 337.63476166 192.35594177 338.15116882 C189.64406636 340.84563028 186.86546093 343.40871721 183.96459961 345.89916992 C178.93206673 350.26336589 174.2776763 354.98458766 169.59130859 359.71435547 C168.6357149 360.67436921 167.67981675 361.63408 166.72363281 362.59350586 C163.71833309 365.61011916 160.71701248 368.63067143 157.71630859 371.65185547 C154.23337849 375.15855698 150.74874358 378.66353013 147.25982666 382.16427612 C145.87977726 383.55070887 144.50283115 384.94022845 143.12597656 386.32983398 C138.79686926 390.67567648 134.40657916 394.84340963 129.75415039 398.83886719 C125.59517904 402.53894161 121.72618222 406.54230745 117.81005859 410.49560547 C116.39767927 411.91377197 114.98529698 413.33193554 113.57274628 414.74993134 C111.11843358 417.21508678 108.66746327 419.68356056 106.21630859 422.15185547 C103.28693656 425.10171178 100.35694574 428.05093386 97.42297363 430.99621582 C95.60410246 432.82253976 93.78748207 434.65110908 91.97351074 436.4822998 C88.3175069 440.15277588 84.66120782 443.76208633 80.72998047 447.13818359 C75.76215093 451.40673831 71.19895247 456.06404055 66.59130859 460.71435547 C65.6357149 461.67436921 64.67981675 462.63408 63.72363281 463.59350586 C60.71833309 466.61011916 57.71701248 469.63067143 54.71630859 472.65185547 C51.23337849 476.15855698 47.74874358 479.66353013 44.25982666 483.16427612 C42.87977726 484.55070887 41.50283115 485.94022845 40.12597656 487.32983398 C35.80541898 491.6670937 31.42636108 495.83308792 26.78317261 499.82098389 C22.47524939 503.63703281 18.42984939 507.73290084 14.34521484 511.78466797 C13.86836683 512.25744045 13.39151882 512.73021294 12.90022087 513.21731186 C10.38687166 515.70999831 7.87666795 518.20580429 5.36889648 520.70410156 C2.78598839 523.27585394 0.19158863 525.83569383 -2.40539455 528.3932209 C-4.41174612 530.37345391 -6.40918524 532.36249679 -8.40431404 534.35403061 C-9.81881592 535.76131843 -11.24288839 537.15896549 -12.667099 538.556427 C-13.52211502 539.41436859 -14.37713104 540.27231018 -15.25805664 541.15625 C-16.01336166 541.90568878 -16.76866669 542.65512756 -17.54685974 543.42727661 C-19.52333838 545.95880151 -20.19361407 547.44334169 -20.28369141 550.65185547 C-19.21196515 552.66744164 -19.21196515 552.66744164 -17.41113281 554.39331055 C-16.75945129 555.08220367 -16.10776978 555.7710968 -15.43634033 556.48086548 C-14.72596619 557.19729218 -14.01559204 557.91371887 -13.28369141 558.65185547 C-12.58765808 559.36965179 -11.89162476 560.08744812 -11.17449951 560.82699585 C-8.88382639 563.16751904 -6.56782392 565.48034391 -4.24462891 567.78857422 C-3.40074615 568.63104202 -2.5568634 569.47350983 -1.68740845 570.34150696 C0.98647132 573.0098345 3.66381689 575.67465279 6.34130859 578.33935547 C8.14622847 580.13925268 9.95091813 581.93938078 11.75537109 583.73974609 C15.06205518 587.03829544 18.37002777 590.33553989 21.6796875 593.63110352 C22.3827301 594.33141693 23.08577271 595.03173035 23.81011963 595.75326538 C24.97682386 596.91531863 26.14385798 598.07704094 27.3114624 599.2381897 C32.8330425 604.73888977 35.19247266 609.02463804 36.09130859 616.96435547 C35.42149196 623.5508857 33.43175147 629.52160253 28.46630859 634.08935547 C22.12604311 638.85129955 15.59172552 640.61023954 7.71630859 639.65185547 C-5.72102735 637.20631292 -17.23934618 620.78414601 -26.40869141 611.52685547 C-29.22079312 608.68791707 -32.03636405 605.85248369 -34.85400391 603.01904297 C-35.79495407 602.06564529 -35.79495407 602.06564529 -36.75491333 601.09298706 C-40.55764406 597.26958897 -44.48315198 593.65157598 -48.57173157 590.13505554 C-58.09341832 581.88569935 -66.1831144 569.4919206 -67.28369141 556.65185547 C-68.22738603 541.16827337 -65.83029916 527.73317092 -55.72900391 515.57763672 C-53.00087017 512.51489793 -50.15700456 509.57845403 -47.28369141 506.65185547 C-46.55537109 505.89646484 -45.82705078 505.14107422 -45.07666016 504.36279297 C-42.05788086 501.27851747 -38.96579718 498.34601877 -35.67822266 495.55029297 C-30.60346511 491.12966461 -25.89366758 486.3681819 -21.15869141 481.58935547 C-20.20309771 480.62934172 -19.24719957 479.66963094 -18.29101562 478.71020508 C-15.28571591 475.69359177 -12.28439529 472.67303951 -9.28369141 469.65185547 C-5.8007613 466.14515396 -2.31612639 462.64018081 1.17279053 459.13943481 C2.55283993 457.75300207 3.92978604 456.36348249 5.30664062 454.97387695 C9.63574793 450.62803446 14.02603803 446.46030131 18.6784668 442.46484375 C22.83743814 438.76476933 26.70643497 434.76140349 30.62255859 430.80810547 C32.03493792 429.38993897 33.4473202 427.9717754 34.85987091 426.5537796 C37.31418361 424.08862415 39.76515392 421.62015038 42.21630859 419.15185547 C45.14568063 416.20199916 48.07567145 413.25277708 51.00964355 410.30749512 C52.82851473 408.48117118 54.64513511 406.65260186 56.45910645 404.82141113 C60.11511029 401.15093506 63.77140936 397.54162461 67.70263672 394.16552734 C72.67046626 389.89697263 77.23366472 385.23967039 81.84130859 380.58935547 C82.79690229 379.62934172 83.75280043 378.66963094 84.70898438 377.71020508 C87.71428409 374.69359177 90.71560471 371.67303951 93.71630859 368.65185547 C97.1992387 365.14515396 100.68387361 361.64018081 104.17279053 358.13943481 C105.55283993 356.75300207 106.92978604 355.36348249 108.30664062 353.97387695 C112.63141319 349.63238596 117.01736727 345.46972602 121.66503906 341.47827148 C125.90402244 337.70395172 129.84794079 333.61970555 133.84130859 329.58935547 C134.79690229 328.62934172 135.75280043 327.66963094 136.70898438 326.71020508 C139.71428409 323.69359177 142.71560471 320.67303951 145.71630859 317.65185547 C149.1992387 314.14515396 152.68387361 310.64018081 156.17279053 307.13943481 C157.55283993 305.75300207 158.92978604 304.36348249 160.30664062 302.97387695 C164.7362546 298.52713926 169.21515507 294.21415551 173.98657227 290.13452148 C186.81087484 279.14200355 197.39929972 263.371281 198.93774414 246.17700195 C199.81038601 226.1583369 196.39389168 208.84291013 182.59130859 193.40185547 C169.05764282 179.00149017 151.02843677 170.95394157 131.21630859 170.27685547 C103.35577245 171.26745231 86.38324159 186.46894848 67.96630859 205.27685547 C65.77782943 207.50068736 63.58708481 209.72221991 61.39349365 211.94100952 C60.04104801 213.31010955 58.69171667 214.68229653 57.34625244 216.05825806 C54.28565663 219.16692216 51.18596933 222.15472446 47.87548828 224.99707031 C42.86470761 229.32000318 38.24696992 234.01557841 33.59130859 238.71435547 C32.6357149 239.67436921 31.67981675 240.63408 30.72363281 241.59350586 C27.71833309 244.61011916 24.71701248 247.63067143 21.71630859 250.65185547 C18.23337849 254.15855698 14.74874358 257.66353013 11.25982666 261.16427612 C9.87977726 262.55070887 8.50283115 263.94022845 7.12597656 265.32983398 C2.801204 269.67132498 -1.58475008 273.83398491 -6.23242188 277.82543945 C-10.47140525 281.59975922 -14.4153236 285.68400539 -18.40869141 289.71435547 C-19.3642851 290.67436921 -20.32018325 291.63408 -21.27636719 292.59350586 C-24.28166691 295.61011916 -27.28298752 298.63067143 -30.28369141 301.65185547 C-33.76662151 305.15855698 -37.25125642 308.66353013 -40.74017334 312.16427612 C-42.12022274 313.55070887 -43.49716885 314.94022845 -44.87402344 316.32983398 C-49.198796 320.67132498 -53.58475008 324.83398491 -58.23242188 328.82543945 C-62.47140525 332.59975922 -66.4153236 336.68400539 -70.40869141 340.71435547 C-71.3642851 341.67436921 -72.32018325 342.63408 -73.27636719 343.59350586 C-76.28166691 346.61011916 -79.28298752 349.63067143 -82.28369141 352.65185547 C-85.76662151 356.15855698 -89.25125642 359.66353013 -92.74017334 363.16427612 C-94.12022274 364.55070887 -95.49716885 365.94022845 -96.87402344 367.32983398 C-115.21138413 385.73808208 -115.21138413 385.73808208 -126.78369141 386.15185547 C-134.41056474 385.87852244 -139.32823345 383.98928698 -144.59619141 378.46435547 C-149.20574452 372.55757839 -150.82097668 366.48742294 -149.99853516 359.08544922 C-147.38656887 350.1933454 -142.06229388 344.90382739 -135.53369141 338.58935547 C-134.66486328 337.73019531 -133.79603516 336.87103516 -132.90087891 335.98583984 C-129.22253396 332.37100986 -125.51620309 328.84144794 -121.60302734 325.48217773 C-116.55278424 321.08566785 -111.86947887 316.34376918 -107.15869141 311.58935547 C-106.20309771 310.62934172 -105.24719957 309.66963094 -104.29101562 308.71020508 C-101.28571591 305.69359177 -98.28439529 302.67303951 -95.28369141 299.65185547 C-91.8007613 296.14515396 -88.31612639 292.64018081 -84.82720947 289.13943481 C-83.44716007 287.75300207 -82.07021396 286.36348249 -80.69335938 284.97387695 C-76.36858681 280.63238596 -71.98263273 276.46972602 -67.33496094 272.47827148 C-63.09597756 268.70395172 -59.15205921 264.61970555 -55.15869141 260.58935547 C-54.20309771 259.62934172 -53.24719957 258.66963094 -52.29101562 257.71020508 C-49.28571591 254.69359177 -46.28439529 251.67303951 -43.28369141 248.65185547 C-39.8007613 245.14515396 -36.31612639 241.64018081 -32.82720947 238.13943481 C-31.44716007 236.75300207 -30.07021396 235.36348249 -28.69335938 233.97387695 C-24.36858681 229.63238596 -19.98263273 225.46972602 -15.33496094 221.47827148 C-11.09597756 217.70395172 -7.15205921 213.61970555 -3.15869141 209.58935547 C-2.20309771 208.62934172 -1.24719957 207.66963094 -0.29101562 206.71020508 C2.71428409 203.69359177 5.71560471 200.67303951 8.71630859 197.65185547 C12.1992387 194.14515396 15.68387361 190.64018081 19.17279053 187.13943481 C20.55283993 185.75300207 21.92978604 184.36348249 23.30664062 182.97387695 C27.72280023 178.54064564 32.18516513 174.24087748 36.9495697 170.1822052 C55.10183494 154.45870788 67.58884253 137.34019006 69.99755859 112.78466797 C70.57812067 96.48054957 64.95497283 80.35149803 54.21630859 68.08935547 C52.73673652 66.58975535 51.23812485 65.10856728 49.71630859 63.65185547 C48.83265625 62.72179688 48.83265625 62.72179688 47.93115234 61.77294922 C35.37552427 49.43807944 16.78338081 44.66957829 -0.28369141 44.65185547 C-22.38927508 46.06723044 -38.88053038 57.2888055 -53.65869141 72.77685547 C-55.19082587 74.35962291 -56.7267765 75.93853885 -58.26528931 77.5151062 C-59.64842558 78.93584894 -61.02185489 80.36602367 -62.39453125 81.796875 C-64.50555717 83.93950227 -66.71497509 85.91506562 -68.99707031 87.87402344 C-74.04595374 92.24377948 -78.71109044 96.97325037 -83.40869141 101.71435547 C-84.3642851 102.67436921 -85.32018325 103.63408 -86.27636719 104.59350586 C-89.28166691 107.61011916 -92.28298752 110.63067143 -95.28369141 113.65185547 C-98.76662151 117.15855698 -102.25125642 120.66353013 -105.74017334 124.16427612 C-107.12022274 125.55070887 -108.49716885 126.94022845 -109.87402344 128.32983398 C-114.198796 132.67132498 -118.58475008 136.83398491 -123.23242188 140.82543945 C-127.47140525 144.59975922 -131.4153236 148.68400539 -135.40869141 152.71435547 C-136.3642851 153.67436921 -137.32018325 154.63408 -138.27636719 155.59350586 C-141.28166691 158.61011916 -144.28298752 161.63067143 -147.28369141 164.65185547 C-150.76662151 168.15855698 -154.25125642 171.66353013 -157.74017334 175.16427612 C-159.12022274 176.55070887 -160.49716885 177.94022845 -161.87402344 179.32983398 C-166.198796 183.67132498 -170.58475008 187.83398491 -175.23242188 191.82543945 C-179.47140525 195.59975922 -183.4153236 199.68400539 -187.40869141 203.71435547 C-188.3642851 204.67436921 -189.32018325 205.63408 -190.27636719 206.59350586 C-193.28166691 209.61011916 -196.28298752 212.63067143 -199.28369141 215.65185547 C-202.76662151 219.15855698 -206.25125642 222.66353013 -209.74017334 226.16427612 C-211.12022274 227.55070887 -212.49716885 228.94022845 -213.87402344 230.32983398 C-218.20313074 234.67567648 -222.59342084 238.84340963 -227.24584961 242.83886719 C-231.40482096 246.53894161 -235.27381778 250.54230745 -239.18994141 254.49560547 C-240.60232073 255.91377197 -242.01470302 257.33193554 -243.42725372 258.74993134 C-245.88156642 261.21508678 -248.33253673 263.68356056 -250.78369141 266.15185547 C-253.71306344 269.10171178 -256.64305426 272.05093386 -259.57702637 274.99621582 C-261.39589754 276.82253976 -263.21251793 278.65110908 -265.02648926 280.4822998 C-269.38888384 284.86196285 -273.81973169 289.06591333 -278.50894165 293.0930481 C-281.07650841 295.3482066 -283.41405874 297.75891858 -285.77978516 300.22607422 C-286.76029967 301.23382495 -287.74143824 302.2409688 -288.72314453 303.24755859 C-290.22758657 304.7952021 -291.72772822 306.34620798 -293.2175293 307.90795898 C-299.85404808 314.84895512 -305.68530747 320.56412187 -315.50634766 322.18310547 C-323.2183504 322.09824161 -328.48396243 321.12051895 -334.25634766 315.85107422 C-339.11344019 310.7147238 -340.95223126 306.29791703 -341.59619141 299.21435547 C-340.49792368 286.69410337 -331.01111238 279.22426969 -322.56884766 270.80419922 C-321.75427597 269.98867081 -320.93970428 269.1731424 -320.10044861 268.332901 C-318.38809948 266.61987539 -316.67450298 264.90809582 -314.9597168 263.19750977 C-312.35367126 260.59681995 -309.75300618 257.99083591 -307.15283203 255.38427734 C-305.47932442 253.7114306 -303.80550659 252.03889413 -302.13134766 250.36669922 C-301.36339371 249.59672104 -300.59543976 248.82674286 -299.80421448 248.03343201 C-296.40613184 244.64987139 -292.98775217 241.34795949 -289.34985352 238.22241211 C-284.44776775 233.99561002 -279.93050379 229.40438848 -275.37744141 224.80810547 C-273.96506208 223.38993897 -272.5526798 221.9717754 -271.14012909 220.5537796 C-268.68581639 218.08862415 -266.23484608 215.62015038 -263.78369141 213.15185547 C-260.85431937 210.20199916 -257.92432855 207.25277708 -254.99035645 204.30749512 C-253.17148527 202.48117118 -251.35486489 200.65260186 -249.54089355 198.82141113 C-245.88488971 195.15093506 -242.22859064 191.54162461 -238.29736328 188.16552734 C-233.32953374 183.89697263 -228.76633528 179.23967039 -224.15869141 174.58935547 C-223.20309771 173.62934172 -222.24719957 172.66963094 -221.29101562 171.71020508 C-218.28571591 168.69359177 -215.28439529 165.67303951 -212.28369141 162.65185547 C-208.8007613 159.14515396 -205.31612639 155.64018081 -201.82720947 152.13943481 C-200.44716007 150.75300207 -199.07021396 149.36348249 -197.69335938 147.97387695 C-193.36858681 143.63238596 -188.98263273 139.46972602 -184.33496094 135.47827148 C-180.09597756 131.70395172 -176.15205921 127.61970555 -172.15869141 123.58935547 C-171.20309771 122.62934172 -170.24719957 121.66963094 -169.29101562 120.71020508 C-166.28571591 117.69359177 -163.28439529 114.67303951 -160.28369141 111.65185547 C-156.8007613 108.14515396 -153.31612639 104.64018081 -149.82720947 101.13943481 C-148.44716007 99.75300207 -147.07021396 98.36348249 -145.69335938 96.97387695 C-141.36858681 92.63238596 -136.98263273 88.46972602 -132.33496094 84.47827148 C-128.09597756 80.70395172 -124.15205921 76.61970555 -120.15869141 72.58935547 C-119.20309771 71.62934172 -118.24719957 70.66963094 -117.29101562 69.71020508 C-114.28571591 66.69359177 -111.28439529 63.67303951 -108.28369141 60.65185547 C-104.8007613 57.14515396 -101.31612639 53.64018081 -97.82720947 50.13943481 C-96.44716007 48.75300207 -95.07021396 47.36348249 -93.69335938 45.97387695 C-89.25927473 41.5226513 -84.77965827 37.2129726 -79.98291016 33.15283203 C-78.26263616 31.63325666 -76.71289287 30.02687148 -75.15869141 28.33935547 C-67.29503768 20.45807024 -57.94065835 14.66031946 -47.97119141 9.83935547 C-47.2625293 9.4908252 -46.55386719 9.14229492 -45.82373047 8.78320312 C-43.34177513 7.63410921 -40.8392763 6.62736272 -38.28369141 5.65185547 C-37.11854004 5.20616211 -35.95338867 4.76046875 -34.75292969 4.30126953 C-23.25670806 0.25569903 -12.10415011 -0.11998929 0 0 Z " fill="#FFFFFF" transform="translate(367.28369140625,-0.65185546875)"/>
<path d="M0 0 C4.9416829 3.25701828 8.12307941 7.36923823 10 13 C10.1717326 15.05797591 10.26651206 17.12288332 10.3125 19.1875 C10.34988281 20.27417969 10.38726562 21.36085938 10.42578125 22.48046875 C9.48138036 30.28693846 5.0291685 35.5596858 -0.453125 40.87890625 C-1.07217712 41.49467026 -1.69122925 42.11043427 -2.32904053 42.74485779 C-4.29346738 44.69366772 -6.27161151 46.62787689 -8.25 48.5625 C-9.56206623 49.86305688 -10.8732718 51.16448263 -12.18359375 52.46679688 C-13.4601715 53.72994129 -14.73749164 54.99233593 -16.015625 56.25390625 C-16.5961261 56.82702042 -17.1766272 57.40013458 -17.77471924 57.99061584 C-20.70800717 60.85751281 -23.69155618 63.62059412 -26.80371094 66.29272461 C-31.81866787 70.64133991 -36.45517984 75.34943299 -41.125 80.0625 C-42.0805937 81.02251375 -43.03649184 81.98222453 -43.99267578 82.94165039 C-46.9979755 85.95826369 -49.99929612 88.97881596 -53 92 C-56.48293011 95.50670151 -59.96756502 99.01167466 -63.45648193 102.51242065 C-64.83653133 103.8988534 -66.21347744 105.28837298 -67.59033203 106.67797852 C-71.91510459 111.01946951 -76.30105868 115.18212945 -80.94873047 119.17358398 C-85.18771385 122.94790375 -89.1316322 127.03214992 -93.125 131.0625 C-94.0805937 132.02251375 -95.03649184 132.98222453 -95.99267578 133.94165039 C-98.9979755 136.95826369 -101.99929612 139.97881596 -105 143 C-108.48293011 146.50670151 -111.96756502 150.01167466 -115.45648193 153.51242065 C-116.83653133 154.8988534 -118.21347744 156.28837298 -119.59033203 157.67797852 C-123.91943934 162.02382101 -128.30972944 166.19155416 -132.9621582 170.18701172 C-137.12112955 173.88708614 -140.99012637 177.89045198 -144.90625 181.84375 C-146.31862932 183.2619165 -147.73101161 184.68008007 -149.14356232 186.09807587 C-151.59787501 188.56323132 -154.04884533 191.03170509 -156.5 193.5 C-159.42937203 196.44985631 -162.35936285 199.39907839 -165.29333496 202.34436035 C-167.11220613 204.17068429 -168.92882652 205.99925361 -170.74279785 207.83044434 C-175.13388587 212.2389144 -179.57666672 216.49625237 -184.32894897 220.51498413 C-196.86750717 231.65764681 -204.09680475 248.41798842 -205.28125 264.91796875 C-205.89668974 282.56411159 -200.61622426 299.40432335 -188.625 312.5625 C-183.92551342 317.47216911 -178.83678745 321.52594411 -173 325 C-172.24589844 325.45890625 -171.49179688 325.9178125 -170.71484375 326.390625 C-155.12474406 335.03154837 -136.71508304 336.39321717 -119.68334961 331.83911133 C-105.31761927 327.60019027 -95.09293019 319.42342851 -84.87109375 308.84375 C-82.82079081 306.7590496 -80.67964212 304.84618113 -78.45336914 302.95117188 C-73.35919088 298.5120892 -68.62883216 293.73535704 -63.875 288.9375 C-62.9194063 287.97748625 -61.96350816 287.01777547 -61.00732422 286.05834961 C-58.0020245 283.04173631 -55.00070388 280.02118404 -52 277 C-48.51706989 273.49329849 -45.03243498 269.98832534 -41.54351807 266.48757935 C-40.16346867 265.1011466 -38.78652256 263.71162702 -37.40966797 262.32202148 C-33.08489541 257.98053049 -28.69894132 253.81787055 -24.05126953 249.82641602 C-19.81228615 246.05209625 -15.8683678 241.96785008 -11.875 237.9375 C-10.9194063 236.97748625 -9.96350816 236.01777547 -9.00732422 235.05834961 C-6.0020245 232.04173631 -3.00070388 229.02118404 0 226 C3.48293011 222.49329849 6.96756502 218.98832534 10.45648193 215.48757935 C11.83653133 214.1011466 13.21347744 212.71162702 14.59033203 211.32202148 C18.91510459 206.98053049 23.30105868 202.81787055 27.94873047 198.82641602 C32.18771385 195.05209625 36.1316322 190.96785008 40.125 186.9375 C41.0805937 185.97748625 42.03649184 185.01777547 42.99267578 184.05834961 C45.9979755 181.04173631 48.99929612 178.02118404 52 175 C55.48293011 171.49329849 58.96756502 167.98832534 62.45648193 164.48757935 C63.83653133 163.1011466 65.21347744 161.71162702 66.59033203 160.32202148 C71.02359999 155.87161568 75.52004958 151.58859527 80.28665161 147.49740601 C82.5219839 145.5438045 84.57764004 143.45291674 86.62109375 141.30078125 C87.80735352 140.07584961 87.80735352 140.07584961 89.01757812 138.82617188 C90.6348534 137.14624187 92.24422447 135.45866753 93.84570312 133.76367188 C99.59083249 127.86895411 104.7894485 123.85056561 113.0390625 122.50390625 C121.19222515 122.68864558 127.29838019 124.5885672 133.421875 130.1328125 C137.16194256 134.55794194 138.69300743 139.85105204 139.5 145.5 C138.05523564 155.61335052 133.10388559 161.75206186 125.921875 168.69921875 C125.03647034 169.5785054 124.15106567 170.45779205 123.23883057 171.36372375 C120.89839554 173.6818997 118.5453842 175.98621715 116.18560791 178.28466797 C113.80552386 180.61041312 111.44521176 182.95591046 109.08203125 185.29882812 C95.19823312 199.01554177 95.19823312 199.01554177 90.03222656 203.45239258 C85.06574089 207.73971029 80.4906447 212.40411017 75.875 217.0625 C74.9194063 218.02251375 73.96350816 218.98222453 73.00732422 219.94165039 C70.0020245 222.95826369 67.00070388 225.97881596 64 229 C60.51706989 232.50670151 57.03243498 236.01167466 53.54351807 239.51242065 C52.16346867 240.8988534 50.78652256 242.28837298 49.40966797 243.67797852 C45.08056066 248.02382101 40.69027056 252.19155416 36.0378418 256.18701172 C31.87887045 259.88708614 28.00987363 263.89045198 24.09375 267.84375 C22.68137068 269.2619165 21.26898839 270.68008007 19.85643768 272.09807587 C17.40212499 274.56323132 14.95115467 277.03170509 12.5 279.5 C9.57062797 282.44985631 6.64063715 285.39907839 3.70666504 288.34436035 C1.88779387 290.17068429 0.07117348 291.99925361 -1.74279785 293.83044434 C-6.02907699 298.13369064 -10.38223376 302.25345554 -14.98800659 306.21063232 C-18.95454315 309.73827425 -22.6372793 313.55803921 -26.36328125 317.3359375 C-28.15545952 319.14076347 -29.94778172 320.94544653 -31.74023438 322.75 C-34.52633952 325.56085201 -37.31080709 328.37328672 -40.0925293 331.18847656 C-42.80324085 333.92967252 -45.52037198 336.66438044 -48.23828125 339.3984375 C-49.05323563 340.2268515 -49.86819 341.0552655 -50.70783997 341.90878296 C-75.58684848 366.89363409 -104.87513812 380.34704037 -140.20458984 381.04345703 C-167.23988726 380.93436611 -195.12584384 370.30138121 -215 352 C-215.52190918 351.52046875 -216.04381836 351.0409375 -216.58154297 350.546875 C-236.29176095 332.23007518 -250.48842542 307.03583528 -252.20507812 279.73901367 C-252.30325737 276.23987536 -252.32893185 272.75045947 -252.3125 269.25 C-252.30758545 268.0122583 -252.3026709 266.7745166 -252.29760742 265.49926758 C-252.18377257 256.61839767 -251.51346942 248.55800722 -249 240 C-248.67128906 238.80246094 -248.34257812 237.60492188 -248.00390625 236.37109375 C-243.73162747 222.19422404 -236.90300627 209.05089894 -227 198 C-226.39542969 197.2884375 -225.79085937 196.576875 -225.16796875 195.84375 C-219.8663325 189.73693428 -214.14196847 184.03997698 -208.4375 178.3125 C-207.23226685 177.10025757 -207.23226685 177.10025757 -206.00268555 175.86352539 C-205.21676025 175.07969482 -204.43083496 174.29586426 -203.62109375 173.48828125 C-202.9242749 172.79259033 -202.22745605 172.09689941 -201.50952148 171.38012695 C-199.49429156 169.46880518 -197.44985635 167.65605521 -195.34399414 165.84838867 C-190.28399851 161.44697405 -185.59322183 156.69941693 -180.875 151.9375 C-179.9194063 150.97748625 -178.96350816 150.01777547 -178.00732422 149.05834961 C-175.0020245 146.04173631 -172.00070388 143.02118404 -169 140 C-165.51706989 136.49329849 -162.03243498 132.98832534 -158.54351807 129.48757935 C-157.16346867 128.1011466 -155.78652256 126.71162702 -154.40966797 125.32202148 C-150.08489541 120.98053049 -145.69894132 116.81787055 -141.05126953 112.82641602 C-136.81228615 109.05209625 -132.8683678 104.96785008 -128.875 100.9375 C-127.9194063 99.97748625 -126.96350816 99.01777547 -126.00732422 98.05834961 C-123.0020245 95.04173631 -120.00070388 92.02118404 -117 89 C-113.51706989 85.49329849 -110.03243498 81.98832534 -106.54351807 78.48757935 C-105.16346867 77.1011466 -103.78652256 75.71162702 -102.40966797 74.32202148 C-98.08489541 69.98053049 -93.69894132 65.81787055 -89.05126953 61.82641602 C-84.81228615 58.05209625 -80.8683678 53.96785008 -76.875 49.9375 C-75.9194063 48.97748625 -74.96350816 48.01777547 -74.00732422 47.05834961 C-71.0020245 44.04173631 -68.00070388 41.02118404 -65 38 C-61.51706989 34.49329849 -58.03243498 30.98832534 -54.54351807 27.48757935 C-53.16346867 26.1011466 -51.78652256 24.71162702 -50.40966797 23.32202148 C-45.94505275 18.84014725 -41.42896039 14.5023391 -36.6103363 10.40141296 C-34.61457028 8.66457553 -32.84123339 6.76870339 -31.0625 4.8125 C-22.36268594 -3.92123146 -11.00035425 -5.73396542 0 0 Z " fill="#FFFFFF" transform="translate(383,90)"/>
</svg>
