<?xml version="1.0" encoding="UTF-8" standalone="no"?>
<svg
   version="1.1"
   viewBox="-10 0 48 48"
   id="svg1"
   width="48"
   height="48"
   sodipodi:docname="logo-small.svg"
   inkscape:version="1.4.3 (0d15f75042, 2025-12-25)"
   xml:space="preserve"
   inkscape:export-filename="com.gitlab.surferproject.surfer.png"
   inkscape:export-xdpi="512"
   inkscape:export-ydpi="512"
   xmlns:inkscape="http://www.inkscape.org/namespaces/inkscape"
   xmlns:sodipodi="http://sodipodi.sourceforge.net/DTD/sodipodi-0.dtd"
   xmlns:xlink="http://www.w3.org/1999/xlink"
   xmlns="http://www.w3.org/2000/svg"
   xmlns:svg="http://www.w3.org/2000/svg"><sodipodi:namedview
     id="namedview1"
     pagecolor="#ffffff"
     bordercolor="#000000"
     borderopacity="0.25"
     inkscape:showpageshadow="2"
     inkscape:pageopacity="0.0"
     inkscape:pagecheckerboard="0"
     inkscape:deskcolor="#d1d1d1"
     inkscape:zoom="18.847103"
     inkscape:cx="23.053941"
     inkscape:cy="26.078278"
     inkscape:window-width="2560"
     inkscape:window-height="1412"
     inkscape:window-x="5440"
     inkscape:window-y="0"
     inkscape:window-maximized="1"
     inkscape:current-layer="svg1"
     showguides="true"><sodipodi:guide
       position="0.53901444,44"
       orientation="0,1"
       id="guide3"
       inkscape:locked="false"
       inkscape:label=""
       inkscape:color="rgb(0,134,229)" /><sodipodi:guide
       position="0,4"
       orientation="0,1"
       id="guide4"
       inkscape:locked="false"
       inkscape:label=""
       inkscape:color="rgb(0,134,229)" /><sodipodi:guide
       position="4,47.662326"
       orientation="-1,0"
       id="guide5"
       inkscape:locked="false"
       inkscape:label=""
       inkscape:color="rgb(0,134,229)" /><sodipodi:guide
       position="44,47.841296"
       orientation="-1,0"
       id="guide6"
       inkscape:locked="false"
       inkscape:label=""
       inkscape:color="rgb(0,134,229)" /></sodipodi:namedview><defs
     id="defs1"><linearGradient
       id="linearGradient6"
       inkscape:collect="always"><stop
         style="stop-color:#e5eef5;stop-opacity:1;"
         offset="0"
         id="stop6" /><stop
         style="stop-color:#afcae0;stop-opacity:1;"
         offset="1"
         id="stop7" /></linearGradient><clipPath
       clipPathUnits="userSpaceOnUse"
       id="clipPath11"><ellipse
         style="fill:url(#linearGradient12);fill-opacity:1;stroke:none;stroke-width:1.03819;stroke-dasharray:none"
         id="ellipse12"
         cx="14"
         cy="23.5"
         rx="20"
         ry="19.5" /></clipPath><linearGradient
       inkscape:collect="always"
       xlink:href="#linearGradient6"
       id="linearGradient12"
       gradientUnits="userSpaceOnUse"
       x1="3.6992421"
       y1="6.3566527"
       x2="24.300762"
       y2="40.643341" /><clipPath id="aurBandClip"><path d="M 640 90 L 2048 90 L 2048 910 L 640 910 Z" /></clipPath><linearGradient id="Gradient1" x1="1666.09" x2="1709.67" y1="528.724" y2="650.463" gradientUnits="userSpaceOnUse"><stop offset="0" stop-color="#7a68d6"></stop><stop offset="1" stop-color="#9f8ffa"></stop></linearGradient><linearGradient id="Gradient2" x1="1692.16" x2="1777.9" y1="293.163" y2="520.621" gradientUnits="userSpaceOnUse"><stop offset="0" stop-color="#3a3f6b"></stop><stop offset="1" stop-color="#54619c"></stop></linearGradient><linearGradient id="Gradient3" x1="1041.58" x2="1074.69" y1="610.194" y2="817.362" gradientUnits="userSpaceOnUse"><stop offset="0" stop-color="#3fbfa0"></stop><stop offset="1" stop-color="#5ce8c2"></stop></linearGradient><linearGradient id="Gradient4" x1="1169.99" x2="1189.93" y1="366.297" y2="596.635" gradientUnits="userSpaceOnUse"><stop offset="0" stop-color="#2f3a56"></stop><stop offset="1" stop-color="#45587c"></stop></linearGradient><linearGradient id="Gradient5" x1="1159.41" x2="1203.31" y1="407.328" y2="754.072" gradientUnits="userSpaceOnUse"><stop offset="0" stop-color="#2f7f78"></stop><stop offset="1" stop-color="#45c2a8"></stop></linearGradient><linearGradient id="Gradient6" x1="743.556" x2="636.358" y1="170.721" y2="265.519" gradientUnits="userSpaceOnUse"><stop offset="0" stop-color="#3f9c85"></stop><stop offset="1" stop-color="#5ecfae"></stop></linearGradient><linearGradient id="Gradient7" x1="709.969" x2="603.521" y1="256.993" y2="309.682" gradientUnits="userSpaceOnUse"><stop offset="0" stop-color="#64e0b8"></stop><stop offset="1" stop-color="#a9ffe6"></stop></linearGradient><linearGradient id="Gradient8" x1="519.987" x2="476.688" y1="416.585" y2="1095.31" gradientUnits="userSpaceOnUse"><stop offset="0" stop-color="#2c3252"></stop><stop offset="1" stop-color="#4f7a9c"></stop></linearGradient><linearGradient id="Gradient9" x1="388.011" x2="431.628" y1="405.154" y2="613.196" gradientUnits="userSpaceOnUse"><stop offset="0" stop-color="#3bb493"></stop><stop offset="1" stop-color="#66e2c0"></stop></linearGradient><linearGradient id="Gradient10" x1="350.372" x2="419.634" y1="233.782" y2="572.819" gradientUnits="userSpaceOnUse"><stop offset="0" stop-color="#2f7a72"></stop><stop offset="1" stop-color="#46b8a2"></stop></linearGradient><linearGradient id="Gradient11" x1="388.216" x2="448.761" y1="466.765" y2="718.036" gradientUnits="userSpaceOnUse"><stop offset="0" stop-color="#4fd3a8"></stop><stop offset="1" stop-color="#9affdd"></stop></linearGradient><linearGradient id="Gradient12" x1="761.136" x2="1041.84" y1="272.4" y2="696.408" gradientUnits="userSpaceOnUse"><stop offset="0" stop-color="#3b5878"></stop><stop offset="1" stop-color="#54939e"></stop></linearGradient></defs><g
     id="aurora"><g
       id="aurora-sky"
       transform="translate(-44,-1) rotate(-14) scale(0.042)"><g clip-path="url(#aurBandClip)"><path fill="#97f5d2" d="M 732.366 150.202 C 809.214 148.725 890.158 149.983 967.276 150.087 L 1364.49 150.139 L 1689.69 149.886 C 1743.27 149.864 1804.32 148.416 1857.36 150.175 L 1876.12 150.181 L 1875.9 221.451 C 1875.91 280.244 1874.77 343.011 1875.82 401.549 C 1877.03 425.988 1876.07 456.733 1876.07 481.745 L 1875.3 655.804 C 1875.06 692.715 1875.14 729.627 1875.55 766.536 C 1778.51 834.802 1611.88 904.84 1489.19 885.657 C 1461.64 881.35 1423.72 866.6 1407.61 842.416 C 1384.92 808.346 1398.05 754.638 1394.36 713.993 C 1391.56 690.538 1376.56 669.871 1358.27 655.868 C 1314.19 622.102 1250.56 616.384 1197.06 623.589 C 1119.14 634.082 1051.7 672.434 990.36 719.808 C 966.149 738.508 942.789 758.225 918.671 776.779 C 894.481 795.498 869.326 812.935 843.31 829.02 C 811.713 848.913 769.664 869.637 732.652 874.328 C 717.919 880.568 704.392 890.354 689.863 897.009 C 594.57 940.658 489.748 945.313 388.261 964.097 C 370.297 967.422 349.404 971.519 331.933 977.296 C 331.4 989.592 331.032 1001.89 330.83 1014.2 C 330.292 1042.23 329.608 1070.26 328.779 1098.28 C 328.007 1113.24 327.508 1128.2 327.283 1143.17 C 326.636 1173.21 326.919 1190.89 302.384 1212.49 C 266.366 1244.2 217.691 1257.17 172.05 1266.56 C 172.003 1240.65 171.515 1213.1 172.156 1187.32 C 171.189 1170.87 171.954 1146.05 171.964 1129.09 L 171.942 1019.54 L 171.848 893.831 C 171.834 872.063 171.139 845.187 172.172 823.836 C 172.163 815.59 171.647 797.691 172.575 790.243 C 170.755 769.227 172.269 723.577 172.327 700.615 C 172.467 645.282 170.897 586.753 172.157 531.676 C 171.615 517.611 172.024 500.585 171.975 486.276 C 220.316 441.49 296.634 424.521 356.79 401.378 C 393.952 387.082 426.283 370.567 457.41 345.417 C 503.933 307.826 543.946 247.611 550.267 187.13 C 550.94 176.366 550.432 161.932 550.878 150.25 L 668.144 150.054 L 732.366 150.202 z"></path><path fill="url(#Gradient12)" d="M 732.366 150.202 C 809.214 148.725 890.158 149.983 967.276 150.087 L 1364.49 150.139 L 1689.69 149.886 C 1743.27 149.864 1804.32 148.416 1857.36 150.175 L 1876.12 150.181 L 1875.9 221.451 C 1859.28 233.375 1842.85 247.614 1825.81 259.331 C 1775.55 293.901 1685.93 344.292 1626.47 358.008 C 1626.39 354.175 1626.45 348.549 1625.87 344.912 C 1625.48 339.819 1625.83 329.664 1625.85 324.193 C 1625.04 308.112 1609.29 290.023 1597.51 279.884 C 1530.11 221.874 1422.17 204.417 1335.76 210.029 C 1134.75 223.086 926.87 346.461 856.377 541.639 C 845.799 570.925 840.824 600.718 834.716 631.086 C 825.627 674.168 794.325 715.55 761.512 744.03 C 714.354 784.963 655.215 810.08 595.034 825.317 C 564.369 832.88 533.311 838.748 502.002 842.895 C 434.378 852.382 284.116 863.434 238.53 917.578 C 237.958 935.803 232.753 1045.18 236.214 1055.75 C 211.997 1067.8 198.563 1072.16 172.843 1079.41 L 172.825 915.789 C 172.824 888.406 173.871 850.38 172.172 823.836 C 172.163 815.59 171.647 797.691 172.575 790.243 C 170.755 769.227 172.269 723.577 172.327 700.615 C 172.467 645.282 170.897 586.753 172.157 531.676 C 171.615 517.611 172.024 500.585 171.975 486.276 C 220.316 441.49 296.634 424.521 356.79 401.378 C 393.952 387.082 426.283 370.567 457.41 345.417 C 503.933 307.826 543.946 247.611 550.267 187.13 C 550.94 176.366 550.432 161.932 550.878 150.25 L 668.144 150.054 L 732.366 150.202 z"></path><path fill="url(#Gradient11)" d="M 550.267 187.13 L 551.733 188.01 C 559.847 232.832 580.774 270.06 605.313 307.775 C 613.618 320.54 625.827 337.934 632.783 351.007 C 641.949 366.29 650.31 382.042 657.832 398.198 C 668.284 420.857 671.54 434.51 677.616 457.984 L 679.867 458.746 C 679.848 462.252 679.9 465.975 679.766 469.457 C 676.334 526.502 658.038 564.725 614.932 603.213 C 488.692 715.928 280.801 672.567 172.575 790.243 C 170.755 769.227 172.269 723.577 172.327 700.615 C 172.467 645.282 170.897 586.753 172.157 531.676 C 171.615 517.611 172.024 500.585 171.975 486.276 C 220.316 441.49 296.634 424.521 356.79 401.378 C 393.952 387.082 426.283 370.567 457.41 345.417 C 503.933 307.826 543.946 247.611 550.267 187.13 z"></path><path fill="url(#Gradient10)" d="M 550.267 187.13 L 551.733 188.01 C 559.847 232.832 580.774 270.06 605.313 307.775 C 613.618 320.54 625.827 337.934 632.783 351.007 C 623.597 369.501 617.214 383.329 606.107 400.921 C 564.66 466.568 498.36 508.352 425.518 532.047 C 332.661 562.252 253.855 566.05 172.987 627.111 C 172.977 600.804 174.244 556.215 172.157 531.676 C 171.615 517.611 172.024 500.585 171.975 486.276 C 220.316 441.49 296.634 424.521 356.79 401.378 C 393.952 387.082 426.283 370.567 457.41 345.417 C 503.933 307.826 543.946 247.611 550.267 187.13 z"></path><path fill="#FFF" d="M 431.607 424.387 C 432.863 423.431 434.542 423.241 435.98 423.892 C 437.418 424.544 438.383 425.931 438.494 427.506 C 438.604 429.08 437.842 430.589 436.508 431.434 C 434.565 432.666 431.995 432.148 430.681 430.259 C 429.367 428.369 429.776 425.78 431.607 424.387 z"></path><path fill="url(#Gradient9)" d="M 632.783 351.007 C 641.949 366.29 650.31 382.042 657.832 398.198 C 616.956 484.241 553.732 532.145 465.791 564.746 C 368.55 600.795 254.192 600.592 172.942 670.98 C 173.001 657.108 173.484 640.785 172.987 627.111 C 253.855 566.05 332.661 562.252 425.518 532.047 C 498.36 508.352 564.66 466.568 606.107 400.921 C 617.214 383.329 623.597 369.501 632.783 351.007 z"></path><path fill="url(#Gradient8)" d="M 842.89 426.735 C 842.202 510.581 829.973 572.533 767.632 634.236 C 715.55 685.786 645.617 714.426 575.53 731.909 C 549.828 738.106 523.838 743.036 497.652 746.68 C 427.892 756.311 328.086 760.948 266.678 796.013 C 259.48 800.123 249.486 806.304 245.306 813.642 C 238.158 826.188 238.612 895.97 238.362 914.529 C 238.339 916.217 238.343 915.658 238.53 917.578 C 237.958 935.803 232.753 1045.18 236.214 1055.75 C 211.997 1067.8 198.563 1072.16 172.843 1079.41 L 172.825 915.789 C 172.824 888.406 173.871 850.38 172.172 823.836 C 172.163 815.59 171.647 797.691 172.575 790.243 C 280.801 672.567 488.692 715.928 614.932 603.213 C 658.038 564.725 676.334 526.502 679.766 469.457 C 730.582 472.093 792.776 455.099 839.014 434.799 C 841.163 433.856 842.199 428.946 842.89 426.735 z"></path><path fill="#FFF" d="M581.692 659.477C585.172 658.444 588.857 660.292 590.11 663.7 591.363 667.108 589.753 670.902 586.432 672.37 584.087 673.406 581.36 673.053 579.357 671.453 577.353 669.854 576.405 667.274 576.895 664.758 577.386 662.242 579.234 660.207 581.692 659.477zM720.517 556.512C721.969 555.72 723.746 555.827 725.093 556.787 726.44 557.747 727.121 559.392 726.846 561.024 726.571 562.655 725.388 563.986 723.801 564.451 721.683 565.072 719.437 563.996 718.593 561.957 717.749 559.917 718.579 557.569 720.517 556.512z"></path><path fill="#262c4d" d="M 550.878 150.25 L 668.144 150.054 L 732.366 150.202 L 731.965 150.958 L 943.414 151.007 C 891.401 208.423 859.815 267.749 849.048 345.451 C 845.271 372.706 844.303 399.296 842.89 426.735 C 842.199 428.946 841.163 433.856 839.014 434.799 C 792.776 455.099 730.582 472.093 679.766 469.457 C 679.9 465.975 679.848 462.252 679.867 458.746 L 677.616 457.984 C 671.54 434.51 668.284 420.857 657.832 398.198 C 650.31 382.042 641.949 366.29 632.783 351.007 C 625.827 337.934 613.618 320.54 605.313 307.775 C 580.774 270.06 559.847 232.832 551.733 188.01 L 550.267 187.13 C 550.94 176.366 550.432 161.932 550.878 150.25 z"></path><path fill="url(#Gradient7)" d="M 550.878 150.25 L 668.144 150.054 L 732.366 150.202 L 731.965 150.958 C 720.087 160.687 709.13 178.776 702.201 192.401 C 684.673 226.869 685.417 264.7 684.335 302.273 C 684.122 309.319 684.278 319.304 683.202 326.061 C 682.788 369.027 681.942 415.796 679.867 458.746 L 677.616 457.984 C 671.54 434.51 668.284 420.857 657.832 398.198 C 650.31 382.042 641.949 366.29 632.783 351.007 C 625.827 337.934 613.618 320.54 605.313 307.775 C 580.774 270.06 559.847 232.832 551.733 188.01 L 550.267 187.13 C 550.94 176.366 550.432 161.932 550.878 150.25 z"></path><path fill="url(#Gradient6)" d="M 668.144 150.054 L 732.366 150.202 L 731.965 150.958 C 720.087 160.687 709.13 178.776 702.201 192.401 C 684.673 226.869 685.417 264.7 684.335 302.273 C 684.122 309.319 684.278 319.304 683.202 326.061 C 663.003 277.195 636.129 221.195 654.242 168.057 C 657.592 158.228 656.897 151.715 668.144 150.054 z"></path><path fill="#FFF" d="M725.811 312.43C728.496 311.232 731.622 311.611 733.942 313.415 736.262 315.22 737.4 318.156 736.901 321.052 736.402 323.949 734.348 326.335 731.557 327.259 727.53 328.592 723.164 326.533 721.631 322.577 720.098 318.621 721.937 314.158 725.811 312.43zM867.828 203.388C870.009 202.34 872.592 202.599 874.521 204.059 876.45 205.52 877.401 207.936 876.983 210.319 876.565 212.702 874.85 214.652 872.539 215.369 869.311 216.372 865.856 214.713 864.619 211.567 863.382 208.421 864.782 204.854 867.828 203.388zM793.599 359.491C795.783 358.311 798.509 359.068 799.77 361.206 801.031 363.344 800.376 366.097 798.287 367.437 796.864 368.35 795.056 368.412 793.574 367.599 792.092 366.786 791.173 365.228 791.178 363.537 791.183 361.847 792.112 360.295 793.599 359.491z"></path><path fill="#262c4d" d="M 1857.36 150.175 L 1876.12 150.181 L 1875.9 221.451 C 1859.28 233.375 1842.85 247.614 1825.81 259.331 C 1775.55 293.901 1685.93 344.292 1626.47 358.008 C 1626.39 354.175 1626.45 348.549 1625.87 344.912 C 1625.48 339.819 1625.83 329.664 1625.85 324.193 C 1627.15 301.997 1626.92 275.211 1627.17 252.894 L 1628.68 150.637 C 1693.73 149.86 1759.03 151.363 1824.09 150.646 C 1835.2 150.523 1846.26 150.802 1857.36 150.175 z"></path><path fill="#FFF" d="M 1736.03 194.441 C 1738.26 193.268 1741.02 194.12 1742.2 196.346 C 1743.38 198.572 1742.54 201.334 1740.31 202.523 C 1738.08 203.717 1735.3 202.87 1734.12 200.633 C 1732.93 198.396 1733.79 195.62 1736.03 194.441 z"></path><path fill="url(#Gradient5)" d="M 893.273 623.836 C 899.094 611.038 910.304 592.644 917.963 580.75 C 958.45 517.416 1013.55 464.73 1078.64 427.128 C 1194 359.136 1339.51 331.853 1470.16 365.679 C 1507.65 375.982 1531.74 386.246 1564.7 407.52 C 1547.06 428.287 1536.28 439.78 1516.67 458.454 C 1476.84 496.37 1393.48 549.59 1398.03 610.267 C 1397.9 625.313 1397.22 640.125 1396.97 655.106 C 1397 663.268 1396.82 709.557 1394.36 713.993 C 1391.56 690.538 1376.56 669.871 1358.27 655.868 C 1314.19 622.102 1250.56 616.384 1197.06 623.589 C 1119.14 634.082 1051.7 672.434 990.36 719.808 C 966.149 738.508 942.789 758.225 918.671 776.779 C 894.481 795.498 869.326 812.935 843.31 829.02 C 811.713 848.913 769.664 869.637 732.652 874.328 C 737.361 869.015 757.737 855.416 764.485 849.601 C 780.844 835.504 792.581 822.031 806.165 805.556 C 833.868 766.612 846.754 736.25 863.288 691.614 C 870.108 673.203 882.915 640.106 893.273 623.836 z"></path><path fill="url(#Gradient4)" d="M 893.273 623.836 C 899.094 611.038 910.304 592.644 917.963 580.75 C 958.45 517.416 1013.55 464.73 1078.64 427.128 C 1194 359.136 1339.51 331.853 1470.16 365.679 C 1464.65 373.195 1448.82 388.374 1441.88 395.065 C 1398.6 436.798 1400.52 462.592 1399.62 518.609 C 1360.23 475.57 1322.89 463.71 1264.85 460.326 C 1138.04 452.933 1035.02 526.173 937.588 596.979 C 929.683 602.674 901.375 622.85 893.273 623.836 z"></path><path fill="#FFF" d="M1235.92 373.459C1239.05 372.426 1242.49 373.152 1244.94 375.363 1247.38 377.573 1248.45 380.926 1247.74 384.143 1247.02 387.361 1244.63 389.946 1241.48 390.914 1236.68 392.389 1231.59 389.724 1230.07 384.939 1228.54 380.155 1231.15 375.035 1235.92 373.459zM1308.65 406.421C1310.11 405.585 1311.91 405.603 1313.35 406.469 1314.79 407.336 1315.65 408.914 1315.59 410.594 1315.54 412.274 1314.58 413.793 1313.08 414.564 1310.84 415.719 1308.09 414.874 1306.89 412.66 1305.68 410.446 1306.47 407.675 1308.65 406.421z"></path><path fill="url(#Gradient3)" d="M 806.165 805.556 C 838.137 805.029 982.287 684.283 1017.37 659.853 C 1044.04 640.998 1072.52 624.833 1102.38 611.596 C 1180.09 577.735 1284.27 564.585 1358.65 613.525 C 1374.61 624.028 1385.21 637.722 1394.62 654.186 C 1395.41 654.493 1396.19 654.8 1396.97 655.106 C 1397 663.268 1396.82 709.557 1394.36 713.993 C 1391.56 690.538 1376.56 669.871 1358.27 655.868 C 1314.19 622.102 1250.56 616.384 1197.06 623.589 C 1119.14 634.082 1051.7 672.434 990.36 719.808 C 966.149 738.508 942.789 758.225 918.671 776.779 C 894.481 795.498 869.326 812.935 843.31 829.02 C 811.713 848.913 769.664 869.637 732.652 874.328 C 737.361 869.015 757.737 855.416 764.485 849.601 C 780.844 835.504 792.581 822.031 806.165 805.556 z"></path><path fill="url(#Gradient2)" d="M 1626.47 358.008 C 1685.93 344.292 1775.55 293.901 1825.81 259.331 C 1842.85 247.614 1859.28 233.375 1875.9 221.451 C 1875.91 280.244 1874.77 343.011 1875.82 401.549 C 1874.84 418.242 1875.67 435.322 1875.13 451.983 C 1874.89 452.115 1874.65 452.246 1874.41 452.378 C 1796.3 509.489 1709.7 559.154 1613.57 577.371 C 1606.98 578.62 1596.56 580.931 1590.24 578.808 C 1623.9 538.873 1622.52 517.617 1623.44 468.927 L 1624.76 395.199 C 1624.95 379.756 1624.59 359.999 1625.87 344.912 C 1626.45 348.549 1626.39 354.175 1626.47 358.008 z"></path><path fill="#FFF" d="M1805.22 304.442C1808.31 303.332 1811.76 304.008 1814.2 306.201 1816.64 308.394 1817.68 311.751 1816.91 314.941 1816.13 318.13 1813.67 320.638 1810.5 321.47 1805.88 322.679 1801.13 320.039 1799.71 315.48 1798.3 310.92 1800.73 306.056 1805.22 304.442zM1669.41 425.513C1672.48 424.672 1675.68 426.341 1676.75 429.339 1677.81 432.338 1676.39 435.651 1673.48 436.938 1671.39 437.86 1668.96 437.538 1667.19 436.103 1665.42 434.668 1664.6 432.362 1665.07 430.13 1665.53 427.898 1667.21 426.115 1669.41 425.513z"></path><path fill="url(#Gradient1)" d="M 1875.13 451.983 C 1875.07 488.095 1875.5 525.128 1875.07 561.175 C 1786.35 628.505 1639.29 697.515 1524.63 682.539 C 1512.16 680.909 1491.78 675.909 1480.42 670.369 C 1520.28 640.75 1557.17 616.171 1590.24 578.808 C 1596.56 580.931 1606.98 578.62 1613.57 577.371 C 1709.7 559.154 1796.3 509.489 1874.41 452.378 C 1874.65 452.246 1874.89 452.115 1875.13 451.983 z"></path><path fill="#6fe8bd" d="M 1875.13 451.983 C 1875.67 435.322 1874.84 418.242 1875.82 401.549 C 1877.03 425.988 1876.07 456.733 1876.07 481.745 L 1875.3 655.804 C 1774.36 718.194 1622.76 780.433 1501.52 754.759 C 1468.14 747.691 1451.88 737.004 1425.67 717.33 C 1438.09 704.169 1464.76 679.744 1480.42 670.369 C 1491.78 675.909 1512.16 680.909 1524.63 682.539 C 1639.29 697.515 1786.35 628.505 1875.07 561.175 C 1875.5 525.128 1875.07 488.095 1875.13 451.983 z"></path><path fill="#46a08f" d="M 172.172 823.836 C 173.871 850.38 172.824 888.406 172.825 915.789 L 172.843 1079.41 C 198.563 1072.16 211.997 1067.8 236.214 1055.75 C 249.327 1086.38 281.272 1096.27 306.321 1118.12 C 314.161 1125.25 317.268 1128.72 321.95 1138.76 C 297.631 1191.2 224.811 1212.52 172.56 1225.38 C 172.687 1219.76 173.648 1190.82 172.156 1187.32 C 171.189 1170.87 171.954 1146.05 171.964 1129.09 L 171.942 1019.54 L 171.848 893.831 C 171.834 872.063 171.139 845.187 172.172 823.836 z"></path><path fill="#6fe8bd" d="M 172.172 823.836 C 173.871 850.38 172.824 888.406 172.825 915.789 L 172.843 1079.41 C 172.929 1114.06 173.558 1151.2 172.699 1185.7 C 222.648 1171.93 269.299 1157.41 306.321 1118.12 C 314.161 1125.25 317.268 1128.72 321.95 1138.76 C 297.631 1191.2 224.811 1212.52 172.56 1225.38 C 172.687 1219.76 173.648 1190.82 172.156 1187.32 C 171.189 1170.87 171.954 1146.05 171.964 1129.09 L 171.942 1019.54 L 171.848 893.831 C 171.834 872.063 171.139 845.187 172.172 823.836 z"></path><path fill="#4cd4a9" d="M 1564.7 407.52 C 1591.33 426.29 1612.58 450.373 1620.41 482.507 L 1619.92 484.439 C 1620.8 485.562 1613.38 465.353 1612.99 464.193 C 1604.4 463.726 1580.54 475.018 1570.41 476.27 C 1570.07 476.312 1558.45 478.962 1557.94 479.177 C 1531.59 490.373 1508.15 493.678 1480.23 496.448 C 1475.29 496.94 1465.05 505.48 1461.15 508.873 C 1438.45 530.43 1403.05 564.137 1400.5 596.796 C 1400.02 602.875 1401.07 603.999 1398.03 610.267 C 1393.48 549.59 1476.84 496.37 1516.67 458.454 C 1536.28 439.78 1547.06 428.287 1564.7 407.52 z"></path><path fill="#6fe8bd" d="M 308.426 985.456 C 315.758 982.512 324.364 979.838 331.933 977.296 C 331.4 989.592 331.032 1001.89 330.83 1014.2 C 330.292 1042.23 329.608 1070.26 328.779 1098.28 L 328.011 1098.97 C 326.02 1098.03 323.043 1090.69 321.224 1088.09 C 302.128 1060.74 268.582 1047.85 251.711 1019.08 C 266.552 1004.83 288.909 991.826 308.426 985.456 z"></path><path fill="#46a08f" d="M 308.426 985.456 C 315.758 982.512 324.364 979.838 331.933 977.296 C 331.4 989.592 331.032 1001.89 330.83 1014.2 C 323.099 1005.84 320.55 997.406 308.426 985.456 z"></path></g></g><g
       id="aurora-sea"
       transform="translate(-38.5,76.2) rotate(-4) scale(0.044,-0.044)"><g clip-path="url(#aurBandClip)"><path fill="#97f5d2" d="M 732.366 150.202 C 809.214 148.725 890.158 149.983 967.276 150.087 L 1364.49 150.139 L 1689.69 149.886 C 1743.27 149.864 1804.32 148.416 1857.36 150.175 L 1876.12 150.181 L 1875.9 221.451 C 1875.91 280.244 1874.77 343.011 1875.82 401.549 C 1877.03 425.988 1876.07 456.733 1876.07 481.745 L 1875.3 655.804 C 1875.06 692.715 1875.14 729.627 1875.55 766.536 C 1778.51 834.802 1611.88 904.84 1489.19 885.657 C 1461.64 881.35 1423.72 866.6 1407.61 842.416 C 1384.92 808.346 1398.05 754.638 1394.36 713.993 C 1391.56 690.538 1376.56 669.871 1358.27 655.868 C 1314.19 622.102 1250.56 616.384 1197.06 623.589 C 1119.14 634.082 1051.7 672.434 990.36 719.808 C 966.149 738.508 942.789 758.225 918.671 776.779 C 894.481 795.498 869.326 812.935 843.31 829.02 C 811.713 848.913 769.664 869.637 732.652 874.328 C 717.919 880.568 704.392 890.354 689.863 897.009 C 594.57 940.658 489.748 945.313 388.261 964.097 C 370.297 967.422 349.404 971.519 331.933 977.296 C 331.4 989.592 331.032 1001.89 330.83 1014.2 C 330.292 1042.23 329.608 1070.26 328.779 1098.28 C 328.007 1113.24 327.508 1128.2 327.283 1143.17 C 326.636 1173.21 326.919 1190.89 302.384 1212.49 C 266.366 1244.2 217.691 1257.17 172.05 1266.56 C 172.003 1240.65 171.515 1213.1 172.156 1187.32 C 171.189 1170.87 171.954 1146.05 171.964 1129.09 L 171.942 1019.54 L 171.848 893.831 C 171.834 872.063 171.139 845.187 172.172 823.836 C 172.163 815.59 171.647 797.691 172.575 790.243 C 170.755 769.227 172.269 723.577 172.327 700.615 C 172.467 645.282 170.897 586.753 172.157 531.676 C 171.615 517.611 172.024 500.585 171.975 486.276 C 220.316 441.49 296.634 424.521 356.79 401.378 C 393.952 387.082 426.283 370.567 457.41 345.417 C 503.933 307.826 543.946 247.611 550.267 187.13 C 550.94 176.366 550.432 161.932 550.878 150.25 L 668.144 150.054 L 732.366 150.202 z"></path><path fill="url(#Gradient12)" d="M 732.366 150.202 C 809.214 148.725 890.158 149.983 967.276 150.087 L 1364.49 150.139 L 1689.69 149.886 C 1743.27 149.864 1804.32 148.416 1857.36 150.175 L 1876.12 150.181 L 1875.9 221.451 C 1859.28 233.375 1842.85 247.614 1825.81 259.331 C 1775.55 293.901 1685.93 344.292 1626.47 358.008 C 1626.39 354.175 1626.45 348.549 1625.87 344.912 C 1625.48 339.819 1625.83 329.664 1625.85 324.193 C 1625.04 308.112 1609.29 290.023 1597.51 279.884 C 1530.11 221.874 1422.17 204.417 1335.76 210.029 C 1134.75 223.086 926.87 346.461 856.377 541.639 C 845.799 570.925 840.824 600.718 834.716 631.086 C 825.627 674.168 794.325 715.55 761.512 744.03 C 714.354 784.963 655.215 810.08 595.034 825.317 C 564.369 832.88 533.311 838.748 502.002 842.895 C 434.378 852.382 284.116 863.434 238.53 917.578 C 237.958 935.803 232.753 1045.18 236.214 1055.75 C 211.997 1067.8 198.563 1072.16 172.843 1079.41 L 172.825 915.789 C 172.824 888.406 173.871 850.38 172.172 823.836 C 172.163 815.59 171.647 797.691 172.575 790.243 C 170.755 769.227 172.269 723.577 172.327 700.615 C 172.467 645.282 170.897 586.753 172.157 531.676 C 171.615 517.611 172.024 500.585 171.975 486.276 C 220.316 441.49 296.634 424.521 356.79 401.378 C 393.952 387.082 426.283 370.567 457.41 345.417 C 503.933 307.826 543.946 247.611 550.267 187.13 C 550.94 176.366 550.432 161.932 550.878 150.25 L 668.144 150.054 L 732.366 150.202 z"></path><path fill="url(#Gradient11)" d="M 550.267 187.13 L 551.733 188.01 C 559.847 232.832 580.774 270.06 605.313 307.775 C 613.618 320.54 625.827 337.934 632.783 351.007 C 641.949 366.29 650.31 382.042 657.832 398.198 C 668.284 420.857 671.54 434.51 677.616 457.984 L 679.867 458.746 C 679.848 462.252 679.9 465.975 679.766 469.457 C 676.334 526.502 658.038 564.725 614.932 603.213 C 488.692 715.928 280.801 672.567 172.575 790.243 C 170.755 769.227 172.269 723.577 172.327 700.615 C 172.467 645.282 170.897 586.753 172.157 531.676 C 171.615 517.611 172.024 500.585 171.975 486.276 C 220.316 441.49 296.634 424.521 356.79 401.378 C 393.952 387.082 426.283 370.567 457.41 345.417 C 503.933 307.826 543.946 247.611 550.267 187.13 z"></path><path fill="url(#Gradient10)" d="M 550.267 187.13 L 551.733 188.01 C 559.847 232.832 580.774 270.06 605.313 307.775 C 613.618 320.54 625.827 337.934 632.783 351.007 C 623.597 369.501 617.214 383.329 606.107 400.921 C 564.66 466.568 498.36 508.352 425.518 532.047 C 332.661 562.252 253.855 566.05 172.987 627.111 C 172.977 600.804 174.244 556.215 172.157 531.676 C 171.615 517.611 172.024 500.585 171.975 486.276 C 220.316 441.49 296.634 424.521 356.79 401.378 C 393.952 387.082 426.283 370.567 457.41 345.417 C 503.933 307.826 543.946 247.611 550.267 187.13 z"></path><path fill="#FFF" d="M 431.607 424.387 C 432.863 423.431 434.542 423.241 435.98 423.892 C 437.418 424.544 438.383 425.931 438.494 427.506 C 438.604 429.08 437.842 430.589 436.508 431.434 C 434.565 432.666 431.995 432.148 430.681 430.259 C 429.367 428.369 429.776 425.78 431.607 424.387 z"></path><path fill="url(#Gradient9)" d="M 632.783 351.007 C 641.949 366.29 650.31 382.042 657.832 398.198 C 616.956 484.241 553.732 532.145 465.791 564.746 C 368.55 600.795 254.192 600.592 172.942 670.98 C 173.001 657.108 173.484 640.785 172.987 627.111 C 253.855 566.05 332.661 562.252 425.518 532.047 C 498.36 508.352 564.66 466.568 606.107 400.921 C 617.214 383.329 623.597 369.501 632.783 351.007 z"></path><path fill="url(#Gradient8)" d="M 842.89 426.735 C 842.202 510.581 829.973 572.533 767.632 634.236 C 715.55 685.786 645.617 714.426 575.53 731.909 C 549.828 738.106 523.838 743.036 497.652 746.68 C 427.892 756.311 328.086 760.948 266.678 796.013 C 259.48 800.123 249.486 806.304 245.306 813.642 C 238.158 826.188 238.612 895.97 238.362 914.529 C 238.339 916.217 238.343 915.658 238.53 917.578 C 237.958 935.803 232.753 1045.18 236.214 1055.75 C 211.997 1067.8 198.563 1072.16 172.843 1079.41 L 172.825 915.789 C 172.824 888.406 173.871 850.38 172.172 823.836 C 172.163 815.59 171.647 797.691 172.575 790.243 C 280.801 672.567 488.692 715.928 614.932 603.213 C 658.038 564.725 676.334 526.502 679.766 469.457 C 730.582 472.093 792.776 455.099 839.014 434.799 C 841.163 433.856 842.199 428.946 842.89 426.735 z"></path><path fill="#FFF" d="M581.692 659.477C585.172 658.444 588.857 660.292 590.11 663.7 591.363 667.108 589.753 670.902 586.432 672.37 584.087 673.406 581.36 673.053 579.357 671.453 577.353 669.854 576.405 667.274 576.895 664.758 577.386 662.242 579.234 660.207 581.692 659.477zM720.517 556.512C721.969 555.72 723.746 555.827 725.093 556.787 726.44 557.747 727.121 559.392 726.846 561.024 726.571 562.655 725.388 563.986 723.801 564.451 721.683 565.072 719.437 563.996 718.593 561.957 717.749 559.917 718.579 557.569 720.517 556.512z"></path><path fill="#262c4d" d="M 550.878 150.25 L 668.144 150.054 L 732.366 150.202 L 731.965 150.958 L 943.414 151.007 C 891.401 208.423 859.815 267.749 849.048 345.451 C 845.271 372.706 844.303 399.296 842.89 426.735 C 842.199 428.946 841.163 433.856 839.014 434.799 C 792.776 455.099 730.582 472.093 679.766 469.457 C 679.9 465.975 679.848 462.252 679.867 458.746 L 677.616 457.984 C 671.54 434.51 668.284 420.857 657.832 398.198 C 650.31 382.042 641.949 366.29 632.783 351.007 C 625.827 337.934 613.618 320.54 605.313 307.775 C 580.774 270.06 559.847 232.832 551.733 188.01 L 550.267 187.13 C 550.94 176.366 550.432 161.932 550.878 150.25 z"></path><path fill="url(#Gradient7)" d="M 550.878 150.25 L 668.144 150.054 L 732.366 150.202 L 731.965 150.958 C 720.087 160.687 709.13 178.776 702.201 192.401 C 684.673 226.869 685.417 264.7 684.335 302.273 C 684.122 309.319 684.278 319.304 683.202 326.061 C 682.788 369.027 681.942 415.796 679.867 458.746 L 677.616 457.984 C 671.54 434.51 668.284 420.857 657.832 398.198 C 650.31 382.042 641.949 366.29 632.783 351.007 C 625.827 337.934 613.618 320.54 605.313 307.775 C 580.774 270.06 559.847 232.832 551.733 188.01 L 550.267 187.13 C 550.94 176.366 550.432 161.932 550.878 150.25 z"></path><path fill="url(#Gradient6)" d="M 668.144 150.054 L 732.366 150.202 L 731.965 150.958 C 720.087 160.687 709.13 178.776 702.201 192.401 C 684.673 226.869 685.417 264.7 684.335 302.273 C 684.122 309.319 684.278 319.304 683.202 326.061 C 663.003 277.195 636.129 221.195 654.242 168.057 C 657.592 158.228 656.897 151.715 668.144 150.054 z"></path><path fill="#FFF" d="M725.811 312.43C728.496 311.232 731.622 311.611 733.942 313.415 736.262 315.22 737.4 318.156 736.901 321.052 736.402 323.949 734.348 326.335 731.557 327.259 727.53 328.592 723.164 326.533 721.631 322.577 720.098 318.621 721.937 314.158 725.811 312.43zM867.828 203.388C870.009 202.34 872.592 202.599 874.521 204.059 876.45 205.52 877.401 207.936 876.983 210.319 876.565 212.702 874.85 214.652 872.539 215.369 869.311 216.372 865.856 214.713 864.619 211.567 863.382 208.421 864.782 204.854 867.828 203.388zM793.599 359.491C795.783 358.311 798.509 359.068 799.77 361.206 801.031 363.344 800.376 366.097 798.287 367.437 796.864 368.35 795.056 368.412 793.574 367.599 792.092 366.786 791.173 365.228 791.178 363.537 791.183 361.847 792.112 360.295 793.599 359.491z"></path><path fill="#262c4d" d="M 1857.36 150.175 L 1876.12 150.181 L 1875.9 221.451 C 1859.28 233.375 1842.85 247.614 1825.81 259.331 C 1775.55 293.901 1685.93 344.292 1626.47 358.008 C 1626.39 354.175 1626.45 348.549 1625.87 344.912 C 1625.48 339.819 1625.83 329.664 1625.85 324.193 C 1627.15 301.997 1626.92 275.211 1627.17 252.894 L 1628.68 150.637 C 1693.73 149.86 1759.03 151.363 1824.09 150.646 C 1835.2 150.523 1846.26 150.802 1857.36 150.175 z"></path><path fill="#FFF" d="M 1736.03 194.441 C 1738.26 193.268 1741.02 194.12 1742.2 196.346 C 1743.38 198.572 1742.54 201.334 1740.31 202.523 C 1738.08 203.717 1735.3 202.87 1734.12 200.633 C 1732.93 198.396 1733.79 195.62 1736.03 194.441 z"></path><path fill="url(#Gradient5)" d="M 893.273 623.836 C 899.094 611.038 910.304 592.644 917.963 580.75 C 958.45 517.416 1013.55 464.73 1078.64 427.128 C 1194 359.136 1339.51 331.853 1470.16 365.679 C 1507.65 375.982 1531.74 386.246 1564.7 407.52 C 1547.06 428.287 1536.28 439.78 1516.67 458.454 C 1476.84 496.37 1393.48 549.59 1398.03 610.267 C 1397.9 625.313 1397.22 640.125 1396.97 655.106 C 1397 663.268 1396.82 709.557 1394.36 713.993 C 1391.56 690.538 1376.56 669.871 1358.27 655.868 C 1314.19 622.102 1250.56 616.384 1197.06 623.589 C 1119.14 634.082 1051.7 672.434 990.36 719.808 C 966.149 738.508 942.789 758.225 918.671 776.779 C 894.481 795.498 869.326 812.935 843.31 829.02 C 811.713 848.913 769.664 869.637 732.652 874.328 C 737.361 869.015 757.737 855.416 764.485 849.601 C 780.844 835.504 792.581 822.031 806.165 805.556 C 833.868 766.612 846.754 736.25 863.288 691.614 C 870.108 673.203 882.915 640.106 893.273 623.836 z"></path><path fill="url(#Gradient4)" d="M 893.273 623.836 C 899.094 611.038 910.304 592.644 917.963 580.75 C 958.45 517.416 1013.55 464.73 1078.64 427.128 C 1194 359.136 1339.51 331.853 1470.16 365.679 C 1464.65 373.195 1448.82 388.374 1441.88 395.065 C 1398.6 436.798 1400.52 462.592 1399.62 518.609 C 1360.23 475.57 1322.89 463.71 1264.85 460.326 C 1138.04 452.933 1035.02 526.173 937.588 596.979 C 929.683 602.674 901.375 622.85 893.273 623.836 z"></path><path fill="#FFF" d="M1235.92 373.459C1239.05 372.426 1242.49 373.152 1244.94 375.363 1247.38 377.573 1248.45 380.926 1247.74 384.143 1247.02 387.361 1244.63 389.946 1241.48 390.914 1236.68 392.389 1231.59 389.724 1230.07 384.939 1228.54 380.155 1231.15 375.035 1235.92 373.459zM1308.65 406.421C1310.11 405.585 1311.91 405.603 1313.35 406.469 1314.79 407.336 1315.65 408.914 1315.59 410.594 1315.54 412.274 1314.58 413.793 1313.08 414.564 1310.84 415.719 1308.09 414.874 1306.89 412.66 1305.68 410.446 1306.47 407.675 1308.65 406.421z"></path><path fill="url(#Gradient3)" d="M 806.165 805.556 C 838.137 805.029 982.287 684.283 1017.37 659.853 C 1044.04 640.998 1072.52 624.833 1102.38 611.596 C 1180.09 577.735 1284.27 564.585 1358.65 613.525 C 1374.61 624.028 1385.21 637.722 1394.62 654.186 C 1395.41 654.493 1396.19 654.8 1396.97 655.106 C 1397 663.268 1396.82 709.557 1394.36 713.993 C 1391.56 690.538 1376.56 669.871 1358.27 655.868 C 1314.19 622.102 1250.56 616.384 1197.06 623.589 C 1119.14 634.082 1051.7 672.434 990.36 719.808 C 966.149 738.508 942.789 758.225 918.671 776.779 C 894.481 795.498 869.326 812.935 843.31 829.02 C 811.713 848.913 769.664 869.637 732.652 874.328 C 737.361 869.015 757.737 855.416 764.485 849.601 C 780.844 835.504 792.581 822.031 806.165 805.556 z"></path><path fill="url(#Gradient2)" d="M 1626.47 358.008 C 1685.93 344.292 1775.55 293.901 1825.81 259.331 C 1842.85 247.614 1859.28 233.375 1875.9 221.451 C 1875.91 280.244 1874.77 343.011 1875.82 401.549 C 1874.84 418.242 1875.67 435.322 1875.13 451.983 C 1874.89 452.115 1874.65 452.246 1874.41 452.378 C 1796.3 509.489 1709.7 559.154 1613.57 577.371 C 1606.98 578.62 1596.56 580.931 1590.24 578.808 C 1623.9 538.873 1622.52 517.617 1623.44 468.927 L 1624.76 395.199 C 1624.95 379.756 1624.59 359.999 1625.87 344.912 C 1626.45 348.549 1626.39 354.175 1626.47 358.008 z"></path><path fill="#FFF" d="M1805.22 304.442C1808.31 303.332 1811.76 304.008 1814.2 306.201 1816.64 308.394 1817.68 311.751 1816.91 314.941 1816.13 318.13 1813.67 320.638 1810.5 321.47 1805.88 322.679 1801.13 320.039 1799.71 315.48 1798.3 310.92 1800.73 306.056 1805.22 304.442zM1669.41 425.513C1672.48 424.672 1675.68 426.341 1676.75 429.339 1677.81 432.338 1676.39 435.651 1673.48 436.938 1671.39 437.86 1668.96 437.538 1667.19 436.103 1665.42 434.668 1664.6 432.362 1665.07 430.13 1665.53 427.898 1667.21 426.115 1669.41 425.513z"></path><path fill="url(#Gradient1)" d="M 1875.13 451.983 C 1875.07 488.095 1875.5 525.128 1875.07 561.175 C 1786.35 628.505 1639.29 697.515 1524.63 682.539 C 1512.16 680.909 1491.78 675.909 1480.42 670.369 C 1520.28 640.75 1557.17 616.171 1590.24 578.808 C 1596.56 580.931 1606.98 578.62 1613.57 577.371 C 1709.7 559.154 1796.3 509.489 1874.41 452.378 C 1874.65 452.246 1874.89 452.115 1875.13 451.983 z"></path><path fill="#6fe8bd" d="M 1875.13 451.983 C 1875.67 435.322 1874.84 418.242 1875.82 401.549 C 1877.03 425.988 1876.07 456.733 1876.07 481.745 L 1875.3 655.804 C 1774.36 718.194 1622.76 780.433 1501.52 754.759 C 1468.14 747.691 1451.88 737.004 1425.67 717.33 C 1438.09 704.169 1464.76 679.744 1480.42 670.369 C 1491.78 675.909 1512.16 680.909 1524.63 682.539 C 1639.29 697.515 1786.35 628.505 1875.07 561.175 C 1875.5 525.128 1875.07 488.095 1875.13 451.983 z"></path><path fill="#46a08f" d="M 172.172 823.836 C 173.871 850.38 172.824 888.406 172.825 915.789 L 172.843 1079.41 C 198.563 1072.16 211.997 1067.8 236.214 1055.75 C 249.327 1086.38 281.272 1096.27 306.321 1118.12 C 314.161 1125.25 317.268 1128.72 321.95 1138.76 C 297.631 1191.2 224.811 1212.52 172.56 1225.38 C 172.687 1219.76 173.648 1190.82 172.156 1187.32 C 171.189 1170.87 171.954 1146.05 171.964 1129.09 L 171.942 1019.54 L 171.848 893.831 C 171.834 872.063 171.139 845.187 172.172 823.836 z"></path><path fill="#6fe8bd" d="M 172.172 823.836 C 173.871 850.38 172.824 888.406 172.825 915.789 L 172.843 1079.41 C 172.929 1114.06 173.558 1151.2 172.699 1185.7 C 222.648 1171.93 269.299 1157.41 306.321 1118.12 C 314.161 1125.25 317.268 1128.72 321.95 1138.76 C 297.631 1191.2 224.811 1212.52 172.56 1225.38 C 172.687 1219.76 173.648 1190.82 172.156 1187.32 C 171.189 1170.87 171.954 1146.05 171.964 1129.09 L 171.942 1019.54 L 171.848 893.831 C 171.834 872.063 171.139 845.187 172.172 823.836 z"></path><path fill="#4cd4a9" d="M 1564.7 407.52 C 1591.33 426.29 1612.58 450.373 1620.41 482.507 L 1619.92 484.439 C 1620.8 485.562 1613.38 465.353 1612.99 464.193 C 1604.4 463.726 1580.54 475.018 1570.41 476.27 C 1570.07 476.312 1558.45 478.962 1557.94 479.177 C 1531.59 490.373 1508.15 493.678 1480.23 496.448 C 1475.29 496.94 1465.05 505.48 1461.15 508.873 C 1438.45 530.43 1403.05 564.137 1400.5 596.796 C 1400.02 602.875 1401.07 603.999 1398.03 610.267 C 1393.48 549.59 1476.84 496.37 1516.67 458.454 C 1536.28 439.78 1547.06 428.287 1564.7 407.52 z"></path><path fill="#6fe8bd" d="M 308.426 985.456 C 315.758 982.512 324.364 979.838 331.933 977.296 C 331.4 989.592 331.032 1001.89 330.83 1014.2 C 330.292 1042.23 329.608 1070.26 328.779 1098.28 L 328.011 1098.97 C 326.02 1098.03 323.043 1090.69 321.224 1088.09 C 302.128 1060.74 268.582 1047.85 251.711 1019.08 C 266.552 1004.83 288.909 991.826 308.426 985.456 z"></path><path fill="#46a08f" d="M 308.426 985.456 C 315.758 982.512 324.364 979.838 331.933 977.296 C 331.4 989.592 331.032 1001.89 330.83 1014.2 C 323.099 1005.84 320.55 997.406 308.426 985.456 z"></path></g></g></g><path
     style="baseline-shift:baseline;display:inline;overflow:visible;fill:#000000;stroke:#ffffff;stroke-width:1.44887;stroke-dasharray:none;stroke-opacity:1;enable-background:accumulate;stop-color:#000000"
     d="m 24.86485,26.724736 c -1.838331,0 -3.760497,0.207288 -5.768234,0.61877 -1.998738,0.409633 -3.979389,0.970285 -5.939726,1.682497 -1.956176,0.710701 -3.8134318,1.529432 -5.5712462,2.454223 -1.7579877,0.924888 -3.3266712,1.910551 -4.7068223,2.961752 -1.3857858,1.055497 -2.50231416,2.137137 -3.33718567,3.265344 -0.84952403,1.148 -1.33719183,2.343074 -1.33719193,3.552712 0,1.575947 0.88731334,2.966563 2.34066506,3.860939 1.46687604,0.90269 3.36385744,1.300112 5.65699324,1.300112 1.8528455,0 3.7819802,-0.211399 5.7844558,-0.630358 1.993635,-0.417111 3.974154,-0.992982 5.942043,-1.72653 1.962568,-0.731566 3.820317,-1.566197 5.571248,-2.505208 1.751688,-0.939412 3.317611,-1.944879 4.697551,-3.017371 1.385574,-1.07687 2.496119,-2.175658 3.323281,-3.318646 0.839639,-1.160231 1.320968,-2.356824 1.320968,-3.5643 0,-1.575951 -0.908059,-2.952647 -2.377744,-3.76824 -1.460579,-0.810538 -3.330295,-1.165696 -5.599055,-1.165696 z"
     id="path2"
     sodipodi:nodetypes="sssssssssssssssss" /><rect
     style="display:none;fill:#152839;stroke:none;stroke-width:1.83969"
     id="rect1"
     width="48"
     height="48"
     x="-10"
     y="0" /><path
     id="path1"
     style="fill:#000000;fill-opacity:1;stroke:#56c126;stroke-width:3.3711;stroke-dasharray:none;stroke-opacity:1"
     sodipodi:type="inkscape:offset"
     inkscape:radius="0.50397885"
     inkscape:original="M 15.417969 5.6015625 C 14.476308 5.6015625 13.616792 5.8318109 12.837891 6.2910156 C 12.058986 6.7502202 11.43572 7.3695331 10.970703 8.1484375 C 10.505686 8.9273421 10.273438 9.7868553 10.273438 10.728516 C 10.273437 11.228409 10.34687 11.724671 10.492188 12.21875 C 10.637505 12.712833 10.855847 13.211042 11.146484 13.710938 C 9.4375447 13.397048 8.0222445 12.871026 6.9003906 12.132812 C 5.7785361 11.394598 5.1294597 10.600609 4.9550781 9.7519531 C 4.8388234 9.1358042 4.6323859 8.6852151 4.3359375 8.4003906 C 4.0394878 8.1155673 3.6702813 7.9726562 3.2285156 7.9726562 C 2.6123675 7.9726563 2.1339656 8.2326665 1.7910156 8.75 C 1.448065 9.2673322 1.2753906 9.9144528 1.2753906 10.693359 C 1.2753906 11.669894 1.507639 12.477789 1.9726562 13.117188 C 2.4376743 13.756586 3.0133181 14.292516 3.6992188 14.722656 C 4.3851193 15.152798 5.0679596 15.537907 5.7480469 15.880859 C 6.4281363 16.223809 7.001779 16.581113 7.4667969 16.953125 C 7.9318134 17.325139 8.1640625 17.779683 8.1640625 18.314453 C 8.1640625 18.849224 8.0906295 19.399058 7.9453125 19.962891 C 7.7999919 20.526723 7.7285156 21.140087 7.7285156 21.802734 C 7.7285156 23.407044 7.9786233 24.713196 8.4785156 25.724609 C 8.9784096 26.736021 9.7565384 27.585584 10.814453 28.271484 L 13.046875 29.736328 C 12.628357 30.619865 12.290915 31.465471 12.035156 32.273438 C 11.779396 33.081407 11.652344 33.776149 11.652344 34.357422 C 11.652344 34.845691 11.902451 35.284371 12.402344 35.673828 C 12.902238 36.063279 13.523552 36.257812 14.267578 36.257812 C 14.802352 36.257812 15.209272 36.14862 15.488281 35.927734 C 15.767292 35.706851 15.90625 35.44484 15.90625 35.142578 C 15.90625 34.875193 15.816916 34.61518 15.636719 34.365234 C 15.456524 34.115286 15.208417 33.875091 14.894531 33.642578 L 16.011719 30.277344 C 16.116342 29.951833 16.092535 29.57272 15.941406 29.142578 C 15.790274 28.712438 15.619555 28.285657 15.427734 27.861328 C 15.235915 27.436999 15.138672 27.085652 15.138672 26.806641 C 15.138672 26.283498 15.482068 26.021484 16.167969 26.021484 C 16.72599 26.021484 17.170625 26.184252 17.501953 26.509766 C 17.833279 26.835279 18 27.305727 18 27.921875 C 18 28.235761 17.906712 28.626783 17.720703 29.091797 C 17.534695 29.556817 17.348117 30.007406 17.162109 30.443359 C 16.9761 30.879314 16.882812 31.22471 16.882812 31.480469 C 16.882812 31.875736 17.103158 32.181413 17.544922 32.396484 C 17.986693 32.611562 18.562331 32.71875 19.271484 32.71875 C 19.910881 32.71875 20.425002 32.6056 20.814453 32.378906 C 21.203904 32.15221 21.400391 31.852482 21.400391 31.480469 C 21.400391 31.131703 21.277337 30.826022 21.033203 30.564453 C 20.789068 30.302879 20.475435 30.132161 20.091797 30.050781 C 20.242928 29.678771 20.39179 29.242083 20.537109 28.742188 C 20.682427 28.242293 20.803534 27.761941 20.902344 27.302734 C 21.001161 26.843532 21.050781 26.498133 21.050781 26.265625 C 21.050781 25.812234 20.931681 25.415218 20.693359 25.072266 C 20.455041 24.729317 19.952826 24.324394 19.185547 23.859375 C 18.348516 23.347858 17.772871 22.865501 17.458984 22.412109 C 17.145097 21.958717 16.988281 21.418791 16.988281 20.791016 C 16.988281 19.233208 18.046282 18.046201 20.162109 17.232422 C 22.184937 16.453518 23.759049 15.625769 24.886719 14.748047 C 26.014385 13.870327 26.578125 12.93738 26.578125 11.949219 C 26.578125 11.391198 26.425259 10.914795 26.117188 10.519531 C 25.80911 10.124267 25.364474 9.9257812 24.783203 9.9257812 C 24.213555 9.9257813 23.759014 10.136171 23.421875 10.554688 C 23.084739 10.973202 22.846534 11.564753 22.707031 12.332031 C 22.335017 12.645918 21.965812 12.925788 21.599609 13.169922 C 21.233411 13.414057 20.820534 13.652258 20.361328 13.884766 C 19.902124 14.117275 19.34829 14.379288 18.697266 14.669922 C 18.987903 14.437415 19.275725 14.094018 19.560547 13.640625 C 19.845374 13.187234 20.079622 12.696928 20.265625 12.167969 C 20.451637 11.639012 20.544922 11.158657 20.544922 10.728516 C 20.544922 9.7868553 20.314676 8.9273421 19.855469 8.1484375 C 19.396264 7.3695331 18.778901 6.7502202 18 6.2910156 C 17.221095 5.8318109 16.359631 5.6015625 15.417969 5.6015625 z "
     d="m 15.417969,5.0976562 c -1.023814,0 -1.980798,0.2556138 -2.835938,0.7597657 -0.848356,0.5001494 -1.538576,1.185073 -2.044922,2.0332031 -0.510806,0.8556027 -0.7675777,1.8133635 -0.7675777,2.837891 -1.1e-6,0.549249 0.080155,1.095184 0.2382817,1.632812 0.05848,0.198843 0.180274,0.39557 0.259765,0.59375 C 9.0686823,12.648189 8.0030946,12.25405 7.1777344,11.710938 6.1199321,11.014872 5.5864477,10.318237 5.4492187,9.6503906 5.3207672,8.9752916 5.0875052,8.4233067 4.6855469,8.0371094 4.2990801,7.6657994 3.7789727,7.46875 3.2285156,7.46875 2.4705839,7.4687501 1.7903366,7.8382834 1.3710937,8.4707031 0.96424515,9.0844238 0.77148437,9.839969 0.77148437,10.693359 c 0,1.056443 0.25612653,1.982545 0.79296873,2.720704 0.5025923,0.691062 1.1291819,1.273512 1.8671875,1.736328 0.6987421,0.438195 1.3954186,0.829505 2.0898438,1.179687 0.6561633,0.330885 1.2007968,0.671577 1.6308593,1.015625 0.3725627,0.298051 0.5078126,0.579898 0.5078125,0.96875 0,0.488635 -0.06733,0.996549 -0.203125,1.523438 -0.1573993,0.610696 -0.2324218,1.265955 -0.2324218,1.964843 0,1.65669 0.2560617,3.03847 0.8027344,4.144532 0.5422703,1.09715 1.3910175,2.020172 2.5136722,2.748046 l 1.886718,1.238282 c -0.337666,0.749157 -0.651124,1.486424 -0.873046,2.1875 -0.266353,0.841433 -0.40625,1.581617 -0.40625,2.236328 0,0.660372 0.363018,1.262711 0.943359,1.714844 0.595417,0.46387 1.343908,0.689453 2.175781,0.689453 0.603377,0 1.130596,-0.120717 1.533203,-0.439453 0.367233,-0.290726 0.609375,-0.722964 0.609375,-1.179688 0,-0.379639 -0.134283,-0.751919 -0.365234,-1.072266 -0.148008,-0.205301 -0.367115,-0.380983 -0.574219,-0.5625 l 1.019531,-3.072265 a 0.50402925,0.50402925 0 0 0 0.002,-0.0039 c 0.146321,-0.455243 0.10017,-0.955131 -0.07617,-1.457032 -0.155919,-0.443762 -0.331461,-0.882677 -0.529297,-1.320312 -0.175141,-0.387435 -0.244141,-0.685746 -0.244141,-0.847656 0,-0.1513 0.01573,-0.1548 0.05859,-0.1875 0.04287,-0.0327 0.18802,-0.09375 0.466797,-0.09375 0.460018,0 0.75002,0.117345 0.980468,0.34375 0.218452,0.214619 0.347657,0.527499 0.347657,1.052734 0,0.21403 -0.07273,0.553913 -0.244141,0.982422 -0.184541,0.461352 -0.368178,0.909247 -0.552734,1.341797 -0.199847,0.468387 -0.320313,0.856065 -0.320313,1.234375 0,0.582566 0.393872,1.100674 0.945313,1.36914 0.537438,0.261654 1.187328,0.373047 1.947265,0.373047 0.698855,0 1.303777,-0.121177 1.796875,-0.408203 0.492676,-0.286782 0.835938,-0.784513 0.835938,-1.333984 0,-0.467311 -0.18182,-0.91677 -0.501953,-1.259766 -0.185052,-0.19827 -0.460125,-0.26894 -0.705078,-0.386719 0.109409,-0.300115 0.219738,-0.591762 0.324218,-0.951172 0.148524,-0.510922 0.271627,-1.003269 0.373047,-1.474609 0.102452,-0.476093 0.160156,-0.838367 0.160156,-1.142578 0,-0.54165 -0.149832,-1.052454 -0.447265,-1.480469 -0.321161,-0.462163 -0.865046,-0.874555 -1.658203,-1.355469 l -0.002,-0.002 c -0.802639,-0.490868 -1.329583,-0.94937 -1.574219,-1.302734 -0.252016,-0.364023 -0.38086,-0.790137 -0.38086,-1.333984 0,-0.66481 0.209989,-1.211265 0.666016,-1.722657 0.456027,-0.511391 1.177993,-0.977713 2.185547,-1.365234 2.052745,-0.790424 3.665698,-1.633623 4.851562,-2.556641 1.20002,-0.934036 1.886719,-2.017426 1.886719,-3.197265 0,-0.650062 -0.187324,-1.253862 -0.566406,-1.740235 -0.402327,-0.5161848 -1.036422,-0.787109 -1.732422,-0.787109 -0.693738,10e-8 -1.329703,0.2898094 -1.753906,0.816406 -0.371641,0.461347 -0.605443,1.075265 -0.759766,1.794922 -0.319947,0.264112 -0.638043,0.509348 -0.949219,0.716797 -0.313669,0.209115 -0.680691,0.416984 -1.074218,0.621094 0.176525,-0.337434 0.36409,-0.665317 0.49414,-1.035156 0.200196,-0.569292 0.308594,-1.104416 0.308594,-1.607422 0,-1.0238132 -0.255611,-1.9807942 -0.759766,-2.8359379 C 19.788851,7.0441181 19.10517,6.3581371 18.255859,5.8574219 17.400399,5.353084 16.441784,5.0976562 15.417969,5.0976562 Z"
     transform="matrix(1.1865549,0,0,1.1865549,-3.2597222,-3.9069922)" /><path
     id="path3"
     style="fill:#000000;fill-opacity:1;stroke:#0000ff;stroke-width:0;stroke-dasharray:none;stroke-opacity:1"
     sodipodi:type="inkscape:offset"
     inkscape:radius="0.50397885"
     inkscape:original="M 15.417969 5.6015625 C 14.476308 5.6015625 13.616792 5.8318109 12.837891 6.2910156 C 12.058986 6.7502202 11.43572 7.3695331 10.970703 8.1484375 C 10.505686 8.9273421 10.273438 9.7868553 10.273438 10.728516 C 10.273437 11.228409 10.34687 11.724671 10.492188 12.21875 C 10.637505 12.712833 10.855847 13.211042 11.146484 13.710938 C 9.4375447 13.397048 8.0222445 12.871026 6.9003906 12.132812 C 5.7785361 11.394598 5.1294597 10.600609 4.9550781 9.7519531 C 4.8388234 9.1358042 4.6323859 8.6852151 4.3359375 8.4003906 C 4.0394878 8.1155673 3.6702813 7.9726562 3.2285156 7.9726562 C 2.6123675 7.9726563 2.1339656 8.2326665 1.7910156 8.75 C 1.448065 9.2673322 1.2753906 9.9144528 1.2753906 10.693359 C 1.2753906 11.669894 1.507639 12.477789 1.9726562 13.117188 C 2.4376743 13.756586 3.0133181 14.292516 3.6992188 14.722656 C 4.3851193 15.152798 5.0679596 15.537907 5.7480469 15.880859 C 6.4281363 16.223809 7.001779 16.581113 7.4667969 16.953125 C 7.9318134 17.325139 8.1640625 17.779683 8.1640625 18.314453 C 8.1640625 18.849224 8.0906295 19.399058 7.9453125 19.962891 C 7.7999919 20.526723 7.7285156 21.140087 7.7285156 21.802734 C 7.7285156 23.407044 7.9786233 24.713196 8.4785156 25.724609 C 8.9784096 26.736021 9.7565384 27.585584 10.814453 28.271484 L 13.046875 29.736328 C 12.628357 30.619865 12.290915 31.465471 12.035156 32.273438 C 11.779396 33.081407 11.652344 33.776149 11.652344 34.357422 C 11.652344 34.845691 11.902451 35.284371 12.402344 35.673828 C 12.902238 36.063279 13.523552 36.257812 14.267578 36.257812 C 14.802352 36.257812 15.209272 36.14862 15.488281 35.927734 C 15.767292 35.706851 15.90625 35.44484 15.90625 35.142578 C 15.90625 34.875193 15.816916 34.61518 15.636719 34.365234 C 15.456524 34.115286 15.208417 33.875091 14.894531 33.642578 L 16.011719 30.277344 C 16.116342 29.951833 16.092535 29.57272 15.941406 29.142578 C 15.790274 28.712438 15.619555 28.285657 15.427734 27.861328 C 15.235915 27.436999 15.138672 27.085652 15.138672 26.806641 C 15.138672 26.283498 15.482068 26.021484 16.167969 26.021484 C 16.72599 26.021484 17.170625 26.184252 17.501953 26.509766 C 17.833279 26.835279 18 27.305727 18 27.921875 C 18 28.235761 17.906712 28.626783 17.720703 29.091797 C 17.534695 29.556817 17.348117 30.007406 17.162109 30.443359 C 16.9761 30.879314 16.882812 31.22471 16.882812 31.480469 C 16.882812 31.875736 17.103158 32.181413 17.544922 32.396484 C 17.986693 32.611562 18.562331 32.71875 19.271484 32.71875 C 19.910881 32.71875 20.425002 32.6056 20.814453 32.378906 C 21.203904 32.15221 21.400391 31.852482 21.400391 31.480469 C 21.400391 31.131703 21.277337 30.826022 21.033203 30.564453 C 20.789068 30.302879 20.475435 30.132161 20.091797 30.050781 C 20.242928 29.678771 20.39179 29.242083 20.537109 28.742188 C 20.682427 28.242293 20.803534 27.761941 20.902344 27.302734 C 21.001161 26.843532 21.050781 26.498133 21.050781 26.265625 C 21.050781 25.812234 20.931681 25.415218 20.693359 25.072266 C 20.455041 24.729317 19.952826 24.324394 19.185547 23.859375 C 18.348516 23.347858 17.772871 22.865501 17.458984 22.412109 C 17.145097 21.958717 16.988281 21.418791 16.988281 20.791016 C 16.988281 19.233208 18.046282 18.046201 20.162109 17.232422 C 22.184937 16.453518 23.759049 15.625769 24.886719 14.748047 C 26.014385 13.870327 26.578125 12.93738 26.578125 11.949219 C 26.578125 11.391198 26.425259 10.914795 26.117188 10.519531 C 25.80911 10.124267 25.364474 9.9257812 24.783203 9.9257812 C 24.213555 9.9257813 23.759014 10.136171 23.421875 10.554688 C 23.084739 10.973202 22.846534 11.564753 22.707031 12.332031 C 22.335017 12.645918 21.965812 12.925788 21.599609 13.169922 C 21.233411 13.414057 20.820534 13.652258 20.361328 13.884766 C 19.902124 14.117275 19.34829 14.379288 18.697266 14.669922 C 18.987903 14.437415 19.275725 14.094018 19.560547 13.640625 C 19.845374 13.187234 20.079622 12.696928 20.265625 12.167969 C 20.451637 11.639012 20.544922 11.158657 20.544922 10.728516 C 20.544922 9.7868553 20.314676 8.9273421 19.855469 8.1484375 C 19.396264 7.3695331 18.778901 6.7502202 18 6.2910156 C 17.221095 5.8318109 16.359631 5.6015625 15.417969 5.6015625 z "
     d="m 15.417969,5.0976562 c -1.023814,0 -1.980798,0.2556138 -2.835938,0.7597657 -0.848356,0.5001494 -1.538576,1.185073 -2.044922,2.0332031 -0.510806,0.8556027 -0.7675777,1.8133635 -0.7675777,2.837891 -1.1e-6,0.549249 0.080155,1.095184 0.2382817,1.632812 0.05848,0.198843 0.180274,0.39557 0.259765,0.59375 C 9.0686823,12.648189 8.0030946,12.25405 7.1777344,11.710938 6.1199321,11.014872 5.5864477,10.318237 5.4492187,9.6503906 5.3207672,8.9752916 5.0875052,8.4233067 4.6855469,8.0371094 4.2990801,7.6657994 3.7789727,7.46875 3.2285156,7.46875 2.4705839,7.4687501 1.7903366,7.8382834 1.3710937,8.4707031 0.96424515,9.0844238 0.77148437,9.839969 0.77148437,10.693359 c 0,1.056443 0.25612653,1.982545 0.79296873,2.720704 0.5025923,0.691062 1.1291819,1.273512 1.8671875,1.736328 0.6987421,0.438195 1.3954186,0.829505 2.0898438,1.179687 0.6561633,0.330885 1.2007968,0.671577 1.6308593,1.015625 0.3725627,0.298051 0.5078126,0.579898 0.5078125,0.96875 0,0.488635 -0.06733,0.996549 -0.203125,1.523438 -0.1573993,0.610696 -0.2324218,1.265955 -0.2324218,1.964843 0,1.65669 0.2560617,3.03847 0.8027344,4.144532 0.5422703,1.09715 1.3910175,2.020172 2.5136722,2.748046 l 1.886718,1.238282 c -0.337666,0.749157 -0.651124,1.486424 -0.873046,2.1875 -0.266353,0.841433 -0.40625,1.581617 -0.40625,2.236328 0,0.660372 0.363018,1.262711 0.943359,1.714844 0.595417,0.46387 1.343908,0.689453 2.175781,0.689453 0.603377,0 1.130596,-0.120717 1.533203,-0.439453 0.367233,-0.290726 0.609375,-0.722964 0.609375,-1.179688 0,-0.379639 -0.134283,-0.751919 -0.365234,-1.072266 -0.148008,-0.205301 -0.367115,-0.380983 -0.574219,-0.5625 l 1.019531,-3.072265 a 0.50402925,0.50402925 0 0 0 0.002,-0.0039 c 0.146321,-0.455243 0.10017,-0.955131 -0.07617,-1.457032 -0.155919,-0.443762 -0.331461,-0.882677 -0.529297,-1.320312 -0.175141,-0.387435 -0.244141,-0.685746 -0.244141,-0.847656 0,-0.1513 0.01573,-0.1548 0.05859,-0.1875 0.04287,-0.0327 0.18802,-0.09375 0.466797,-0.09375 0.460018,0 0.75002,0.117345 0.980468,0.34375 0.218452,0.214619 0.347657,0.527499 0.347657,1.052734 0,0.21403 -0.07273,0.553913 -0.244141,0.982422 -0.184541,0.461352 -0.368178,0.909247 -0.552734,1.341797 -0.199847,0.468387 -0.320313,0.856065 -0.320313,1.234375 0,0.582566 0.393872,1.100674 0.945313,1.36914 0.537438,0.261654 1.187328,0.373047 1.947265,0.373047 0.698855,0 1.303777,-0.121177 1.796875,-0.408203 0.492676,-0.286782 0.835938,-0.784513 0.835938,-1.333984 0,-0.467311 -0.18182,-0.91677 -0.501953,-1.259766 -0.185052,-0.19827 -0.460125,-0.26894 -0.705078,-0.386719 0.109409,-0.300115 0.219738,-0.591762 0.324218,-0.951172 0.148524,-0.510922 0.271627,-1.003269 0.373047,-1.474609 0.102452,-0.476093 0.160156,-0.838367 0.160156,-1.142578 0,-0.54165 -0.149832,-1.052454 -0.447265,-1.480469 -0.321161,-0.462163 -0.865046,-0.874555 -1.658203,-1.355469 l -0.002,-0.002 c -0.802639,-0.490868 -1.329583,-0.94937 -1.574219,-1.302734 -0.252016,-0.364023 -0.38086,-0.790137 -0.38086,-1.333984 0,-0.66481 0.209989,-1.211265 0.666016,-1.722657 0.456027,-0.511391 1.177993,-0.977713 2.185547,-1.365234 2.052745,-0.790424 3.665698,-1.633623 4.851562,-2.556641 1.20002,-0.934036 1.886719,-2.017426 1.886719,-3.197265 0,-0.650062 -0.187324,-1.253862 -0.566406,-1.740235 -0.402327,-0.5161848 -1.036422,-0.787109 -1.732422,-0.787109 -0.693738,10e-8 -1.329703,0.2898094 -1.753906,0.816406 -0.371641,0.461347 -0.605443,1.075265 -0.759766,1.794922 -0.319947,0.264112 -0.638043,0.509348 -0.949219,0.716797 -0.313669,0.209115 -0.680691,0.416984 -1.074218,0.621094 0.176525,-0.337434 0.36409,-0.665317 0.49414,-1.035156 0.200196,-0.569292 0.308594,-1.104416 0.308594,-1.607422 0,-1.0238132 -0.255611,-1.9807942 -0.759766,-2.8359379 C 19.788851,7.0441181 19.10517,6.3581371 18.255859,5.8574219 17.400399,5.353084 16.441784,5.0976562 15.417969,5.0976562 Z"
     transform="matrix(1.1865549,0,0,1.1865549,-3.2597222,-3.9069922)" /><rect
     style="fill:#56c126;fill-opacity:1;stroke:none;stroke-width:2.00446;stroke-dasharray:none;stroke-opacity:1"
     id="rect2"
     width="1.8039907"
     height="2.6529276"
     x="49"
     y="13" /></svg>
