<?xml version="1.0" encoding="UTF-8"?>
<svg version="1.1" xmlns="http://www.w3.org/2000/svg" width="200" height="200">
<path d="M0 0 C8.75685199 0.90718467 13.66768449 7.13355821 19.04296875 13.5703125 C28.19590722 24.95804187 35.62750633 37.41554204 43 50 C44.26714844 49.72285156 45.53429687 49.44570313 46.83984375 49.16015625 C48.53901215 48.79403709 50.23823378 48.42816488 51.9375 48.0625 C52.76830078 47.88009766 53.59910156 47.69769531 54.45507812 47.50976562 C75.1517863 43.08050901 94.59082491 45.29553265 115 50 C115.34144043 49.43716309 115.68288086 48.87432617 116.03466797 48.29443359 C140.80492685 7.5749494 140.80492685 7.5749494 154 0 C155.32 0 156.64 0 158 0 C179.47659974 61.69169073 179.47659974 61.69169073 172 83 C169.89450956 86.6676285 168.52363955 88.65090697 165 91 C166.2040466 93.14833696 167.41280187 95.29376583 168.625 97.4375 C168.98529297 98.07913086 169.34558594 98.72076172 169.71679688 99.38183594 C171.78526002 103.02269718 173.97692969 106.39999038 176.5 109.75 C179.05877803 113.59169153 179.9616615 116.58951113 179.6328125 121.21484375 C176.91855179 133.16094183 168.79152246 142.91440258 161 152 C160.55688477 152.51755859 160.11376953 153.03511719 159.65722656 153.56835938 C154.48785356 159.54580939 149.07677816 164.96152027 143 170 C142.11828125 170.76957031 141.2365625 171.53914062 140.328125 172.33203125 C120.50864238 189.39880795 98.23452873 201.80338248 71.44433594 200.21875 C54.07883362 198.66466589 38.46930896 188.37107243 25 178 C24.11441406 177.33871094 23.22882812 176.67742187 22.31640625 175.99609375 C4.94363077 162.48393504 -15.6711532 143.51845049 -21.671875 121.5390625 C-22.34166167 114.40325839 -17.71059211 108.71500542 -14 103 C-12.87402714 101.18032546 -11.75997076 99.35370243 -10.64648438 97.52636719 C-9.11064115 95.0095214 -7.55539603 92.50479361 -6 90 C-6.77859375 89.74605469 -7.5571875 89.49210937 -8.359375 89.23046875 C-12.51279985 87.29507108 -13.48308954 84.15633467 -15 80 C-20.62725569 54.20841142 -8.37919635 23.92294195 0 0 Z " fill="#496FB4" transform="translate(21,0)"/>
<path d="M0 0 C8.75685199 0.90718467 13.66768449 7.13355821 19.04296875 13.5703125 C27.69075919 24.33020546 34.74453006 36.02872559 41.6940918 47.93139648 C42.96334463 50.11031516 42.96334463 50.11031516 45 52 C44.34 52 43.68 52 43 52 C43.0194182 58.17536715 43.07113043 64.34930887 43.15258789 70.52416992 C43.17576296 72.62402578 43.19016244 74.7239978 43.19555664 76.82397461 C43.20484963 79.84562525 43.24584846 82.86545017 43.29296875 85.88671875 C43.2890361 86.82335861 43.28510345 87.75999847 43.28105164 88.72502136 C43.38175504 93.23922363 43.53446709 95.37001496 46.28344727 99.09008789 C48.912337 100.93836724 50.03560335 101.62874941 53.171875 101.671875 C54.29142578 101.70861328 54.29142578 101.70861328 55.43359375 101.74609375 C56.19800781 101.74738281 56.96242188 101.74867187 57.75 101.75 C65.92567568 101.92567568 65.92567568 101.92567568 67 103 C67.0952822 105.98298214 67.12552175 108.94276345 67.11352539 111.92602539 C67.11367142 112.86251419 67.11381744 113.79900299 67.1139679 114.76387024 C67.11326837 117.87515539 67.10547415 120.98638149 67.09765625 124.09765625 C67.09579221 126.24857043 67.09436824 128.39948503 67.09336853 130.55039978 C67.08954225 136.22381758 67.07971102 141.89720995 67.06866455 147.57061768 C67.0584528 153.35501766 67.05387142 159.13942173 67.04882812 164.92382812 C67.03808885 176.28256328 67.02101111 187.64127953 67 199 C65.56090892 198.68790087 64.12227547 198.37369108 62.68383789 198.05859375 C61.4820565 197.79647095 61.4820565 197.79647095 60.2559967 197.52905273 C31.48072126 190.78097632 1.61189809 161.9362688 -14 138 C-22.33753882 124.38892082 -22.33753882 124.38892082 -21.6796875 117.2578125 C-20.09979175 112.00965306 -16.96000503 107.55896102 -14 103 C-12.87402714 101.18032546 -11.75997076 99.35370243 -10.64648438 97.52636719 C-9.11064115 95.0095214 -7.55539603 92.50479361 -6 90 C-6.77859375 89.74605469 -7.5571875 89.49210937 -8.359375 89.23046875 C-12.51279985 87.29507108 -13.48308954 84.15633467 -15 80 C-20.62725569 54.20841142 -8.37919635 23.92294195 0 0 Z " fill="#D6328E" transform="translate(21,0)"/>
<path d="M0 0 C7.65942261 -0.18182606 14.99897757 0.30104269 22.57421875 1.46875 C23.35071777 1.58637695 24.1272168 1.70400391 24.92724609 1.82519531 C37.32713406 3.90916531 37.32713406 3.90916531 40.57421875 7.15625 C40.68765615 8.51053617 40.73371905 9.87057616 40.7512207 11.22949219 C40.77047356 12.52654083 40.77047356 12.52654083 40.79011536 13.84979248 C40.79750229 14.79139221 40.80488922 15.73299194 40.8125 16.703125 C40.82057175 17.66647766 40.82864349 18.62983032 40.83695984 19.62237549 C40.85082024 21.6668517 40.8615336 23.71135125 40.86938477 25.75585938 C40.88657077 28.8793553 40.93043623 32.00178573 40.97460938 35.125 C40.9847382 37.1093672 40.99325371 39.09374342 41 41.078125 C41.01750809 42.01162781 41.03501617 42.94513062 41.05305481 43.90692139 C41.03878588 48.18583336 40.97095821 50.51629177 38.67260742 54.22363281 C32.83611503 59.5990457 31.34761234 57.15625 20.57421875 57.15625 C20.57421875 88.83625 20.57421875 120.51625 20.57421875 153.15625 C16.3795104 154.83413334 14.75926454 155.40722608 10.5625 155.38671875 C9.17901367 155.38381836 9.17901367 155.38381836 7.76757812 155.38085938 C6.81689453 155.36861328 5.86621094 155.35636719 4.88671875 155.34375 C3.44329102 155.3427832 3.44329102 155.3427832 1.97070312 155.34179688 C-5.14456457 155.29685834 -5.14456457 155.29685834 -7.42578125 154.15625 C-7.92078125 106.63625 -7.92078125 106.63625 -8.42578125 58.15625 C-14.03578125 57.82625 -19.64578125 57.49625 -25.42578125 57.15625 C-30.42578125 53.15625 -30.42578125 53.15625 -31.42578125 51.15625 C-31.51512531 49.73651727 -31.54337103 48.31267209 -31.53930664 46.89013672 C-31.53923111 46.00937469 -31.53915558 45.12861267 -31.53907776 44.22116089 C-31.53391647 43.26903717 -31.52875519 42.31691345 -31.5234375 41.3359375 C-31.52202255 40.36214142 -31.5206076 39.38834534 -31.51914978 38.38504028 C-31.51354098 35.26707927 -31.50098698 32.1491894 -31.48828125 29.03125 C-31.48326738 26.92057395 -31.47870428 24.80989678 -31.47460938 22.69921875 C-31.4635687 17.51820479 -31.44682198 12.33723248 -31.42578125 7.15625 C-30.76578125 7.15625 -30.10578125 7.15625 -29.42578125 7.15625 C-29.42578125 6.49625 -29.42578125 5.83625 -29.42578125 5.15625 C-19.58723788 2.7276773 -10.14627755 0.46277207 0 0 Z " fill="#6CCAD5" transform="translate(95.42578125,44.84375)"/>
<path d="M0 0 C2.55210145 -0.01356699 5.10412972 -0.02345216 7.65625 -0.03125 C8.37329102 -0.03543945 9.09033203 -0.03962891 9.82910156 -0.04394531 C14.96114257 -0.05568911 19.91317829 0.27331118 25 1 C23.68 1.33 22.36 1.66 21 2 C21.01047363 3.17095215 21.02094727 4.3419043 21.03173828 5.54833984 C21.06787497 9.88310705 21.09087733 14.21786089 21.10986328 18.55273438 C21.11993534 20.43068682 21.13359362 22.30862353 21.15087891 24.18652344 C21.17507453 26.8822009 21.18647083 29.57767146 21.1953125 32.2734375 C21.20563507 33.11619232 21.21595764 33.95894714 21.22659302 34.82723999 C21.22699144 36.88621247 21.12257588 38.94467935 21 41 C18.44051001 43.55948999 16.72792805 43.26068731 13.234375 43.2734375 C12.49703125 43.26570313 11.7596875 43.25796875 11 43.25 C10.26265625 43.25773437 9.5253125 43.26546875 8.765625 43.2734375 C3.2533196 43.2533196 3.2533196 43.2533196 1 41 C0.7215271 39.20297241 0.7215271 39.20297241 0.68115234 37.00927734 C0.66128265 36.18857758 0.64141296 35.36787781 0.62094116 34.52230835 C0.60938995 33.63580597 0.59783875 32.74930359 0.5859375 31.8359375 C0.56657135 30.92872955 0.5472052 30.02152161 0.5272522 29.08682251 C0.46736784 26.18297796 0.42103584 23.27909396 0.375 20.375 C0.33682835 18.40883667 0.29777711 16.4426902 0.2578125 14.4765625 C0.16165909 9.6511783 0.077661 4.82571582 0 0 Z " fill="#8457A1" transform="translate(92,45)"/>
<path d="M0 0 C0.66 0.33 1.32 0.66 2 1 C-2.29 5.29 -6.58 9.58 -11 14 C-11.66 13.67 -12.32 13.34 -13 13 C-11.58791833 11.39179588 -10.17013964 9.78859292 -8.75 8.1875 C-7.96109375 7.29417969 -7.1721875 6.40085937 -6.359375 5.48046875 C-4.34120555 3.35871775 -2.40083295 1.65745577 0 0 Z " fill="#304977" transform="translate(173,1)"/>
</svg>
