<svg width="512" height="512" viewBox="0 0 512 512" xmlns="http://www.w3.org/2000/svg">

  <g transform="translate(256,256) scale(1.8)">

    <!-- ===== ANEL EXTERNO ===== -->

    <path d="M0,-200 L141,-141 L56,-56 L0,-80 Z" fill="#1B3A57"/>
    <path d="M141,-141 L200,0 L80,0 L56,-56 Z" fill="#162E45"/>
    <path d="M200,0 L141,141 L56,56 L80,0 Z" fill="#0F2233"/>
    <path d="M141,141 L0,200 L0,80 L56,56 Z" fill="#162E45"/>
    <path d="M0,200 L-141,141 L-56,56 L0,80 Z" fill="#1B3A57"/>
    <path d="M-141,141 L-200,0 L-80,0 L-56,56 Z" fill="#E6E6E6"/>
    <path d="M-200,0 L-141,-141 L-56,-56 L-80,0 Z" fill="#1B3A57"/>
    <path d="M-141,-141 L0,-200 L0,-80 L-56,-56 Z" fill="#204A6B"/>

    <!-- ===== OCTÓGONO INTERNO ===== -->

    <path d="M0,-80 L56,-56 L21,-21 L0,-30 Z" fill="#13324A"/>
    <path d="M56,-56 L80,0 L30,0 L21,-21 Z" fill="#0D2536"/>
    <path d="M80,0 L56,56 L21,21 L30,0 Z" fill="#13324A"/>
    <path d="M56,56 L0,80 L0,30 L21,21 Z" fill="#162E45"/>
    <path d="M0,80 L-56,56 L-21,21 L0,30 Z" fill="#13324A"/>
    <path d="M-56,56 L-80,0 L-30,0 L-21,21 Z" fill="#0F2233"/>
    <path d="M-80,0 L-56,-56 L-21,-21 L-30,0 Z" fill="#13324A"/>
    <path d="M-56,-56 L0,-80 L0,-30 L-21,-21 Z" fill="#162E45"/>

  </g>

</svg>
