<svg xmlns="http://www.w3.org/2000/svg" version="1.1" xmlns:xlink="http://www.w3.org/1999/xlink" xmlns:svgjs="http://svgjs.dev/svgjs" width="1440" height="560" preserveAspectRatio="none" viewBox="0 0 1440 560"><g mask="url(&quot;#SvgjsMask3480&quot;)" fill="none"><g mask="url(&quot;#SvgjsMask3481&quot;)"><path d="M75 275L125 275L175 275L225 275M-25 275L25 275L75 275L125 325" stroke="rgba(0, 165, 210, 1)" stroke-width="8.33"></path><path d="M112.5 325 a12.5 12.5 0 1 0 25 0 a12.5 12.5 0 1 0 -25 0zM212.5 275 a12.5 12.5 0 1 0 25 0 a12.5 12.5 0 1 0 -25 0z" fill="rgba(0, 165, 210, 1)"></path><path d="M-25 325L25 325" stroke="rgba(0, 165, 210, 1)" stroke-width="8.33"></path><path d="M12.5 325 a12.5 12.5 0 1 0 25 0 a12.5 12.5 0 1 0 -25 0z" fill="rgba(0, 165, 210, 1)"></path><path d="M125 225L175 175M-25 225L25 225L75 225L125 225L175 225L225 225L275 275" stroke="#3a7cc3" stroke-width="8.33"></path><path d="M262.5 275 a12.5 12.5 0 1 0 25 0 a12.5 12.5 0 1 0 -25 0zM162.5 175 a12.5 12.5 0 1 0 25 0 a12.5 12.5 0 1 0 -25 0z" fill="#3a7cc3"></path><path d="M75 175L125 175M175 125L225 125L275 125M425 225L475 275L525 275L575 275M-25 175L25 175L75 175L125 125L175 125L225 175L275 225L325 225L375 225L425 225L475 225L525 225L575 225" stroke="rgba(0, 165, 210, 1)" stroke-width="8.33"></path><path d="M562.5 225 a12.5 12.5 0 1 0 25 0 a12.5 12.5 0 1 0 -25 0zM112.5 175 a12.5 12.5 0 1 0 25 0 a12.5 12.5 0 1 0 -25 0zM262.5 125 a12.5 12.5 0 1 0 25 0 a12.5 12.5 0 1 0 -25 0zM562.5 275 a12.5 12.5 0 1 0 25 0 a12.5 12.5 0 1 0 -25 0z" fill="rgba(0, 165, 210, 1)"></path></g></g><defs><mask id="SvgjsMask3480"><rect width="1440" height="560" fill="#ffffff"></rect></mask><mask id="SvgjsMask3481"><rect width="1440" height="560" fill="white"></rect><path d="M118.75 325 a6.25 6.25 0 1 0 12.5 0 a6.25 6.25 0 1 0 -12.5 0zM218.75 275 a6.25 6.25 0 1 0 12.5 0 a6.25 6.25 0 1 0 -12.5 0z" fill="black"></path><path d="M18.75 325 a6.25 6.25 0 1 0 12.5 0 a6.25 6.25 0 1 0 -12.5 0z" fill="black"></path><path d="M268.75 275 a6.25 6.25 0 1 0 12.5 0 a6.25 6.25 0 1 0 -12.5 0zM168.75 175 a6.25 6.25 0 1 0 12.5 0 a6.25 6.25 0 1 0 -12.5 0z" fill="black"></path><path d="M568.75 225 a6.25 6.25 0 1 0 12.5 0 a6.25 6.25 0 1 0 -12.5 0zM118.75 175 a6.25 6.25 0 1 0 12.5 0 a6.25 6.25 0 1 0 -12.5 0zM268.75 125 a6.25 6.25 0 1 0 12.5 0 a6.25 6.25 0 1 0 -12.5 0zM568.75 275 a6.25 6.25 0 1 0 12.5 0 a6.25 6.25 0 1 0 -12.5 0z" fill="black"></path></mask></defs></svg>