<?xml version="1.0" standalone="yes"?>

<svg version="1.1" viewBox="0.0 0.0 703.0 373.0" fill="none" stroke="none" stroke-linecap="square" stroke-miterlimit="10" xmlns="http://www.w3.org/2000/svg" xmlns:xlink="http://www.w3.org/1999/xlink"><clipPath id="p.0"><path d="m0 0l703.0 0l0 373.0l-703.0 0l0 -373.0z" clip-rule="nonzero"></path></clipPath><g clip-path="url(#p.0)"><path fill="#000000" fill-opacity="0.0" d="m0 0l703.9344 0l0 373.87402l-703.9344 0z" fill-rule="nonzero"></path><path fill="#ffffff" d="m209.91321 224.15445l-193.85022 -133.60327l14.607443 51.116684l165.14786 117.025894z" fill-rule="nonzero"></path><path stroke="#efefef" stroke-width="2.0" stroke-linejoin="round" stroke-linecap="butt" d="m209.91321 224.15445l-193.85022 -133.60327l14.607443 51.116684l165.14786 117.025894z" fill-rule="nonzero"></path><path fill="#ff0000" d="m327.53452 297.88818l-5.7504272 16.688568l365.17203 -108.40233l-30.44159 -26.969238z" fill-rule="nonzero"></path><path fill="#ff9900" d="m318.43182 286.348l-11.223328 22.280762l351.7826 -126.497665l-26.929504 -26.335007z" fill-rule="nonzero"></path><path fill="#ffff00" d="m304.62537 286.30695l-11.207367 14.449921l340.4418 -141.6302l-39.911743 -40.151627z" fill-rule="nonzero"></path><path fill="#00ff00" d="m264.4577 272.8916l20.995453 27.348694l314.02628 -177.67105l-58.80481 -54.30976z" fill-rule="nonzero"></path><path fill="#0000ff" d="m275.2167 277.6664l12.479584 16.278748l270.61615 -207.41946l-38.113586 -36.82104z" fill-rule="nonzero"></path><path fill="#9900ff" d="m270.3765 270.99115l11.347015 11.56308l239.784 -233.43181l-39.289124 -33.94025z" fill-rule="nonzero"></path><path fill="#efefef" d="m146.4552 342.84518l107.22885 -207.15404l105.570465 208.96922z" fill-rule="nonzero"></path><path stroke="#999999" stroke-width="2.0" stroke-linejoin="round" stroke-linecap="butt" d="m146.4552 342.84518l107.22885 -207.15404l105.570465 208.96922z" fill-rule="nonzero"></path></g></svg>

