<svg xml:space="preserve" viewBox="0 0 100 100" y="0" x="0" xmlns="http://www.w3.org/2000/svg" id="圖層_1" version="1.1" preserveAspectRatio="xMidYMid" width="150" height="150" xmlns:xlink="http://www.w3.org/1999/xlink" style="margin-top:0px;margin-right:0px;margin-bottom:0px;margin-left:0px;display:block;shape-rendering:auto;background-position-x:0%;background-position-y:0%;background-size:auto;background-origin:padding-box;background-clip:border-box;background:scroll rgba(0, 0, 0, 0) none  repeat;width:150px;height:150px;;animation:none"><g class="ldl-scale" style="transform-origin:50px 50px;transform:matrix(1, 0, 0, 1, 0, 0);;animation:none"><g class="ldl-ani" style="transform-box:view-box;;animation:none"><g class="ldl-layer"><g class="ldl-ani" style="transform-box:view-box;transform:matrix(1, 0, 0, 1, 0, 0);animation-duration:5s;animation-timing-function:linear;animation-delay:-0.510638s;animation-iteration-count:infinite;animation-direction:normal;animation-fill-mode:forwards;animation-play-state:paused;animation-name:animate;animation-timeline:auto;animation-range-start:normal;animation-range-end:normal;transform-origin:50px 50px;;animation:none"><path fill="#f8b26a" opacity=".2" d="M79.5 47.6c-1.8.4-3.5.7-5.3.9v5c1.8-.2 3.5-.6 5.3-.9v-5z" style="stroke-width:1.6px;fill:rgb(64, 0, 255);opacity:0.2;;animation:none"></path></g></g>
<g class="ldl-layer"><g class="ldl-ani" style="transform-box:view-box;transform:matrix(1, 0, 0, 1, 0, 0);animation-duration:5s;animation-timing-function:linear;animation-delay:-0.521277s;animation-iteration-count:infinite;animation-direction:normal;animation-fill-mode:forwards;animation-play-state:paused;animation-name:animate;animation-timeline:auto;animation-range-start:normal;animation-range-end:normal;transform-origin:50px 50px;;animation:none"><path fill="#abbd81" opacity=".2" d="M79.5 47.6v5c3.4-.7 6.8-1.6 10.1-2.7v-5c-3.2 1.1-6.6 2-10.1 2.7z" style="stroke-width:1.6px;fill:rgb(255, 0, 0);opacity:0.2;;animation:none"></path></g></g>
<g class="ldl-layer"><g class="ldl-ani" style="transform-box:view-box;transform:matrix(1, 0, 0, 1, 0, 0);animation-duration:5s;animation-timing-function:linear;animation-delay:-0.531915s;animation-iteration-count:infinite;animation-direction:normal;animation-fill-mode:forwards;animation-play-state:paused;animation-name:animate;animation-timeline:auto;animation-range-start:normal;animation-range-end:normal;transform-origin:50px 50px;;animation:none"><path fill="#f8b26a" opacity=".5" d="M79.5 57.7v-5c-1.8.4-3.5.7-5.3.9v3.5c.1.5.1 1 .1 1.5 1.8-.3 3.5-.6 5.2-.9z" style="stroke-width:1.6px;fill:rgb(64, 0, 255);opacity:0.5;;animation:none"></path></g></g>
<g class="ldl-layer"><g class="ldl-ani" style="transform-box:view-box;transform:matrix(1, 0, 0, 1, 0, 0);animation-duration:5s;animation-timing-function:linear;animation-delay:-0.542553s;animation-iteration-count:infinite;animation-direction:normal;animation-fill-mode:forwards;animation-play-state:paused;animation-name:animate;animation-timeline:auto;animation-range-start:normal;animation-range-end:normal;transform-origin:50px 50px;;animation:none"><path fill="#abbd81" opacity=".5" d="M79.5 57.7c3.5-.7 6.9-1.6 10.2-2.7v-5c-3.3 1.1-6.7 2-10.1 2.7v5z" style="stroke-width:1.6px;fill:rgb(255, 0, 0);opacity:0.5;;animation:none"></path></g></g>
<g class="ldl-layer"><g class="ldl-ani" style="transform-box:view-box;transform:matrix(1, 0, 0, 1, 0, 0);animation-duration:5s;animation-timing-function:linear;animation-delay:-0.553191s;animation-iteration-count:infinite;animation-direction:normal;animation-fill-mode:forwards;animation-play-state:paused;animation-name:animate;animation-timeline:auto;animation-range-start:normal;animation-range-end:normal;transform-origin:50px 50px;;animation:none"><path fill="red" d="M50.4 79.4l-.3.6c.1-.3.2-.5.3-.6z" style="stroke-width:1.6px;fill:rgb(236, 255, 0);;animation:none"></path></g></g>
<g class="ldl-layer"><g class="ldl-ani" style="transform-box:view-box;transform:matrix(1, 0, 0, 1, 0, 0);animation-duration:5s;animation-timing-function:linear;animation-delay:-0.56383s;animation-iteration-count:infinite;animation-direction:normal;animation-fill-mode:forwards;animation-play-state:paused;animation-name:animate;animation-timeline:auto;animation-range-start:normal;animation-range-end:normal;transform-origin:50px 50px;;animation:none"><path fill="red" d="M51 78.4c-.2.2-.3.5-.5.7.2-.2.3-.4.5-.7z" style="stroke-width:1.6px;fill:rgb(236, 255, 0);;animation:none"></path></g></g>
<g class="ldl-layer"><g class="ldl-ani" style="transform-box:view-box;transform:matrix(1, 0, 0, 1, 0, 0);animation-duration:5s;animation-timing-function:linear;animation-delay:-0.574468s;animation-iteration-count:infinite;animation-direction:normal;animation-fill-mode:forwards;animation-play-state:paused;animation-name:animate;animation-timeline:auto;animation-range-start:normal;animation-range-end:normal;transform-origin:50px 50px;;animation:none"><path fill="red" d="M50 80.2c-.1.3-.2.5-.3.8 0-.3.2-.6.3-.8z" style="stroke-width:1.6px;fill:rgb(236, 255, 0);;animation:none"></path></g></g>
<g class="ldl-layer"><g class="ldl-ani" style="transform-box:view-box;transform:matrix(1, 0, 0, 1, 0, 0);animation-duration:5s;animation-timing-function:linear;animation-delay:-0.585106s;animation-iteration-count:infinite;animation-direction:normal;animation-fill-mode:forwards;animation-play-state:paused;animation-name:animate;animation-timeline:auto;animation-range-start:normal;animation-range-end:normal;transform-origin:50px 50px;;animation:none"><path fill="red" d="M49.6 80.9c-.1.3-.2.5-.3.8.2-.2.2-.5.3-.8z" style="stroke-width:1.6px;fill:rgb(236, 255, 0);;animation:none"></path></g></g>
<g class="ldl-layer"><g class="ldl-ani" style="transform-box:view-box;transform:matrix(1, 0, 0, 1, 0, 0);animation-duration:5s;animation-timing-function:linear;animation-delay:-0.595745s;animation-iteration-count:infinite;animation-direction:normal;animation-fill-mode:forwards;animation-play-state:paused;animation-name:animate;animation-timeline:auto;animation-range-start:normal;animation-range-end:normal;transform-origin:50px 50px;;animation:none"><path fill="red" d="M49.3 81.9c-.1.2-.1.4-.1.6 0-.2.1-.4.1-.6z" style="stroke-width:1.6px;fill:rgb(236, 255, 0);;animation:none"></path></g></g>
<g class="ldl-layer"><g class="ldl-ani" style="transform-box:view-box;transform:matrix(1, 0, 0, 1, 0, 0);animation-duration:5s;animation-timing-function:linear;animation-delay:-0.606383s;animation-iteration-count:infinite;animation-direction:normal;animation-fill-mode:forwards;animation-play-state:paused;animation-name:animate;animation-timeline:auto;animation-range-start:normal;animation-range-end:normal;transform-origin:50px 50px;;animation:none"><path fill="red" d="M49.1 82.7c0 .3-.1.5-.1.8.1-.2.1-.5.1-.8z" style="stroke-width:1.6px;fill:rgb(236, 255, 0);;animation:none"></path></g></g>
<g class="ldl-layer"><g class="ldl-ani" style="transform-box:view-box;transform:matrix(1, 0, 0, 1, 0, 0);animation-duration:5s;animation-timing-function:linear;animation-delay:-0.617021s;animation-iteration-count:infinite;animation-direction:normal;animation-fill-mode:forwards;animation-play-state:paused;animation-name:animate;animation-timeline:auto;animation-range-start:normal;animation-range-end:normal;transform-origin:50px 50px;;animation:none"><path fill="red" d="M53.6 75.6c-.2.1-.4.3-.5.5.1-.2.3-.3.5-.5z" style="stroke-width:1.6px;fill:rgb(236, 255, 0);;animation:none"></path></g></g>
<g class="ldl-layer"><g class="ldl-ani" style="transform-box:view-box;transform:matrix(1, 0, 0, 1, 0, 0);animation-duration:5s;animation-timing-function:linear;animation-delay:-0.62766s;animation-iteration-count:infinite;animation-direction:normal;animation-fill-mode:forwards;animation-play-state:paused;animation-name:animate;animation-timeline:auto;animation-range-start:normal;animation-range-end:normal;transform-origin:50px 50px;;animation:none"><path fill="red" d="M54.5 74.9c-.2.2-.5.3-.7.5.2-.1.5-.3.7-.5z" style="stroke-width:1.6px;fill:rgb(236, 255, 0);;animation:none"></path></g></g>
<g class="ldl-layer"><g class="ldl-ani" style="transform-box:view-box;transform:matrix(1, 0, 0, 1, 0, 0);animation-duration:5s;animation-timing-function:linear;animation-delay:-0.638298s;animation-iteration-count:infinite;animation-direction:normal;animation-fill-mode:forwards;animation-play-state:paused;animation-name:animate;animation-timeline:auto;animation-range-start:normal;animation-range-end:normal;transform-origin:50px 50px;;animation:none"><path fill="red" d="M51.5 77.7c-.2.2-.3.4-.4.6.1-.2.3-.4.4-.6z" style="stroke-width:1.6px;fill:rgb(236, 255, 0);;animation:none"></path></g></g>
<g class="ldl-layer"><g class="ldl-ani" style="transform-box:view-box;transform:matrix(1, 0, 0, 1, 0, 0);animation-duration:5s;animation-timing-function:linear;animation-delay:-0.648936s;animation-iteration-count:infinite;animation-direction:normal;animation-fill-mode:forwards;animation-play-state:paused;animation-name:animate;animation-timeline:auto;animation-range-start:normal;animation-range-end:normal;transform-origin:50px 50px;;animation:none"><path fill="red" d="M52.2 77c-.2.2-.3.4-.5.6.1-.3.3-.5.5-.6z" style="stroke-width:1.6px;fill:rgb(236, 255, 0);;animation:none"></path></g></g>
<g class="ldl-layer"><g class="ldl-ani" style="transform-box:view-box;transform:matrix(1, 0, 0, 1, 0, 0);animation-duration:5s;animation-timing-function:linear;animation-delay:-0.659574s;animation-iteration-count:infinite;animation-direction:normal;animation-fill-mode:forwards;animation-play-state:paused;animation-name:animate;animation-timeline:auto;animation-range-start:normal;animation-range-end:normal;transform-origin:50px 50px;;animation:none"><path fill="red" d="M52.3 76.8l.6-.6-.6.6z" style="stroke-width:1.6px;fill:rgb(236, 255, 0);;animation:none"></path></g></g>
<g class="ldl-layer"><g class="ldl-ani" style="transform-box:view-box;transform:matrix(1, 0, 0, 1, 0, 0);animation-duration:5s;animation-timing-function:linear;animation-delay:-0.670213s;animation-iteration-count:infinite;animation-direction:normal;animation-fill-mode:forwards;animation-play-state:paused;animation-name:animate;animation-timeline:auto;animation-range-start:normal;animation-range-end:normal;transform-origin:50px 50px;;animation:none"><path fill="#f47e60" d="M54.5 74.9c-.2.2-.5.3-.7.5l-.2.2c-.2.1-.4.3-.5.5l-.2.2-.6.6-.1.1c-.2.2-.3.4-.5.6l-.2.2c-.2.2-.3.4-.4.6l-.1.1c-.2.2-.3.5-.5.7 0 .1-.1.1-.1.2l-.3.6c0 .1-.1.1-.1.2-.1.3-.2.5-.3.8-.1.3-.2.5-.3.8 0 .1 0 .1-.1.2-.1.2-.1.4-.1.6v.2c0 .3-.1.5-.1.8v.1c0 1.1.1 2.3.8 3.2.2.3.5.6.8.8.1.1.3.1.4.2.8.3 1.6.3 2.4.4.9.1 1.7.2 2.6.2 1.7.1 3.8-.1 5.6-.1.2 0 .1-17.2.1-17.2-2.6 1.1-5.1 2.2-7.3 3.7z" style="stroke-width:1.6px;fill:rgb(160, 0, 255);;animation:none"></path></g></g>
<g class="ldl-layer"><g class="ldl-ani" style="transform-box:view-box;transform:matrix(1, 0, 0, 1, 0, 0);animation-duration:5s;animation-timing-function:linear;animation-delay:-0.680851s;animation-iteration-count:infinite;animation-direction:normal;animation-fill-mode:forwards;animation-play-state:paused;animation-name:animate;animation-timeline:auto;animation-range-start:normal;animation-range-end:normal;transform-origin:50px 50px;;animation:none"><path fill="#d686a5" d="M49.1 83.5c0-.3 0-.5.1-.8v-.2c0-.2.1-.4.1-.6 0-.1 0-.1.1-.2.1-.3.2-.5.3-.8.1-.3.2-.5.3-.8 0-.1.1-.1.1-.2l.3-.6c0-.1.1-.1.1-.2.1-.2.3-.5.5-.7l.1-.1c.1-.2.3-.4.4-.6l.2-.2c.2-.2.3-.4.5-.6l.1-.1.6-.6.2-.2.5-.5.2-.2c.2-.2.5-.4.7-.5 2.2-1.5 4.7-2.6 7.2-3.8V50.7c-4.3.1-8.5.7-12.6 1.5v31.3z" style="stroke-width:1.6px;fill:rgb(236, 255, 0);;animation:none"></path></g></g>
<g class="ldl-layer"><g class="ldl-ani" style="transform-box:view-box;transform:matrix(1, 0, 0, 1, 0, 0);animation-duration:5s;animation-timing-function:linear;animation-delay:-0.691489s;animation-iteration-count:infinite;animation-direction:normal;animation-fill-mode:forwards;animation-play-state:paused;animation-name:animate;animation-timeline:auto;animation-range-start:normal;animation-range-end:normal;transform-origin:50px 50px;;animation:none"><path fill="red" d="M50.5 79.2c0 .1-.1.1-.1.2 0-.1.1-.2.1-.2z" style="stroke-width:1.6px;fill:rgb(236, 255, 0);;animation:none"></path></g></g>
<g class="ldl-layer"><g class="ldl-ani" style="transform-box:view-box;transform:matrix(1, 0, 0, 1, 0, 0);animation-duration:5s;animation-timing-function:linear;animation-delay:-0.702128s;animation-iteration-count:infinite;animation-direction:normal;animation-fill-mode:forwards;animation-play-state:paused;animation-name:animate;animation-timeline:auto;animation-range-start:normal;animation-range-end:normal;transform-origin:50px 50px;;animation:none"><path fill="red" d="M49.1 83.7v-.1.1z" style="stroke-width:1.6px;fill:rgb(236, 255, 0);;animation:none"></path></g></g>
<g class="ldl-layer"><g class="ldl-ani" style="transform-box:view-box;transform:matrix(1, 0, 0, 1, 0, 0);animation-duration:5s;animation-timing-function:linear;animation-delay:-0.712766s;animation-iteration-count:infinite;animation-direction:normal;animation-fill-mode:forwards;animation-play-state:paused;animation-name:animate;animation-timeline:auto;animation-range-start:normal;animation-range-end:normal;transform-origin:50px 50px;;animation:none"><path fill="red" d="M51.1 78.3l-.1.1s0-.1.1-.1z" style="stroke-width:1.6px;fill:rgb(236, 255, 0);;animation:none"></path></g></g>
<g class="ldl-layer"><g class="ldl-ani" style="transform-box:view-box;transform:matrix(1, 0, 0, 1, 0, 0);animation-duration:5s;animation-timing-function:linear;animation-delay:-0.723404s;animation-iteration-count:infinite;animation-direction:normal;animation-fill-mode:forwards;animation-play-state:paused;animation-name:animate;animation-timeline:auto;animation-range-start:normal;animation-range-end:normal;transform-origin:50px 50px;;animation:none"><path fill="red" d="M53.8 75.4l-.2.2c.1 0 .1-.1.2-.2z" style="stroke-width:1.6px;fill:rgb(236, 255, 0);;animation:none"></path></g></g>
<g class="ldl-layer"><g class="ldl-ani" style="transform-box:view-box;transform:matrix(1, 0, 0, 1, 0, 0);animation-duration:5s;animation-timing-function:linear;animation-delay:-0.734043s;animation-iteration-count:infinite;animation-direction:normal;animation-fill-mode:forwards;animation-play-state:paused;animation-name:animate;animation-timeline:auto;animation-range-start:normal;animation-range-end:normal;transform-origin:50px 50px;;animation:none"><path fill="red" d="M53.1 76.1l-.2.2c.1-.1.1-.2.2-.2z" style="stroke-width:1.6px;fill:rgb(236, 255, 0);;animation:none"></path></g></g>
<g class="ldl-layer"><g class="ldl-ani" style="transform-box:view-box;transform:matrix(1, 0, 0, 1, 0, 0);animation-duration:5s;animation-timing-function:linear;animation-delay:-0.744681s;animation-iteration-count:infinite;animation-direction:normal;animation-fill-mode:forwards;animation-play-state:paused;animation-name:animate;animation-timeline:auto;animation-range-start:normal;animation-range-end:normal;transform-origin:50px 50px;;animation:none"><path fill="red" d="M51.7 77.5l-.2.2c.1 0 .1-.1.2-.2z" style="stroke-width:1.6px;fill:rgb(236, 255, 0);;animation:none"></path></g></g>
<g class="ldl-layer"><g class="ldl-ani" style="transform-box:view-box;transform:matrix(1, 0, 0, 1, 0, 0);animation-duration:5s;animation-timing-function:linear;animation-delay:-0.755319s;animation-iteration-count:infinite;animation-direction:normal;animation-fill-mode:forwards;animation-play-state:paused;animation-name:animate;animation-timeline:auto;animation-range-start:normal;animation-range-end:normal;transform-origin:50px 50px;;animation:none"><path fill="red" d="M52.2 77l.1-.1c-.1 0-.1 0-.1.1z" style="stroke-width:1.6px;fill:rgb(236, 255, 0);;animation:none"></path></g></g>
<g class="ldl-layer"><g class="ldl-ani" style="transform-box:view-box;transform:matrix(1, 0, 0, 1, 0, 0);animation-duration:5s;animation-timing-function:linear;animation-delay:-0.765957s;animation-iteration-count:infinite;animation-direction:normal;animation-fill-mode:forwards;animation-play-state:paused;animation-name:animate;animation-timeline:auto;animation-range-start:normal;animation-range-end:normal;transform-origin:50px 50px;;animation:none"><path fill="red" d="M49.2 82.5v0z" style="stroke-width:1.6px;fill:rgb(236, 255, 0);;animation:none"></path></g></g>
<g class="ldl-layer"><g class="ldl-ani" style="transform-box:view-box;transform:matrix(1, 0, 0, 1, 0, 0);animation-duration:5s;animation-timing-function:linear;animation-delay:-0.776596s;animation-iteration-count:infinite;animation-direction:normal;animation-fill-mode:forwards;animation-play-state:paused;animation-name:animate;animation-timeline:auto;animation-range-start:normal;animation-range-end:normal;transform-origin:50px 50px;;animation:none"><path fill="red" d="M50.1 79.9c0 .1-.1.1-.1.2 0 0 0-.1.1-.2z" style="stroke-width:1.6px;fill:rgb(236, 255, 0);;animation:none"></path></g></g>
<g class="ldl-layer"><g class="ldl-ani" style="transform-box:view-box;transform:matrix(1, 0, 0, 1, 0, 0);animation-duration:5s;animation-timing-function:linear;animation-delay:-0.787234s;animation-iteration-count:infinite;animation-direction:normal;animation-fill-mode:forwards;animation-play-state:paused;animation-name:animate;animation-timeline:auto;animation-range-start:normal;animation-range-end:normal;transform-origin:50px 50px;;animation:none"><path fill="red" d="M49.4 81.7c0 .1 0 .1-.1.2 0 0 .1-.1.1-.2z" style="stroke-width:1.6px;fill:rgb(236, 255, 0);;animation:none"></path></g></g>
<g class="ldl-layer"><g class="ldl-ani" style="transform-box:view-box;transform:matrix(1, 0, 0, 1, 0, 0);animation-duration:5s;animation-timing-function:linear;animation-delay:-0.797872s;animation-iteration-count:infinite;animation-direction:normal;animation-fill-mode:forwards;animation-play-state:paused;animation-name:animate;animation-timeline:auto;animation-range-start:normal;animation-range-end:normal;transform-origin:50px 50px;;animation:none"><path fill="red" d="M49.6 80.9z" style="stroke-width:1.6px;fill:rgb(236, 255, 0);;animation:none"></path></g></g>
<g class="ldl-layer"><g class="ldl-ani" style="transform-box:view-box;transform:matrix(1, 0, 0, 1, 0, 0);animation-duration:5s;animation-timing-function:linear;animation-delay:-0.808511s;animation-iteration-count:infinite;animation-direction:normal;animation-fill-mode:forwards;animation-play-state:paused;animation-name:animate;animation-timeline:auto;animation-range-start:normal;animation-range-end:normal;transform-origin:50px 50px;;animation:none"><path fill="#afa5cd" d="M61.7 50.7v20.5c2.5-1.1 5-2.2 7.2-3.7 2.6-1.7 4.7-4.4 5.5-7.1.1-.3.2-.6.2-.9.1-.8.1-1.6 0-2.4-.2-.9-.5-1.7-1.1-2.5-2.4-3.3-7.4-4-11.8-3.9z" style="stroke-width:1.6px;fill:rgb(255, 0, 0);;animation:none"></path></g></g>
<g class="ldl-layer"><g class="ldl-ani" style="transform-box:view-box;transform:matrix(1, 0, 0, 1, 0, 0);animation-duration:5s;animation-timing-function:linear;animation-delay:-0.819149s;animation-iteration-count:infinite;animation-direction:normal;animation-fill-mode:forwards;animation-play-state:paused;animation-name:animate;animation-timeline:auto;animation-range-start:normal;animation-range-end:normal;transform-origin:50px 50px;;animation:none"><path fill="none" opacity=".5" d="M74.6 22.8v2.4c.1-.8.1-1.6 0-2.4z" style="stroke-width:1.6px;fill:none;opacity:0.5;;animation:none"></path></g></g>
<g class="ldl-layer"><g class="ldl-ani" style="transform-box:view-box;transform:matrix(1, 0, 0, 1, 0, 0);animation-duration:5s;animation-timing-function:linear;animation-delay:-0.829787s;animation-iteration-count:infinite;animation-direction:normal;animation-fill-mode:forwards;animation-play-state:paused;animation-name:animate;animation-timeline:auto;animation-range-start:normal;animation-range-end:normal;transform-origin:50px 50px;;animation:none"><path fill="none" d="M74.6 17.8v2.4c.1-.9.1-1.7 0-2.4z" style="stroke-width:1.6px;fill:none;;animation:none"></path></g></g>
<g class="ldl-layer"><g class="ldl-ani" style="transform-box:view-box;transform:matrix(1, 0, 0, 1, 0, 0);animation-duration:5s;animation-timing-function:linear;animation-delay:-0.840426s;animation-iteration-count:infinite;animation-direction:normal;animation-fill-mode:forwards;animation-play-state:paused;animation-name:animate;animation-timeline:auto;animation-range-start:normal;animation-range-end:normal;transform-origin:50px 50px;;animation:none"><path fill="#abbd81" opacity=".2" d="M25.3 23.1v-5c-5.1.8-10.2 1.2-15.3.6v5c5.2.6 10.2.2 15.3-.6z" style="stroke-width:1.6px;fill:rgb(255, 0, 0);opacity:0.2;;animation:none"></path></g></g>
<g class="ldl-layer"><g class="ldl-ani" style="transform-box:view-box;transform:matrix(1, 0, 0, 1, 0, 0);animation-duration:5s;animation-timing-function:linear;animation-delay:-0.851064s;animation-iteration-count:infinite;animation-direction:normal;animation-fill-mode:forwards;animation-play-state:paused;animation-name:animate;animation-timeline:auto;animation-range-start:normal;animation-range-end:normal;transform-origin:50px 50px;;animation:none"><path fill="#849b87" opacity=".2" d="M43.5 19.1v-5c-6.1 1.4-12.1 3-18.2 4v5c6.1-1 12.1-2.6 18.2-4z" style="stroke-width:1.6px;fill:rgb(91, 255, 0);opacity:0.2;;animation:none"></path></g></g>
<g class="ldl-layer"><g class="ldl-ani" style="transform-box:view-box;transform:matrix(1, 0, 0, 1, 0, 0);animation-duration:5s;animation-timing-function:linear;animation-delay:-0.861702s;animation-iteration-count:infinite;animation-direction:normal;animation-fill-mode:forwards;animation-play-state:paused;animation-name:animate;animation-timeline:auto;animation-range-start:normal;animation-range-end:normal;transform-origin:50px 50px;;animation:none"><path fill="#a0c8d7" opacity=".2" d="M61.7 16.4v-5c-6.1.2-12.2 1.3-18.2 2.7v5c6-1.4 12.1-2.6 18.2-2.7z" style="stroke-width:1.6px;fill:rgb(0, 255, 213);opacity:0.2;;animation:none"></path></g></g>
<g class="ldl-layer"><g class="ldl-ani" style="transform-box:view-box;transform:matrix(1, 0, 0, 1, 0, 0);animation-duration:5s;animation-timing-function:linear;animation-delay:-0.87234s;animation-iteration-count:infinite;animation-direction:normal;animation-fill-mode:forwards;animation-play-state:paused;animation-name:animate;animation-timeline:auto;animation-range-start:normal;animation-range-end:normal;transform-origin:50px 50px;;animation:none"><path fill="#77a4bd" opacity=".2" d="M73.5 15.3c-2.2-3.1-6.8-4-11-4h-.8v5h.8c4.2 0 8.8.9 11 4 .6.8.9 1.6 1.1 2.5v-5.1c-.2-.8-.5-1.6-1.1-2.4z" style="stroke-width:1.6px;fill:rgb(255, 0, 251);opacity:0.2;;animation:none"></path></g></g>
<g class="ldl-layer"><g class="ldl-ani" style="transform-box:view-box;transform:matrix(1, 0, 0, 1, 0, 0);animation-duration:5s;animation-timing-function:linear;animation-delay:-0.882979s;animation-iteration-count:infinite;animation-direction:normal;animation-fill-mode:forwards;animation-play-state:paused;animation-name:animate;animation-timeline:auto;animation-range-start:normal;animation-range-end:normal;transform-origin:50px 50px;;animation:none"><path fill="#abbd81" opacity=".5" d="M25.3 28.1v-5c-5.1.8-10.2 1.2-15.3.6v5c5.2.6 10.2.2 15.3-.6z" style="stroke-width:1.6px;fill:rgb(255, 0, 0);opacity:0.5;;animation:none"></path></g></g>
<g class="ldl-layer"><g class="ldl-ani" style="transform-box:view-box;transform:matrix(1, 0, 0, 1, 0, 0);animation-duration:5s;animation-timing-function:linear;animation-delay:-0.893617s;animation-iteration-count:infinite;animation-direction:normal;animation-fill-mode:forwards;animation-play-state:paused;animation-name:animate;animation-timeline:auto;animation-range-start:normal;animation-range-end:normal;transform-origin:50px 50px;;animation:none"><path fill="#849b87" opacity=".5" d="M25.3 23.1v5c6.1-1 12.1-2.6 18.2-4v-5c-6.1 1.4-12.1 3-18.2 4z" style="stroke-width:1.6px;fill:rgb(91, 255, 0);opacity:0.5;;animation:none"></path></g></g>
<g class="ldl-layer"><g class="ldl-ani" style="transform-box:view-box;transform:matrix(1, 0, 0, 1, 0, 0);animation-duration:5s;animation-timing-function:linear;animation-delay:-0.904255s;animation-iteration-count:infinite;animation-direction:normal;animation-fill-mode:forwards;animation-play-state:paused;animation-name:animate;animation-timeline:auto;animation-range-start:normal;animation-range-end:normal;transform-origin:50px 50px;;animation:none"><path fill="#a0c8d7" opacity=".5" d="M43.5 19.1v5c6-1.4 12-2.6 18.2-2.7v-5c-6.1.1-12.2 1.3-18.2 2.7z" style="stroke-width:1.6px;fill:rgb(0, 255, 213);opacity:0.5;;animation:none"></path></g></g>
<g class="ldl-layer"><g class="ldl-ani" style="transform-box:view-box;transform:matrix(1, 0, 0, 1, 0, 0);animation-duration:5s;animation-timing-function:linear;animation-delay:-0.914894s;animation-iteration-count:infinite;animation-direction:normal;animation-fill-mode:forwards;animation-play-state:paused;animation-name:animate;animation-timeline:auto;animation-range-start:normal;animation-range-end:normal;transform-origin:50px 50px;;animation:none"><path fill="#77a4bd" opacity=".5" d="M62.5 16.4h-.8v5h.8c4.2 0 8.8.9 11 4 .6.8.9 1.6 1.1 2.5v-5.1c-.2-.9-.5-1.7-1.1-2.5-2.2-3.1-6.8-3.9-11-3.9z" style="stroke-width:1.6px;fill:rgb(255, 0, 251);opacity:0.5;;animation:none"></path></g></g>
<g class="ldl-layer"><g class="ldl-ani" style="transform-box:view-box;transform:matrix(1, 0, 0, 1, 0, 0);animation-duration:5s;animation-timing-function:linear;animation-delay:-0.925532s;animation-iteration-count:infinite;animation-direction:normal;animation-fill-mode:forwards;animation-play-state:paused;animation-name:animate;animation-timeline:auto;animation-range-start:normal;animation-range-end:normal;transform-origin:50px 50px;;animation:none"><path fill="none" d="M74.6 30.2c.1-.8.1-1.6 0-2.4v2.4z" style="stroke-width:1.6px;fill:none;;animation:none"></path></g></g>
<g class="ldl-layer"><g class="ldl-ani" style="transform-box:view-box;transform:matrix(1, 0, 0, 1, 0, 0);animation-duration:5s;animation-timing-function:linear;animation-delay:-0.93617s;animation-iteration-count:infinite;animation-direction:normal;animation-fill-mode:forwards;animation-play-state:paused;animation-name:animate;animation-timeline:auto;animation-range-start:normal;animation-range-end:normal;transform-origin:50px 50px;;animation:none"><path fill="#abbd81" d="M25.3 57.4V28.1c-5.1.8-10.2 1.2-15.3.6V58c5.2.6 10.2.2 15.3-.6z" style="stroke-width:1.6px;fill:rgb(255, 0, 0);;animation:none"></path></g></g>
<g class="ldl-layer"><g class="ldl-ani" style="transform-box:view-box;transform:matrix(1, 0, 0, 1, 0, 0);animation-duration:5s;animation-timing-function:linear;animation-delay:-0.946809s;animation-iteration-count:infinite;animation-direction:normal;animation-fill-mode:forwards;animation-play-state:paused;animation-name:animate;animation-timeline:auto;animation-range-start:normal;animation-range-end:normal;transform-origin:50px 50px;;animation:none"><path fill="#849b87" d="M25.3 28.1v29.2c6.1-1 12.1-2.6 18.2-4V24.1c-6.1 1.4-12.1 3-18.2 4z" style="stroke-width:1.6px;fill:rgb(91, 255, 0);;animation:none"></path></g></g>
<g class="ldl-layer"><g class="ldl-ani" style="transform-box:view-box;transform:matrix(1, 0, 0, 1, 0, 0);animation-duration:5s;animation-timing-function:linear;animation-delay:-0.957447s;animation-iteration-count:infinite;animation-direction:normal;animation-fill-mode:forwards;animation-play-state:paused;animation-name:animate;animation-timeline:auto;animation-range-start:normal;animation-range-end:normal;transform-origin:50px 50px;;animation:none"><path fill="#a0c8d7" d="M43.5 24.1v29.2c1.8-.4 3.7-.8 5.5-1.2 4.2-.8 8.4-1.4 12.6-1.5V21.4c-6 .2-12.1 1.3-18.1 2.7z" style="stroke-width:1.6px;fill:rgb(0, 255, 213);;animation:none"></path></g></g>
<g class="ldl-layer"><g class="ldl-ani" style="transform-box:view-box;transform:matrix(1, 0, 0, 1, 0, 0);animation-duration:5s;animation-timing-function:linear;animation-delay:-0.968085s;animation-iteration-count:infinite;animation-direction:normal;animation-fill-mode:forwards;animation-play-state:paused;animation-name:animate;animation-timeline:auto;animation-range-start:normal;animation-range-end:normal;transform-origin:50px 50px;;animation:none"><path fill="#77a4bd" d="M73.5 25.4c-2.2-3.1-6.8-4-11-4h-.8v29.2c4.4-.1 9.4.6 11.8 3.9.6.8.9 1.6 1.1 2.5V27.8c-.2-.8-.5-1.7-1.1-2.4z" style="stroke-width:1.6px;fill:rgb(255, 0, 251);;animation:none"></path></g></g>
<g class="ldl-layer"><g class="ldl-ani" style="transform-box:view-box;transform:matrix(1, 0, 0, 1, 0, 0);animation-duration:5s;animation-timing-function:linear;animation-delay:-0.978723s;animation-iteration-count:infinite;animation-direction:normal;animation-fill-mode:forwards;animation-play-state:paused;animation-name:animate;animation-timeline:auto;animation-range-start:normal;animation-range-end:normal;transform-origin:50px 50px;;animation:none"><path fill="#f8b26a" d="M74.6 58.6v.9c0-.3.1-.6 0-.9z" style="stroke-width:1.6px;fill:rgb(64, 0, 255);;animation:none"></path></g></g>
<g class="ldl-layer"><g class="ldl-ani" style="transform-box:view-box;transform:matrix(1, 0, 0, 1, 0, 0);animation-duration:5s;animation-timing-function:linear;animation-delay:-0.989362s;animation-iteration-count:infinite;animation-direction:normal;animation-fill-mode:forwards;animation-play-state:paused;animation-name:animate;animation-timeline:auto;animation-range-start:normal;animation-range-end:normal;transform-origin:50px 50px;;animation:none"><path fill="#f8b26a" d="M74.5 58.5c0 .3 0 .6-.1.9 0 .3-.1.6-.2.9-.8 2.7-2.9 5.3-5.4 7-2.2 1.5-4.7 2.6-7.1 3.7v17.4c4.3 0 8.6-.2 12.8-.8.3 0 .5-.1.8-.1 1.5-.2 3-.5 4.5-.8v-29c-1.9.2-3.6.6-5.3.8z" style="stroke-width:1.6px;fill:rgb(64, 0, 255);;animation:none"></path></g></g>
<g class="ldl-layer"><g class="ldl-ani" style="transform-box:view-box;transform:matrix(1, 0, 0, 1, 0, 0);animation-duration:5s;animation-timing-function:linear;animation-delay:-1s;animation-iteration-count:infinite;animation-direction:normal;animation-fill-mode:forwards;animation-play-state:paused;animation-name:animate;animation-timeline:auto;animation-range-start:normal;animation-range-end:normal;transform-origin:50px 50px;;animation:none"><path fill="#abbd81" d="M79.6 86.6c3.4-.7 6.8-1.6 10-2.7v-29c-3.3 1.1-6.6 2-10 2.7v29z" style="stroke-width:1.6px;fill:rgb(255, 0, 0);;animation:none"></path></g></g>
<metadata xmlns:d="https://loading.io/stock/"></metadata></g></g>
<STYLE type="text/css">@keyframes animate { 0.00% {animation-timing-function: cubic-bezier(0.33,0.00,0.67,0.00);transform: translate(0.00px,0.00px) rotate(0.00deg) scale(1.00, 1.00) skew(0deg, 0.00deg) ;opacity: 1.00;}50.00% {animation-timing-function: cubic-bezier(0.33,0.00,0.67,0.00);transform: translate(0.00px,0.00px) rotate(0.00deg) ;}100.00% {animation-timing-function: cubic-bezier(0.33,0.00,0.67,0.00);transform: translate(0.00px,0.00px) rotate(0.00deg) ;} }</STYLE><!-- [ldio] generated by https://loading.io --></svg>