<svg xmlns="http://www.w3.org/2000/svg" width="96px" height="96px" viewBox="0 0 960 960">
  <defs>
    <clipPath id="disc"><circle cx="480" cy="480" r="452"/></clipPath>
    <linearGradient id="creamG" x1="0" y1="430" x2="0" y2="930" gradientUnits="userSpaceOnUse"><stop offset="0" stop-color="#F6EEDA"/><stop offset="1" stop-color="#E7D9B8"/></linearGradient>
    <radialGradient id="layerGold" cx="250" cy="715" r="405" gradientUnits="userSpaceOnUse"><stop offset=".3" stop-color="#FFE07A"/><stop offset=".62" stop-color="#FFC400"/><stop offset="1" stop-color="#E39B00"/></radialGradient>
  </defs>
  <circle cx="480" cy="480" r="452" fill="#A6C7EA"/>
  <path d="M18,352 C235,300 362,445 480,458 C598,471 728,626 942,606 L942,1010 L18,1010 Z" fill="url(#creamG)" clip-path="url(#disc)"/>
  <path d="M18,352 C235,300 362,445 480,458 C598,471 728,626 942,606" fill="none" stroke="#16295F" stroke-width="3" opacity=".3" clip-path="url(#disc)"/>
  <path d="M655,715 A405,405 0 0 0 250,310 L250,555 A160,160 0 0 1 410,715 Z" fill="url(#layerGold)"/>
  <path d="M540,715 A290,290 0 0 0 250,425" fill="none" stroke="#FBF3DE" stroke-opacity=".9" stroke-width="13"/>
  <g fill="none" stroke="#FBF3DE" stroke-opacity=".9" stroke-width="13" stroke-linecap="round">
    <line x1="385.7" y1="630.2" x2="593.4" y2="500.3"/>
    <line x1="330.0" y1="576.4" x2="452.5" y2="364.3"/>
  </g>
  <g fill="none" stroke="#16295F" stroke-opacity=".3" stroke-width="12" stroke-linecap="round">
    <path d="M250,715 L640,430"/><path d="M250,715 L520,250"/><path d="M250,715 L612,440"/><path d="M250,715 L505,320"/>
  </g>
  <g fill="none" stroke="#16295F" stroke-width="17" stroke-linecap="round">
    <path d="M250,715 L581,470"/><path d="M250,715 L570,201"/><path d="M250,715 L648,308"/><path d="M250,715 L486,336"/><path d="M250,715 L545,380"/>
  </g>
  <g fill="#FFFFFF" stroke="#16295F" stroke-width="4" stroke-linejoin="round">
    <g transform="translate(581,470) scale(1.42)"><path d="M0,-50 L11.76,-16.18 L47.55,-15.45 L19.02,6.18 L29.39,40.45 L0,20 L-29.39,40.45 L-19.02,6.18 L-47.55,-15.45 L-11.76,-16.18 Z"/></g>
    <g transform="translate(570,201) scale(1.15)"><path d="M0,-50 L11.76,-16.18 L47.55,-15.45 L19.02,6.18 L29.39,40.45 L0,20 L-29.39,40.45 L-19.02,6.18 L-47.55,-15.45 L-11.76,-16.18 Z"/></g>
    <g transform="translate(648,308) scale(1.05)"><path d="M0,-50 L11.76,-16.18 L47.55,-15.45 L19.02,6.18 L29.39,40.45 L0,20 L-29.39,40.45 L-19.02,6.18 L-47.55,-15.45 L-11.76,-16.18 Z"/></g>
    <g transform="translate(486,336) scale(1.0)"><path d="M0,-50 L11.76,-16.18 L47.55,-15.45 L19.02,6.18 L29.39,40.45 L0,20 L-29.39,40.45 L-19.02,6.18 L-47.55,-15.45 L-11.76,-16.18 Z"/></g>
    <g transform="translate(545,380) scale(0.62)"><path d="M0,-50 L11.76,-16.18 L47.55,-15.45 L19.02,6.18 L29.39,40.45 L0,20 L-29.39,40.45 L-19.02,6.18 L-47.55,-15.45 L-11.76,-16.18 Z"/></g>
  </g>
  <circle cx="250" cy="715" r="28" fill="#16295F"/><circle cx="250" cy="715" r="14" fill="#FFFFFF"/>
  <circle cx="480" cy="480" r="452" fill="none" stroke="#16295F" stroke-width="7" opacity=".85"/>
</svg>
