<svg version="1.1" id="Layer_1" xmlns="http://www.w3.org/2000/svg" xmlns:xlink="http://www.w3.org/1999/xlink" x="0px" y="0px" viewBox="0 0 100 100" enable-background="new 0 0 100 100" xml:space="preserve">
<g>
	<path d="M75.1,88.6L75.1,88.6L75,88.5C75,88.5,75,88.6,75.1,88.6z" id="id_123"></path>
	<polygon points="85.4,14.1 85.3,14 85.4,14.1 	" id="id_124" style="fill: rgb(139, 0, 0);"></polygon>
	<polygon points="30.1,6.5 30.1,6.5 30.1,6.5 	" id="id_125" style="fill: rgb(139, 0, 0);"></polygon>
	<polygon points="77.8,9.7 77.8,9.7 77.8,9.7 	" id="id_126" style="fill: rgb(139, 0, 0);"></polygon>
	<path d="M81.7,72.8L81.7,72.8L81.7,72.8L81.7,72.8L81.7,72.8c0.1,0.1,0.2,0.2,0.3,0.2c0,0,0,0-0.1,0C81.9,73,81.8,72.9,81.7,72.8
		C81.8,72.8,81.7,72.8,81.7,72.8z" id="id_127"></path>
	<path d="M24.7,88c0,0.1,0,0.1,0,0.2L24.7,88z" id="id_128"></path>
	<path d="M17.7,72.3c-0.2,0-0.3,0-0.5,0C17.4,72.3,17.5,72.3,17.7,72.3z" id="id_129"></path>
	<path d="M82,72.5c-0.1,0-0.2,0-0.3,0C81.8,72.5,81.9,72.5,82,72.5z" id="id_130"></path>
	<path d="M82.7,72.8c-0.1,0-0.3,0-0.4,0C82.5,72.8,82.6,72.8,82.7,72.8z" id="id_131" style="fill: rgb(139, 0, 0);"></path>
	<path d="M24.9,87.7c0,0.1-0.1,0.2-0.1,0.3L24.9,87.7z" id="id_132"></path>
	<path d="M59.5,50.9C59.5,50.9,59.5,51,59.5,50.9C59.5,51,59.5,50.9,59.5,50.9z" id="id_133" style="fill: rgb(139, 0, 0);"></path>
	<path d="M14.8,41.2c0-0.2,0-0.5,0-0.7c0,0,0,0,0,0c0,0,0-0.1,0-0.1c0-0.1,0-0.2,0-0.4c0,0.2,0,0.5,0,0.7c0,0.2,0,0.5,0,0.8
		c0,0.3,0,0.9,0,1.4c0-0.1,0-0.1,0-0.2c0-0.2,0-0.4,0-0.5C14.8,41.6,14.8,41.4,14.8,41.2z" id="id_134"></path>
	<path d="M33.7,36.9c-0.1,0.4-0.1,0.9-0.2,1.3C33.6,37.8,33.6,37.3,33.7,36.9C33.7,36.9,33.7,36.9,33.7,36.9z" id="id_135"></path>
	<path d="M18.5,72.7C18.5,72.7,18.5,72.7,18.5,72.7c-0.1,0-0.2,0.1-0.2,0.1s0,0-0.1,0.1c0.1,0,0.1,0,0.2,0
		C18.6,72.7,18.7,72.7,18.5,72.7z" id="id_136"></path>
	<path d="M18,34.7c0,0.1,0,0.2,0,0.3C18,34.8,18,34.8,18,34.7z" id="id_137" style="fill: rgb(97, 33, 31);"></path>
	<path d="M21.6,36.9c0,0,0,0.1,0,0.1C21.6,37,21.6,37,21.6,36.9z" id="id_138" style="fill: rgb(139, 0, 0);"></path>
	<path d="M18.1,36.1c0-0.3,0-0.7-0.1-1c0,0.1,0,0.3,0,0.4c0,0.3,0,0.7,0.1,1.1c0,0.4,0.1,0.8,0.2,1.5c0,0.3,0.1,0.6,0.2,1
		c0-0.1,0-0.2,0-0.3c-0.2-0.9-0.2-1.2-0.3-1.6C18.2,36.8,18.2,36.4,18.1,36.1z" id="id_139"></path>
	<path d="M18,35C18,35,18,35.1,18,35c0,0,0-0.1,0-0.1C18,35,18,35,18,35z" id="id_140"></path>
	<path d="M89.7,82.1l-1-0.9l3.7,0.7c1.3,1.1,2.4,1.8,3.2,2.2l-2-1.5c0.5,0.2,1,0.3,1.5,0.3c-1.3-0.4-1.9-0.7-1.8-0.7l2.4,0.5
		c0.1-0.5,0.3-0.5,0.3-0.6l-2.6-0.9l-0.7-0.6c0.1-0.1,1.1,0,3,0.2c-0.7-0.1-1.3-0.2-1.7-0.4c0.8,0,1.2-0.1,1.3-0.2
		c-1.6,0.1-2.5,0.1-2.7,0c-0.8-0.4-1.9-0.9-3.4-1.5c0.5-0.2,1.5-0.2,2.7-0.1c0.8,0.4,1.7,0.7,2.5,0.8l-2-0.8l2.6,0.1l-4.8-0.5
		c-1.2,0.1-1.9,0.1-2,0.1c-1.2-0.2-2.5-0.7-3.8-1.5l1.6-0.2c1.6,0.5,3.3,0.7,5.1,0.7c0.1,0,0.1,0-0.1-0.1l-2.5-0.4l-0.9-0.4l2.4-0.1
		l4.6,1.3c-0.4-0.3-1.3-0.7-2.6-0.9l-0.7-0.5l2.7,0c0.3,0,0.4,0,0.2-0.1l-4.9-0.6L85,74.1c-2.1,0-3.8-0.1-5.3-0.5l4.2,0.2
		c-1.2-0.3-1.9-0.4-2.2-0.4c-0.4-0.2-0.4-0.3,0.2-0.2l-1.6-0.4c0.1-0.1,0.8-0.1,2.1,0c-1-0.1-1.2-0.2-0.7-0.3
		c-1.1,0.1-3.6-0.1-7.7-0.5l-2.8-0.6c0.4-0.1,0.9,0,1.6,0.2c-0.8-0.3-0.6-0.3,0.5-0.1c-0.5-0.2-1.1-0.3-1.8-0.3l0.8-0.1l1.6,0.4
		c-0.8-0.2-0.6-0.3,0.5-0.2c-0.9-0.1-1.4-0.2-1.5-0.3c1.1-0.2,1.6-0.3,1.4-0.3c-0.5-0.1-1.4-0.2-2.5-0.3c-1.9,0.2-3.2,0.2-4,0.1
		l-1.6-0.4l-1.2-4.3l-2.6-3.5c-0.3-2.8-1.3-5.3-3-7.5c-0.1-0.2-0.3-0.4-0.4-0.5l0-0.1c0-0.1-0.1-0.2-0.1-0.4c-0.2-0.7-0.2-1.3,0-1.8
		c0.1-0.4,0.3-0.8,0.5-1c0,0,0,0,0,0l0.1-0.1l0.3-0.3c0.1,0.6,0.2,1.2,0.2,1.6c0,0.5,0.5,0.5,0.5,0.1c0,0,0.1-0.6,0.1-1.2
		c0-0.5,0-0.9,0-1.3l0.3-0.2c0.2-0.1,0.3-0.2,0.5-0.3c0.2-0.1,0.3-0.2,0.4-0.2c0,0.1,0,0.2,0.1,0.3c0.1,0.3,0.1,0.6,0.2,0.9
		c0,0.3,0.1,0.5,0.1,0.8c0,0.2,0,0.5,0,0.7c0,0.2,0,0.3,0,0.5c0,0.2,0,0.4,0,0.6s0,0.4-0.1,1.6c0,1.2,0.5,1.3,0.5,0.5
		c0,0,0.3-1.6,0.3-1.8c0-0.2,0-0.4,0-0.6c0-0.2,0-0.4-0.1-0.5c0-0.2,0-0.3-0.1-0.6c0-0.2-0.1-0.5-0.2-0.8c-0.1-0.3-0.1-0.5-0.2-0.9
		c0-0.2-0.1-0.4-0.2-0.7h0c0.4-0.2,1-0.4,1.6-0.7c0.1,0.4,0.2,0.9,0.3,1.4c0.1,0.6,0.3,1.3,0.4,1.9c0,0.3,0,0.6-0.1,0.9
		c0,0.3-0.1,0.7-0.1,0.9c0,0.2,0,0.4-0.1,0.8c0,0.3-0.1,0.8-0.3,1.4c-0.1,0.6-0.3,1.4-0.4,1.9c-0.1,0.5-0.2,0.7-0.2,0.9
		c0,0.2-0.1,0.4-0.1,0.6c0,0.2-0.1,0.4-0.1,0.7c0,0.3-0.1,0.8,0,1.2c0,0.4,0.1,0.7,0.2,1c0.1,0.3,0.2,0.5,0.2,0.7
		c0,0.2,0.5,0,0.5-0.1c0,0,0-0.2,0-0.4c0-0.2,0-0.5,0-0.9c0-0.3,0.1-0.7,0.1-1.2c0-0.4,0-0.7,0-0.8c0-0.2,0-0.4,0-0.6
		c0-0.2,0-0.4,0-0.6c0-0.2,0.1-1,0.2-1.7c0.1-0.7,0.2-1.3,0.3-1.7c0.1-0.5,0.1-0.7,0.1-0.9c0-0.2,0-0.5,0.1-0.8c0-0.2,0-0.3,0-0.5
		c0.1,0.4,0.2,0.7,0.2,1.1c0.1,0.4,0.1,0.7,0.2,0.9c0,0.2,0,0.3,0,0.4c0,0.1,0,0.1,0.1,0.2c0,0.1,0,0.2,0,0.3c0,0.3,0.1,0.7,0.1,0.9
		c0,0.3,0,0.5,0.1,1c0,0.5,0.1,1.2,0,2.1c0,0.8-0.1,1.6-0.2,2.5s0,1.8,0,2.6c0,0.7,0.5,0.8,0.5,0.3c0,0,0.2-0.9,0.3-1.9
		c0.1-0.9,0-1.8,0-2.7c-0.1-0.8-0.1-1.6-0.2-2.4c-0.1-0.7-0.1-1-0.2-1.3s-0.1-0.6-0.1-0.9c0-0.2-0.1-0.4-0.1-0.6c0,0,0.1,0,0.1,0
		c0,0,0.1-0.2,0.3-0.6c0.2-0.4,0.4-1,0.6-1.9c0.2-0.9,0.5-2,0.8-3.3c0,0.2,0,0.3,0,0.5c0,0.2,0.1,0.6,0.1,0.9c0,0.4,0.1,0.7,0.1,1.1
		s0,0.7,0,1.2c0,0.5,0,0.9,0,1.4s0,0.9-0.1,1.2c0,0.4-0.1,0.7-0.1,1.1c0,0.3-0.1,0.7-0.2,1c-0.1,0.4-0.1,0.8-0.1,1.2
		c0,0.4,0,0.9-0.1,1.2c0,0.4,0.4,0.5,0.5,0.2c0,0,0.2-0.5,0.3-0.9c0.2-0.5,0.3-0.9,0.3-1.2c0-0.4,0.1-0.8,0-1.2c0-0.4,0-0.7,0-1.1
		c0-0.4,0-0.8,0-1.2c0-0.4,0-0.9-0.1-1.4c0-0.5-0.1-0.9-0.1-1.2c0-0.4-0.1-0.7-0.1-1.1c0-0.4-0.1-0.7-0.1-1.1c0-0.4,0-0.5-0.1-0.7
		c0-0.1,0-0.2-0.1-0.4c0.3-0.9,0.3-1.2,0.4-1.5c0.1-0.3,0.1-0.7,0.2-1c0-0.3,0.1-0.7,0.1-1c0-0.3,0-0.5,0-0.8c0-0.3,0-0.6,0-0.9
		c0-0.4,0-0.7-0.1-1.2c0-0.4-0.3-2.2-0.5-3.7c-0.2-1.5-0.3-2.8-0.5-3.8c-0.1-1-0.2-1.8-0.2-2.2c0-0.1,0-0.1,0-0.2
		c0.5-0.3,1.2-0.6,2-1c-0.1,0,0.1-0.1,0.5-0.3c0,0.5,0.1,1,0.1,1.3c0,0.5,0,0.8,0.1,0.9c0,0.1,0,0.4,0.1,0.8c0,0,0,0.1,0,0.2
		c0,0.7,0,1.2,0,1.8c0,0.6,0,1.2,0.1,1.9c0,0.6,0.1,1.2,0.2,1.7c0.1,0.5,0.1,0.8,0.2,1.2c0,0.4,0.1,0.7,0.2,1c0,0.2,0.1,0.5,0.2,1.1
		c0,0.6,0.1,1.3,0.1,2c0,1,0.1,1.9,0.1,2.6c0,0.8,0,1.4,0,2.3c0,0.8,0,1.9-0.2,2.9c-0.1,1-0.3,2-0.4,2.9c-0.2,0.9-0.2,1.8-0.3,2.4
		c-0.1,0.6,0.4,0.7,0.5,0.3c0,0,0.3-0.8,0.5-1.7c0.2-0.9,0.2-1.9,0.2-2.8c0-1,0-2,0-3.1c0-1.1,0-1.6,0-2.3c0-0.7,0-1.5-0.1-2.4
		c0-0.5,0-1.1-0.1-1.7c0.4,1.7,1,4.8,1.1,5.2c0.1,0.5,0.3,1,0.5,1.6s0.5,1.4,0.8,2.3c0.3,0.9,0.6,1.9,0.7,2.1
		c0.1,0.2,0.1,0.5,0.2,0.7c0,0.2,0.1,0.4,0.1,0.6c0,0.2,0.1,0.4,0.1,0.9s0.1,1,0,1.6c0,0.6,0,1.2,0.1,1.7c0.1,0.5,0.6,0.5,0.6,0.2
		c0,0,0.3-0.7,0.2-1.3c-0.1-0.6-0.2-1.2-0.3-1.7c-0.1-0.5-0.2-1-0.3-1.2c0-0.2-0.1-0.4-0.2-0.6c-0.1-0.2-0.1-0.4-0.2-0.7
		c-0.1-0.2-0.2-0.5-0.5-1.3c0.2,0.1,0.4,0,0.4-0.2c0,0,0.2-0.7,0.1-1.4c-0.1-0.7-0.1-1.4,0-2c0.1-0.7,0.2-1.3,0.3-1.6
		c0.1-0.3,0.2-0.7,0.4-1.3c0.2-0.6,0.5-1.4,0.8-2.3c0.3-0.7,0.6-1.5,1.3-3c0,0.2,0,0.3,0,0.5c0,0.2,0,0.5,0,0.8c0,0.2,0,0.5,0,0.8
		c0,0.3,0,0.6-0.1,0.9c0,0.3-0.1,0.7-0.1,1c0,0.3-0.1,0.7-0.3,1.2c-0.1,0.5-0.3,1.2-0.5,1.9c-0.2,0.7-0.4,1.3-0.5,1.9
		C75,52,75,52.7,74.9,53.1c-0.1,0.5,0.4,0.6,0.5,0.3c0,0,0.3-0.6,0.5-1.2c0.2-0.6,0.4-1.2,0.5-1.9c0.1-0.7,0.2-1.4,0.3-2.1
		c0.1-0.7,0.2-1.1,0.2-1.4c0-0.4,0.1-0.7,0.1-1.1c0-0.4,0-0.7,0-1c0-0.3,0-0.6,0-0.8c0-0.2,0-0.5,0-0.8c0-0.2,0-0.5-0.1-0.8
		c0,0,0-0.1,0-0.2c0.2-0.4,0.4-0.8,0.6-1.2c0.8-1.7,1.2-2.3,1.3-2.6c0,0.2,0.1,0.5,0.1,0.7c0,0.3,0.1,0.7,0.2,1
		c0.1,0.3,0.1,0.6,0.3,1.3c0.2,0.7,0.5,1.6,0.8,2.3c0.3,0.8,0.4,1.4,0.5,1.8c0.1,0.5,0.2,0.7,0.2,1c0,0.3,0.1,0.6,0.1,1
		c0,0.1,0,0.3,0,0.4c0,0.6,0,1.3,0,1.9c0,0.2,0,0.3,0,0.5c0,0,0,0,0,0c0,0.7-0.1,1.6-0.2,2.4c-0.1,0.9-0.2,1.7-0.4,2.4
		c-0.2,0.7-0.3,1.5-0.5,2.3c-0.2,0.7-0.5,1.5-0.8,2.3c-0.3,0.8-0.7,1.5-1.1,2.3c-0.4,0.7-0.7,1.6-0.9,2.2c-0.3,0.6,0.2,0.8,0.4,0.5
		c0,0,0.5-0.7,1-1.5c0.4-0.7,0.7-1.6,1-2.4c0.3-0.8,0.5-1.6,0.7-2.4c0.2-0.8,0.4-1.5,0.5-2.3s0.3-1.6,0.4-2.4
		c0.1-0.6,0.1-1.2,0.2-1.7c0,0.2,0,0.5,0.1,0.7c0.1,0.9,0.4,1.6,0.6,2.2c0.2,0.5,0.7,0.4,0.5,0c0,0-0.1-0.8-0.2-1.6
		c-0.1-0.8-0.3-1.6-0.5-2.5c-0.2-0.9-0.3-1.8-0.3-2.8c0-1,0-1.4,0-1.7c0-0.4,0-0.7,0-1c0-0.3,0-0.7,0.1-0.9c0-0.3,0-0.5,0.1-0.8
		s0.1-0.9,0.2-1.6c0,0,0-0.1,0-0.1c0,0.4,0,0.8,0.1,1.2c0,0.5,0.1,0.9,0.2,1.5c0.1,0.5,0.2,1,0.3,1.5c0.1,0.5,0.2,0.9,0.3,1.5
		c0.1,0.6,0.3,1.2,0.5,2c0.2,0.7,0.5,1.6,0.6,2.2c0.1,0.3,0.2,0.6,0.2,0.8c-0.1,0.2-0.2,0.5-0.3,0.8c-0.2,0.5-0.5,1.2-0.8,2.1
		c-0.4,0.9-0.7,2-0.9,2.9c-0.2,0.9,0.2,1.1,0.4,0.5c0,0,0.6-1.2,0.9-2.2c0.3-1,0.5-1.9,0.7-2.6c0-0.2,0.1-0.5,0.2-0.6
		c0,0.3,0.1,0.6,0.2,0.9c0.1,0.4,0.1,0.8,0.2,1.3c0,0.5,0.1,1.1,0.1,1.7c0,0.6-0.1,1.3-0.1,2c0,0.7,0.1,1.4,0.1,2
		c0,0.5,0.5,0.6,0.5,0.2c0,0,0.1-0.7,0.2-1.5c0.1-0.7,0-1.4,0-2.1c-0.1-0.7-0.2-1.3-0.3-1.9c-0.1-0.6-0.2-1-0.3-1.4
		c-0.1-0.5-0.2-0.8-0.3-1.2c0-0.2-0.1-0.4-0.2-0.6c0,0,0-0.1,0-0.2c0-0.2,0.2-0.9,0.3-1.5c0.1-0.6,0.3-1.2,0.3-1.7
		c0.1-0.5,0.2-1.1,0.3-1.6c0.1-0.5,0.2-1.2,0.3-1.8c0.1-0.7,0.1-1.3,0.2-1.9c0-0.6,0.1-1.2,0.1-1.7c0-0.5,0-0.7,0-0.9
		c0-0.2,0-0.5,0-0.7c0-0.2,0-0.5,0-0.8c0-0.1,0-0.4,0-0.6c0.1-0.6,0.2-1.6,0.5-3.7c0.5-4,0.6-4.4,0.7-4.8c0.1-0.4,0.2-0.8,0.3-1.2
		l0.5,0.4l1.1-0.4l0.7-0.1l0.4-0.6c0.3-0.1,0.5-0.2,0.8-0.2h0.1l1.1,0.7l-0.2-1.2c0.5-0.2,0.8-0.5,1.1-0.7l0.6,0.1l0.2-1.4L93.3,26
		c0-0.3-0.1-0.6-0.2-0.9l0.5,0.1l-0.1-0.4l0.2-0.1l-0.2-0.6l-0.7,0.4c0-0.2-0.1-0.3-0.2-0.5v0c-0.1-0.2-0.1-0.3-0.2-0.5v-0.4
		l-0.1,0.2c-0.2-0.4-0.4-0.8-0.7-1.2h0.1L91.5,22l0.2,0l0.5,0.2l0-0.5l-0.7-0.9l-0.6,0.5l-0.1,0V21l0.1-0.8l0.2,0.1l-0.2-0.2l0-0.2
		L90.9,20l-0.6-0.7l-0.3-0.2l0.8,0.2l0.1-0.3l-0.7-1l-0.9,0.7l0-0.2L89,18.5l0.2-0.4l-1.4-0.8l0.1,0.6l0,0l-0.1-0.2l-0.7-0.7
		l1.3,0.3l-0.3-0.5l-0.8-0.9l-0.1,0L87,15.5l-0.8-0.1l-0.5-0.1v-1.4l-0.2,0.4l-0.1-0.1L85,14.9V15c-0.4-0.4-0.9-0.8-1.3-1.2l0.3-0.2
		l1.4,0.5l-0.7-0.6L84,13.3l0-0.1l-0.6-0.4l-0.1-0.3l-0.2,0.1L83,12.6l-0.1,0.2L82.4,13l-0.5-1.1l-0.1,0.8c-0.3-0.2-0.7-0.4-1-0.6
		l0,0l-0.3-0.2l0.5,0L80.6,11l-0.5,0.3L79.8,11l-0.4,0.4c0,0,0,0,0,0l0-0.5h0v0v-0.1h0l-0.3-0.4l-0.2,0l0.1-0.1h1.2l-0.1-0.4
		l-0.8-0.1l-0.8-0.4l-0.8-0.2l-1.1-0.2l0-0.1h-0.3h0h0h-0.8h0l0.4,0l1.6,0l-0.3-0.4l-1.5-0.1l-0.5-0.5l-1,0.7l-0.3,0.2
		c-0.1,0-0.2-0.1-0.3-0.1L73.7,8l-0.6-0.3l0.1-0.3h1.5L73.6,7l-0.8-0.4l-0.5,0.8l-0.1,0h-0.2V7.3l-0.8-1.2l-0.2,0.2l-1.3-0.2
		l-0.4-0.2v0h-0.1L69,5.7h0.7l0-0.1l-1.4-0.4l-0.7-0.5L67.2,5l-0.4-0.3l-0.5,0.7v0l-0.6,0l0-0.3l-1.2-0.7l-0.5,0.6l-0.1,0.2
		c-0.5-0.2-1.1-0.3-1.6-0.5l0,0L63,4.7l-0.2-0.2l0.8,0L62.7,4l-0.3-0.1l0.4-0.4l1.4-0.2l-0.4-0.4l-1.2,0l-1,0.1l-0.3,0.7l-0.1,0
		l-0.1-0.3l-0.8-0.7l-1,0.3l0.6,0.7L60,3.8V4c-0.1,0-0.3-0.1-0.4-0.1l0-0.5l-0.9-0.8l-0.1-0.2l-1-0.4l-0.5,1.3c-0.1,0-0.3,0-0.4-0.1
		l-0.2-0.2L56.5,3l0.2-0.2l0.1-0.5l-0.5,0L56,2.2l-0.2,0L57,2.1l-1.1-0.3l-0.7-0.3l-1.5,0.2l-0.1,0.3l-0.4,0h0V1.7l-1.5-0.4
		l-0.1,0.2l-0.3-0.1l-0.5-0.2l0,0.1l-0.1,0l0,0.2l-0.3,0.7l-0.2-0.1V1.7l-0.3,0l-0.5-0.3l0.2,0.2l-0.8-0.2l0.1,0.4l-0.2,0.3
		c-0.3,0-0.7,0-1,0l-0.6-0.2l0.8-0.2l-0.4-0.3l-1.4,0.4l-0.9-0.1L45.2,2c0,0-0.1,0-0.1,0l-1.3-0.5L44,1.9l-0.9,0.1l0,0L42.7,2
		l-0.3,0.4c-0.1,0-0.3,0-0.4,0.1l-0.7-1.1l0.1,0.6L41,1.9l-1,0.2l-0.7,0.7v0.3l-0.4-0.7l-1.6,0.2l0.2,0.6l-0.6,0.2l-1,0l0,0.5
		L35,3.4L35.3,4l-0.5-0.2L34.4,4l-0.9,0l0.3,0.3l-0.7,0.7l0,0.3l-0.5-0.6l-1.6,0.1l0.4,1.4l-0.5,0l0,0.4c-0.2,0.1-0.3,0.2-0.5,0.2
		l-0.2-0.2L30,6.8l-0.5,0l0.1-0.1l0.5-0.2L30,6.4L30.6,6L30,5.9L29,6.6h-0.8l0.1,0.6l-0.5,0l0-0.1l-1.6,0.2l-0.5,0.9l0.8,0.5
		l0.4-0.1l0,0.2c0,0-0.1,0-0.1,0.1l-0.6-0.2l-0.8-0.5l-0.5,1.1l-0.1-0.1l-1.1,0.8l-0.9,0.2l0.4,1.1c-0.1,0.1-0.2,0.1-0.3,0.2
		l-0.6-0.4l-1.5,0.6l0.4,1l0,0l-0.4-0.2l-1.3,0.8l-0.9,0l0.2,0.9l0,0l-0.3,0.1l-0.2-0.1l-1.5,0.3l-0.6,0.9l0.3,0.1l-0.3,0.2l0.6,0.2
		c-0.4,0.3-0.8,0.6-1.3,1v-0.1l-1.2,0.6l0.1,0.4c-0.3,0.2-0.6,0.5-0.9,0.7v-0.4l1.1-0.9l1.1-0.9l-0.8,0.1l-1.1,0.9l-0.7,0l-1,1.2
		l0.6,0.8c-0.1,0-0.1,0.1-0.2,0.2h-0.1l-0.5,0.2l-0.1-0.7L10.2,20L9.4,21l0.4,0.9c-0.3,0.2-0.5,0.5-0.7,0.8
		c-0.2,0.2-0.3,0.4-0.4,0.6l0.1-1.2l-1.2,0.9l0.9,0.5c-0.1,0.1-0.1,0.2-0.2,0.3H8l-0.6,1.4l0.4-0.1c-0.1,0.2-0.1,0.5-0.2,0.7l-0.5-1
		l-0.3,0.8L7,26.7l0.5-0.1c0,0.1,0,0.3,0,0.4l-0.2,0.2l0.4,0.3C7.9,27.7,8,27.9,8.1,28c0,0,0.1,0.1,0.2,0.1l-0.5,0.5l1.1,0v0.1
		l1,0.7l0,0.3l0.3-0.1l0.4,0.7l0.8-0.5l0.3,0.1v0.3l1,1.1l1.2,0.1c0.1,0.6,0.3,1.7,0.6,4.1c0.3,2,0.4,3.1,0.5,3.7c0,0.3,0,0.5,0,0.6
		c0,0.3,0,0.5,0,0.7c0,0.2,0,0.4,0,0.5c0,0.2,0,0.6,0,1.1c0,0.2,0,0.4,0,0.6c0,0.4,0,0.8,0.1,1.2c0,0.6,0.1,1.2,0.2,1.9
		c0.1,0.7,0.2,1.3,0.3,1.8c0.1,0.5,0.2,1,0.3,1.6c0.1,0.5,0.2,1.1,0.3,1.7c0.1,0.6,0.3,1.2,0.3,1.5c0,0,0,0.1,0,0.2
		c0,0.2-0.1,0.4-0.2,0.6c-0.1,0.4-0.2,0.8-0.3,1.2c-0.1,0.4-0.2,0.9-0.3,1.4c-0.1,0.6-0.2,1.2-0.3,1.9c-0.1,0.7-0.1,1.4,0,2.1
		c0.1,0.7,0.2,1.5,0.2,1.5c0,0.4,0.5,0.4,0.5-0.2c0-0.6,0.1-1.3,0.1-2c0-0.7,0-1.4-0.1-2c0-0.6,0-1.2,0.1-1.7c0-0.5,0.1-0.9,0.2-1.3
		c0-0.3,0.1-0.6,0.2-0.9c0,0.2,0.1,0.4,0.2,0.6c0.2,0.7,0.4,1.5,0.7,2.6c0.3,1,0.9,2.2,0.9,2.2c0.2,0.6,0.7,0.5,0.4-0.5
		c-0.2-0.9-0.5-2.1-0.9-2.9c-0.4-0.9-0.7-1.6-0.8-2.1c-0.1-0.3-0.2-0.5-0.3-0.8c0-0.2,0.1-0.5,0.2-0.8c0.2-0.6,0.4-1.5,0.6-2.2
		c0.2-0.7,0.4-1.4,0.5-2c0.2-0.6,0.3-1,0.3-1.5c0.1-0.5,0.2-1,0.3-1.5s0.2-1,0.2-1.5c0-0.4,0-0.7,0.1-1.2c0,0,0,0.1,0,0.1
		c0.1,0.7,0.2,1.2,0.2,1.6c0,0.3,0,0.5,0.1,0.8c0,0.3,0,0.6,0.1,0.9c0,0.3,0,0.7,0,1c0,0.3,0,0.7,0,1.7c0,1-0.1,1.9-0.3,2.8
		c-0.2,0.9-0.4,1.7-0.5,2.5c-0.1,0.8-0.2,1.6-0.2,1.6c-0.1,0.4,0.4,0.5,0.5,0c0.2-0.5,0.5-1.3,0.6-2.2c0-0.2,0-0.4,0.1-0.7
		c0,0.6,0.1,1.2,0.2,1.7c0.1,0.8,0.3,1.6,0.4,2.4c0.1,0.7,0.3,1.5,0.5,2.3c0.2,0.8,0.5,1.6,0.7,2.4c0.3,0.8,0.5,1.6,1,2.4
		c0.4,0.7,1,1.5,1,1.5c0.2,0.4,0.6,0.2,0.4-0.5c-0.3-0.6-0.5-1.4-0.9-2.2c-0.4-0.7-0.8-1.5-1.1-2.3c-0.3-0.8-0.6-1.6-0.8-2.3
		s-0.4-1.5-0.5-2.3s-0.3-1.6-0.4-2.4c-0.1-0.9-0.2-1.7-0.2-2.4c0,0,0,0,0,0c0-0.2,0-0.3,0-0.5c0-0.7,0-1.3,0-1.9c0-0.1,0-0.3,0-0.4
		c0-0.4,0.1-0.7,0.1-1c0-0.3,0.1-0.6,0.2-1c0.1-0.5,0.3-1.1,0.5-1.8c0.3-0.8,0.5-1.7,0.8-2.3c0.2-0.7,0.3-0.9,0.3-1.3
		c0.1-0.3,0.1-0.6,0.2-1c0-0.2,0.1-0.4,0.1-0.7c0.1,0.3,0.5,0.9,1.3,2.6c0.2,0.5,0.4,0.9,0.6,1.2c0,0.1,0,0.2,0,0.2
		c0,0.3,0,0.5-0.1,0.8c0,0.2,0,0.5,0,0.8c0,0.2,0,0.5,0,0.8c0,0.3,0,0.7,0,1s0.1,0.7,0.1,1.1c0,0.4,0.1,0.7,0.2,1.4
		c0.1,0.7,0.2,1.4,0.3,2.1c0.1,0.7,0.3,1.3,0.5,1.9c0.2,0.6,0.5,1.2,0.5,1.2c0.1,0.3,0.5,0.2,0.5-0.3c-0.1-0.5-0.1-1.1-0.3-1.7
		c-0.1-0.6-0.3-1.3-0.5-1.9c-0.2-0.7-0.4-1.4-0.5-1.9c-0.1-0.5-0.2-0.9-0.3-1.2c0-0.3-0.1-0.7-0.1-1c0-0.3,0-0.7-0.1-0.9
		c0-0.3,0-0.5,0-0.8c0-0.2,0-0.5,0-0.8c0-0.1,0-0.2,0-0.5c0.7,1.5,1.1,2.3,1.3,3c0.4,0.9,0.6,1.7,0.8,2.3c0.2,0.6,0.3,1,0.4,1.3
		c0.1,0.3,0.2,0.9,0.3,1.6c0.1,0.7,0.1,1.3,0,2c-0.1,0.7,0.1,1.4,0.1,1.4c0,0.2,0.2,0.3,0.4,0.2c-0.3,0.9-0.4,1.1-0.5,1.3
		c-0.1,0.2-0.1,0.5-0.2,0.7c-0.1,0.2-0.1,0.4-0.2,0.6c0,0.2-0.2,0.7-0.3,1.2c-0.1,0.5-0.2,1.1-0.3,1.7c-0.1,0.6,0.2,1.3,0.2,1.3
		c0,0.3,0.5,0.3,0.6-0.2c0.1-0.5,0.1-1.1,0.1-1.7c0-0.6,0-1.1,0-1.6c0-0.5,0.1-0.7,0.1-0.9c0-0.2,0.1-0.4,0.1-0.6
		c0-0.2,0.1-0.5,0.2-0.7c0-0.2,0.4-1.2,0.7-2.1c0.3-0.9,0.5-1.6,0.8-2.3c0.2-0.7,0.4-1.2,0.5-1.6c0.1-0.5,0.8-3.5,1.1-5.2
		c0,0.6-0.1,1.2-0.1,1.7c0,0.9-0.1,1.7-0.1,2.4c0,0.7,0,1.3,0,2.3c0,1.1,0,2.1,0,3.1c0,1,0,1.9,0.2,2.8c0.2,0.9,0.5,1.7,0.5,1.7
		c0.1,0.4,0.5,0.3,0.5-0.3c-0.1-0.6-0.1-1.5-0.3-2.4c-0.2-0.9-0.3-1.9-0.4-2.9c-0.1-1-0.2-2.1-0.2-2.9c0-0.8,0-1.5,0-2.3
		c0-0.8,0-1.6,0.1-2.6c0-0.7,0.1-1.4,0.1-2c0.1-0.7,0.2-0.9,0.2-1.1c0-0.3,0.1-0.7,0.2-1c0-0.4,0.1-0.7,0.2-1.2
		c0.1-0.5,0.1-1.1,0.2-1.7c0-0.6,0.1-1.2,0.1-1.9c0-0.5,0-1.1,0-1.8c0,0,0-0.1,0-0.2c0-0.5,0-0.7,0.1-0.8c0-0.1,0-0.4,0.1-0.8
		c0.2,0.1,0.4,0.1,0.6,0.2c0.6,0.6,1.2,1.2,1.8,1.9v0c-0.1,0.6-0.2,1.3-0.3,2.1c0.1-0.8,0.2-1.5,0.3-2.2c0.3,0.4,0.6,0.7,1,1.1
		c0,0.1,0,0.2,0,0.2c0,0.8-0.1,1.6-0.2,2.5c-0.1,0.9-0.2,1.7-0.2,2.1c0,0.4-0.1,0.8-0.1,1.1c0,0.4-0.1,0.7-0.1,1
		c0,0.3-0.1,0.7-0.3,1.8c-0.2,1.1-0.4,2.1-0.5,2.8c0,0.1,0,0.2,0,0.3c-0.2-0.5-0.3-0.8-0.3-1c-0.1-0.3-0.1-0.7-0.2-1
		c0-0.3-0.1-0.6-0.1-0.9c0-0.3,0-0.5,0-0.8c0-0.3,0-0.6,0-1c0-0.4,0.1-0.8,0.2-1.9c0.1-0.8,0.2-1.8,0.3-2.8c0,0.1,0,0.2,0,0.3
		c-0.2,1.5-0.4,3.3-0.5,3.7c0,0.4-0.1,0.8-0.1,1.2c0,0.4,0,0.7,0,0.9c0,0.3,0,0.5,0,0.8c0,0.3,0,0.7,0.1,1c0,0.3,0.1,0.7,0.2,1
		c0,0.3,0.1,0.6,0.4,1.5c0,0.2,0,0.3-0.1,0.4c0,0.3,0,0.4-0.1,0.7c0,0.4-0.1,0.7-0.1,1.1c0,0.4-0.1,0.7-0.1,1.1
		c0,0.4-0.1,0.8-0.1,1.2c0,0.5,0,0.9-0.1,1.4c0,0.4,0,0.8,0,1.2c0,0.4,0,0.7,0,1.1c0,0.4,0,0.7,0,1.2c0,0.4,0.2,0.8,0.3,1.2
		c0.2,0.5,0.3,0.9,0.3,0.9c0,0.2,0.5,0.1,0.5-0.2c0-0.4-0.1-0.8-0.1-1.2c0-0.4-0.1-0.8-0.1-1.2c-0.1-0.4-0.2-0.7-0.2-1
		c0-0.3-0.1-0.7-0.1-1.1c0-0.4,0-0.8-0.1-1.2c0-0.5,0-0.9,0-1.4s0-0.8,0-1.2s0-0.7,0.1-1.1c0-0.4,0.1-0.7,0.1-0.9c0-0.1,0-0.3,0-0.5
		c0.3,1.3,0.6,2.4,0.8,3.3c0.2,0.9,0.5,1.5,0.6,1.9c0.2,0.4,0.3,0.6,0.3,0.6c0,0,0,0,0.1,0c0,0.2-0.1,0.4-0.1,0.6
		c0,0.3-0.1,0.6-0.1,0.9c0,0.3-0.1,0.5-0.2,1.3c-0.1,0.7-0.2,1.5-0.2,2.4c-0.1,0.8-0.1,1.7,0,2.7c0.1,0.9,0.3,1.9,0.3,1.9
		c0,0.5,0.5,0.5,0.5-0.3c0-0.7,0-1.7,0-2.6c-0.1-0.9-0.2-1.7-0.2-2.5c0-0.8,0-1.6,0-2.1c0-0.5,0-0.7,0.1-1c0-0.3,0.1-0.6,0.1-0.9
		c0-0.1,0-0.2,0-0.3c0.1,0,0.2-0.1,0.1-0.2c0-0.1,0-0.2,0-0.4c0-0.2,0.1-0.5,0.2-0.9c0-0.3,0.1-0.7,0.2-1.1c0,0.2,0,0.3,0,0.5
		c0,0.3,0,0.7,0.1,0.8c0,0.2,0,0.5,0.1,0.9c0.1,0.4,0.1,1,0.3,1.7s0.2,1.5,0.2,1.7c0,0.2,0,0.4,0,0.6c0,0.2,0,0.4,0,0.6
		c0,0.2,0,0.4,0,0.8c0,0.4,0,0.8,0.1,1.2c0,0.3,0,0.6,0,0.9s0,0.4,0,0.4c0,0.1,0.4,0.2,0.5,0.1c0.1-0.2,0.1-0.4,0.2-0.7
		c0.1-0.3,0.1-0.7,0.2-1c0-0.4,0-0.8,0-1.2c0-0.3-0.1-0.5-0.1-0.7c0-0.2-0.1-0.4-0.1-0.6c0-0.2-0.1-0.4-0.2-0.9
		c-0.1-0.5-0.3-1.3-0.4-1.9c-0.1-0.6-0.2-1.1-0.3-1.4c0-0.3-0.1-0.5-0.1-0.8c0-0.2-0.1-0.5-0.1-0.9c0-0.3,0-0.6-0.1-0.9
		c0.1-0.7,0.3-1.3,0.4-1.9c0.3-1.3,0.4-2.3,0.5-3c0.1-0.7,0.2-1.2,0.3-1.9c0.1-0.7,0.3-1.9,0.4-3c0.1-1.1,0.3-2.1,0.3-3
		c0-0.3,0-0.6,0.1-0.9c0.8,0.5,1.4,0.8,1.9,1.2c0.1,0.1,0.2,0.2,0.3,0.3c0,0.5,0,0.9,0,1.2c0,0.4-0.1,0.7-0.1,1.2
		c0,0.4-0.1,0.7-0.2,1.1c-0.1,0.4-0.1,0.7-0.3,1.1c-0.1,0.4-0.3,1-0.4,1.6c-0.2,0.7-0.4,1.5-0.7,2.4c-0.3,0.9-0.4,1.2-0.5,1.6
		c-0.1,0.3-0.2,0.6-0.2,0.9c-0.1,0.3-0.1,0.5-0.2,0.8c0,0.2-0.1,0.4-0.1,0.6c0,0.2,0,0.4-0.1,0.5c0,0.2,0,0.4,0,0.6
		c0,0.2,0.3,1.8,0.3,1.8c0.1,0.8,0.5,0.8,0.5-0.5c0-1.2,0-1.4-0.1-1.6c0-0.2,0-0.4,0-0.6c0-0.2,0-0.3,0-0.5c0-0.2,0-0.4,0-0.7
		c0-0.2,0.1-0.5,0.1-0.8c0-0.3,0.1-0.6,0.2-0.9c0.1-0.3,0.3-1.3,0.5-2.1c0.2-0.9,0.4-1.6,0.6-2.2c0.2-0.6,0.3-1.1,0.3-1.4
		c0.1-0.3,0.2-0.7,0.2-1.1c0.1-0.4,0.1-0.7,0.2-1.2c0-0.4,0.1-0.8,0.1-1.2c0-0.2,0-0.4,0-0.7c0.2,0.2,0.4,0.4,0.6,0.5l0.5,0.7
		c0,0.2-0.1,0.5-0.2,1c-0.2,0.9-0.4,1.8-0.6,2.6c-0.2,0.7-0.3,1.4-0.4,1.9c-0.1,0.5-0.2,1-0.3,1.5c-0.1,0.5-0.2,1.1-0.3,1.6
		c-0.1,0.5-0.1,1.1,0,1.7c0,0.6,0.1,1.2,0.1,1.2c0,0.3,0.5,0.3,0.5-0.1c0-0.5,0.1-1,0.2-1.6c0.1-0.6,0.1-1.1,0-1.6
		c0-0.5,0-1.1,0-1.5c0-0.5,0.1-1,0.2-1.6c0.1-0.6,0.2-1.3,0.4-2.1c0.2-0.8,0.3-1.7,0.5-2.3c0-0.1,0-0.2,0-0.3l0.5,0.6
		c0,0.1,0.4,0.4,1,0.9c0.1,0.1,0.2,0.2,0.3,0.3c0,0,0,0.1,0,0.1c0.2,0.2,0.3,0.4,0.4,0.6c0.1,0.2,0.2,0.4,0.3,0.6c0,0.5,0,1.1,0,1.7
		c0.2,0.7,0.3,1.1,0.2,1.1c0,0.1-0.1,0.3-0.2,0.4l-0.9,1.4c0,0.1-0.1,0.2-0.1,0.2l-0.1,0.1c0-0.1,0-0.2,0-0.3c0,0.2,0,0.4,0,0.7
		l-1.1,1.3c-0.5,0.7-0.8,1.3-1.2,2c-0.9,2.6-1.5,4.7-1.8,6.3l-0.1,0.5c-0.2,0.3-0.4,0.6-0.5,0.8L36,65.7c-0.5,0.9-1,1.7-1.4,2.3
		c-0.3,0.5-1,1.3-2.2,2.4c-1,0-2.4,0-4-0.2c-1.1,0-2,0.1-2.5,0.2c-0.2,0,0.3,0.2,1.4,0.4c-0.3,0.1-0.8,0.2-1.5,0.2
		c1.2-0.1,1.3,0,0.5,0.2l1.6-0.4l0.8,0.1c-0.8,0-1.3,0-1.8,0.2c1.2-0.2,1.3-0.1,0.5,0.1c0.7-0.2,1.2-0.3,1.6-0.2l-2.8,0.5
		c-4.3,0.3-6.9,0.4-7.9,0.3c0.8,0.1,0.8,0.2-0.3,0.3c0.1,0,0.3,0,0.4,0c-0.1,0-0.2,0.1-0.3,0.1c0,0-0.1,0-0.1,0l0.1,0
		c0.1,0,0.2-0.1,0.3-0.1l0,0h0c0.9-0.1,1.4-0.1,1.5,0l-1.7,0.4c0.2,0,0.3,0,0.4,0c0.1-0.1,0.2-0.1,0.3-0.1c0.1,0,0.2,0,0.2,0
		l0.5-0.1c-0.1,0.1-0.1,0.1-0.1,0.1l-0.1,0c-0.1,0-0.2,0.1-0.2,0.1c0,0-0.1,0.1-0.2,0.2c-0.2,0-0.3,0-0.5,0c0,0-0.1,0-0.1,0.1
		c-0.3,0-1.1,0.1-2.2,0.3l4.2-0.1c-1.1,0.3-2.8,0.5-5.3,0.5l-4.4,1.4l-4.9,0.5c-0.1,0,0,0.1,0.2,0.1l2.7,0.1L8,76.3
		c-1.3,0.2-2.2,0.5-2.6,0.8l4.8-1.2l2.3,0.2l-0.9,0.3L9,76.7c-0.2,0-0.2,0,0,0.1c2,0,3.7-0.2,5.1-0.6l1.6,0.2
		c-1.3,0.7-2.6,1.2-3.9,1.4l-2-0.1l-4.8,0.5l2.6,0l-2,0.8c0.8-0.2,1.7-0.4,2.6-0.8c1.1-0.1,2,0,2.7,0.2c-1.6,0.6-2.7,1-3.4,1.4
		c-0.3,0.1-1.1,0-2.7-0.1c0.3,0.1,0.7,0.2,1.3,0.2c-0.5,0.1-1.1,0.2-1.7,0.3c2.1-0.2,3.2-0.3,3-0.2l-0.7,0.5C5,80.9,4.1,81.2,4,81.3
		c0,0.1,0.2,0.2,0.5,0.1l2.4-0.5c0.1,0.1-0.5,0.3-1.8,0.7c0.5,0,1.1-0.1,1.5-0.3l-2,1.4c0.3,0,1.4-0.7,3.2-2.1l3.7-0.6L10.4,81
		c-0.8,0.2-2.9,1.4-6.3,3.8c2.1-1.2,3.6-1.9,4.5-2.2l-1.3,2c-0.2,0.2-0.7,0.3-1.7,0.5l1,0c1-0.3,2.2-1.3,3.5-3.2l2.9-1.9l1.5-0.5
		h3.7c-0.8,0.8-1.4,1.3-1.8,1.5c-1.3-0.1-3,0.4-5,1.6c1.6-0.7,2.8-0.9,3.8-0.9l-2.5,2.2l1.3-0.9c-0.2,0.6-0.9,1.5-2.1,2.8
		c1.3-1.2,2.1-2.3,2.6-3.2l4.5-2.8c-0.6,1.4-1,2.1-1.2,2.3c-1.3,0.2-1.9,0.4-2,0.5c-0.5,0.3-1.4,1.2-2.6,2.6l2.6-2.2
		c1.8-0.8,1.9-0.5,0.5,0.7c1.6-1.2,2.5-1.9,2.6-2.1l-0.2,0.7l-1.1,1.7c0,0,0,0,0.1,0c1-0.7,1.8-2.1,2.4-4.2l1-0.9
		c0.3-0.4,1.3-0.4,3.1-0.2c0,0.8-2,2.8-5.9,6c-1.3,0.1-3.3,1-5.9,2.7c2-0.8,3.1-1.2,3.2-1.1l-2.8,3l0.2,0c0.5-0.2,1.7-1.3,3.6-3.1
		l0.8-0.2l-1.9,3.5c-2.8,1.7-4.3,2.9-4.5,3.7l1.6-1.5l-1,2.4C13,92.1,14,91,15,91.3c-1.1,2.1-1.7,3.4-1.8,3.8c0,0.2,0,0.2,0.3,0.1
		l1.7-1.9c0.3,0.3-0.2,1.6-1.4,4l1.4-2.2c0.2,0,0.3,0.5,0.3,1.5l0.5-3.8c0.4-0.6,1.1-1.3,2.1-2.1l4.3-2.6l-0.5,1.7
		c-1.8,0.3-3.1,1-4,2.1l1.5-0.9c1-0.1,1.6-0.2,1.9-0.3c-1.2,1.4-1.7,2.2-1.6,2.5l3.4-3.6l1.3-2.3l1.1-0.4l-0.4,0.9
		c0.3-0.5,0.8-0.8,1.4-1c0.4,0.5,0.5,0.9,0.4,1.2c-1.2,1.5-2.2,2.1-3,2c-0.6,0.9-0.9,1.4-0.9,1.5c0.6-0.9,1.4-1.3,2.3-1.2l2.1-1.8
		c0.4,0.2,0.5,0.6,0.1,1.3l0.3-0.1l0.4-3.5l2.7-0.7l-1.9,4.2c-0.2,0.1-1,0.4-2.4,0.9l-3,1.9c1.9-1.2,3.6-1.8,4.9-1.6
		c-0.2,0.3-0.6,0.7-1.1,1c-0.7-0.1-1.9,0.4-3.5,1.4c1.3-0.5,2.1-0.7,2.4-0.6c-0.8,0.5-1.3,1-1.8,1.5c0.3,0,1.3-0.2,3-0.9l-1.1,1.9
		c0.8-1.1,1.5-1.8,2-2.1l2.9-0.9c0.1,0.7,0.1,1.1-0.1,1.4c-1.6-0.1-2.7,0.2-3.1,1.1l-0.1,0.3c0.4-0.5,0.9-0.8,1.7-1
		c0.3-0.1,0.7-0.1,1.2,0l-1.4,1.6c1.1-0.7,1.8-1.3,2.2-1.7c0.3-0.3,0.7-0.9,1.2-2l0.3-0.1l0.2,0.6c-0.8,0.8-1.5,2.1-2.2,3.7
		c1.2-1.9,2-2.8,2.3-3c0.1,0-0.1,0.7-0.5,1.8c0,0.1,0,0,0.3-0.3c0.4-0.7,0.8-1.8,1.1-3.5c1.6-1.2,2.5-1.9,2.7-2
		c-0.1,1.2-0.5,2.3-1.1,3.6c-1.5,1.6-2.4,2.7-2.5,3.2c0,0.2,1-0.7,2.9-2.6c0.6,1,0.3,1.7-1,2.2c0.3,0.2,0.8,0,1.5-0.6
		c0.2-0.6,0.3-1.4,0.2-2.2c0.5-0.1,1,0.9,1.3,2.9c0.1-0.9-0.2-2.3-0.8-4.2l1.5-3.4c1.2-0.6,2.6-1.1,4.3-1.5c0.3,0.8,0.3,1.4,0,1.8
		c-1.6,0.5-2.7,1.2-3.3,2c2.1-1.6,2.3-1.3,0.3,0.9c1-0.5,1.7-1.2,2-2.1l1.4-0.5l0.1,0.6l-1.5,2.1c-0.5,0.3-1.1,0.5-1.8,0.7
		c-0.7-0.3-1.5-0.3-2.3,0c0.9-0.1,1.5,0,1.7,0.2l-0.7,0.4c0.7-0.2,1.5-0.4,2.6-0.3l-0.3,0.8c-1.1,0.6-1.9,1.2-2.4,1.7
		c0.5-0.5,1.3-0.9,2.3-1.2c-0.2,0.7-0.2,0.9,0,0.7l1.7-3c0.2-0.2,0.6-0.5,1.2-0.7c-0.1,0.1,0.5,0.7,2,1.6c0.2,0.7,0.2,1.2,0,1.8
		c0,0.2-0.5,0.5-1.3,0.8c-1.6-0.1-2.6,0-2.8,0.1l2.2,0.1c-0.5,0.4-0.8,0.7-0.8,0.9c0.3-0.3,1.1-0.7,2.4-1.3c-0.1,1,0,1.8,0,2.2
		c0-1.5,0.4-2.7,1.2-3.6l1.3,3.5l-0.1,2.4c0.1-0.7,0.4-1.3,0.7-1.7l1,0.9l2.1,0.6l-0.9-2.4c0.1-0.1,0.3-0.1,0.5-0.1
		c0.2,0.2,0.4,0.5,0.5,0.9c0,0,0,0,0.1-0.2c0.1-0.4-0.1-0.9-0.8-1.6l1-1.9c0.8,1.1,1.2,2.1,1,3.3c0.1-0.2,0.1-0.9,0.1-2.2
		c1.3,0.5,2.1,1,2.4,1.3c0-0.2-0.3-0.5-0.8-0.9l2.2-0.1c-0.1-0.2-1-0.2-2.7-0.2c-0.6-0.2-1.1-0.5-1.3-0.8c-0.2-0.6-0.2-1.2,0-1.8
		c1.1-0.7,1.8-1.2,2-1.5c0.5,0.2,1,0.5,1.2,0.7l1.7,3c0.2,0.2,0.2-0.1,0-0.7c0.6,0.2,1.4,0.6,2.3,1.3c-0.1-0.3-0.9-0.9-2.4-1.7
		L58,92.3c1.1,0,1.9,0.1,2.6,0.4c0,0-0.2-0.2-0.7-0.4c0.4-0.2,1-0.2,1.7-0.1c-0.7-0.3-1.4-0.4-2.3-0.1c-0.7-0.2-1.3-0.4-1.8-0.7
		l-1.4-2.1l0.1-0.6l1.4,0.5c0.3,0.9,1,1.6,2,2.1c-1.9-2.2-1.7-2.5,0.4-0.9c-0.5-0.8-1.6-1.5-3.2-2c-0.4-0.4-0.4-1,0-1.8
		c1.7,0.4,3.1,0.9,4.3,1.6l1.4,3.5c-0.5,1.3-0.8,2.7-0.8,4.2c0.4-2,0.9-3,1.4-2.9c-0.1,0.8,0,1.6,0.2,2.2c0.8,0.6,1.3,0.8,1.5,0.6
		c-1.3-0.5-1.6-1.2-1-2.2c1.9,1.9,2.9,2.8,2.9,2.6c-0.1-0.5-0.9-1.6-2.4-3.2c-0.7-1.8-1.1-3-1-3.6c0.3,0.1,1.1,0.8,2.7,2
		c0.3,1.7,0.6,2.8,1.1,3.5c0.2,0.3,0.3,0.4,0.3,0.3c-0.4-1.2-0.5-1.8-0.5-1.8c0.3,0.1,1.1,1.2,2.3,3c-0.7-1.7-1.4-3-2.1-3.7l0.2-0.6
		l0.3,0.1c0.5,1.1,0.9,1.7,1.2,2c0.4,0.5,1.1,1,2.2,1.8l-1.4-1.6c0.5-0.1,0.9-0.1,1.2,0c0.7,0.2,1.3,0.5,1.6,1L72.1,95
		c-0.5-0.9-1.6-1.2-3.1-1.1c-0.2-0.2-0.3-0.7-0.1-1.4l2.9,0.9c0.4,0.2,1.1,1,2,2.1l-1.1-1.9c1.7,0.7,2.7,1,3,0.9L74,93.1
		c0.3-0.2,1,0,2.4,0.6c-1.2-0.8-2.4-1.3-3.5-1.4c-0.7-0.5-1.1-0.8-1.1-1c1.3-0.1,2.9,0.4,4.8,1.7L73.7,91c-1.4-0.5-2.2-0.8-2.4-0.9
		l-1.9-4.2l2.7,0.8l0.3,3.5l0.2,0.1c-0.3-0.7-0.3-1.1,0.1-1.3c1.4,1.1,2.1,1.7,2.1,1.8c0.9,0,1.6,0.4,2.2,1.3c0-0.1-0.3-0.6-0.9-1.5
		c-0.8,0.2-1.8-0.5-3-2c-0.1-0.4,0-0.8,0.4-1.2c0.8,0.2,1.3,0.6,1.5,1.3l-0.5-1.2l1.1,0.4l1.3,2.3l3.3,3.7c0.1-0.3-0.5-1.2-1.6-2.6
		c0.3,0.1,0.9,0.2,1.9,0.4l1.5,0.9c-0.8-1.1-2.1-1.8-3.9-2.1l-0.5-1.7l4.2,2.6c1,0.8,1.6,1.5,2,2.1l0.5,3.8c-0.1-0.7,0-1.2,0.3-1.5
		l1.4,2.3c-1.2-2.4-1.6-3.7-1.3-4c0.8,0.7,1.3,1.4,1.7,1.9c0.2,0.2,0.3,0.2,0.3-0.1c-0.1-0.5-0.7-1.7-1.8-3.9
		c0.9-0.2,1.9,0.9,3.1,3.3l-0.9-2.4l1.6,1.5c-0.8-1.4-2.3-2.6-4.4-3.8l-1.8-3.6l0.8,0.2c1.9,1.9,3,3,3.5,3.2l0.2,0l-2.7-3.1
		c0.1-0.1,1.1,0.3,3.2,1.2C84.8,87,82.9,86,81.7,86c-3-2.3-5-4.4-5.9-6.1c1.7-0.2,2.7-0.2,3.1,0.2l1,0.9c0.5,2.1,1.3,3.5,2.3,4.2
		c0.1,0.1,0.1,0.1,0.1,0l-1.1-1.7l-0.1-0.7c0.1,0.2,0.9,0.9,2.6,2.1c-1.4-1.3-1.2-1.5,0.6-0.6l2.4,2.1c-1.2-1.4-2-2.3-2.6-2.7
		c0-0.1-0.7-0.2-2-0.5c-0.2-0.2-0.6-1-1.2-2.4l4.4,2.8c0.8,1.4,1.6,2.4,2.5,3.2c-1.1-1.3-1.8-2.2-2-2.8l1.3,1l-2.4-2.2
		c0.9-0.1,2.1,0.2,3.8,0.9c-2-1.3-3.7-1.9-4.9-1.7c-0.7-0.4-1.3-0.9-1.8-1.5l3.7,0.1l1.5,0.5l2.9,1.9c1.9,2.3,3,3.4,3.5,3.3l1,0
		c-1-0.2-1.5-0.4-1.7-0.6l-1.3-2c0.9,0.3,2.4,1,4.5,2.3C92.6,83.6,90.5,82.3,89.7,82.1z M89.8,19.6l0.9,0.5l-0.5,0.4
		c-0.2-0.2-0.4-0.5-0.6-0.7L89.8,19.6z M89,19l0.2-0.1l0.1,0l-0.2,0.3c0,0,0,0-0.1-0.1V19z M16.5,75.1c-0.5,0-0.8,0-1,0L13.7,75
		l1.4-0.4l0.2,0h0c0.5,0.1,0.9,0.2,1.3,0.3l0.7,0.2l0,0C16.9,75.1,16.7,75.1,16.5,75.1z M20.6,72.6l-0.8,0.3c0,0-0.1,0-0.1,0
		c0,0-0.1,0-0.1,0c-0.3,0-0.4,0-0.5,0c0.2,0,0.3-0.1,0.5-0.2c0,0,0,0,0.1,0c0.1-0.1,0.2-0.1,0.2-0.2c0,0,0.1,0,0.1-0.1
		c0.2,0,0.3,0,0.4-0.1l0.3,0l0.3,0c0.1,0,0.2,0,0.4,0.1C20.9,72.5,20.7,72.6,20.6,72.6z M60.8,48.8c0,0-0.1,0.1-0.2,0.2
		c-0.1-0.4-0.1-0.8-0.2-1.1c-0.1-0.5-0.2-0.9-0.3-1.5c-0.1-0.5-0.3-1.2-0.4-1.9c-0.2-0.7-0.4-1.6-0.6-2.6c-0.2-0.9-0.3-1.2-0.3-1.4
		c0-0.2-0.1-0.4-0.1-0.6c0-0.1,0-0.2,0-0.2l1.3-2.1c0,0.5,0,0.9,0,1.3c0,0.7,0,1.2,0,1.5c0,0.4,0,0.8,0.1,1.2c0,0.4,0.1,0.7,0.2,1.2
		c0.1,0.4,0.2,0.7,0.2,1.1c0.1,0.3,0.2,0.8,0.3,1.4c0.2,0.6,0.3,1.3,0.6,2.2c0,0.2,0.1,0.5,0.2,0.7C61.4,48.2,61.1,48.5,60.8,48.8z
		 M58.5,38c0-0.6-0.1-1.1-0.1-1.6c0-0.5,0-1.1,0-1.6c0-0.5,0.1-1.7,0.3-2.9c0.2-0.1,0.3-0.2,0.5-0.2l0.6-0.4
		c0.2-0.1,0.3-0.3,0.5-0.4c0,0.1,0,0.2,0,0.2c0,0.4,0,0.9-0.1,2.1c0,0.9-0.1,1.8-0.1,2.6c-0.5,0.9-1.1,1.7-1.6,2.5
		C58.5,38.2,58.5,38.1,58.5,38z M56.4,29.2c-0.1,0.4-0.2,0.7-0.2,1.1c0-0.2,0-0.4,0.1-0.6C56.3,29.5,56.3,29.4,56.4,29.2L56.4,29.2z
		 M56.3,33.3C56.3,33.3,56.3,33.3,56.3,33.3c0.3-0.3,0.5-0.4,0.7-0.6c0.2-0.1,0.7-0.4,1.5-0.8c-0.1,0.7-0.1,1.4-0.2,2
		c0,0.9,0,1.4,0,2c0,0.5,0,1.1,0.1,1.6c0,0.4,0,0.8,0.1,1.1c-0.1,0.1-0.2,0.2-0.2,0.4L57,40.3l-0.2,0.2c-0.1-0.6-0.2-1.4-0.3-2.2
		c-0.2-0.9-0.2-1.1-0.2-1.3c0-0.2,0-0.4-0.1-0.6c0-0.2,0-0.4-0.1-0.6c0-0.2,0-0.6-0.1-1c0-0.3,0-0.5,0-0.8
		C56,33.7,56.1,33.5,56.3,33.3z M61.2,28.7L61,28.8l0-0.1C61,28.7,61.1,28.7,61.2,28.7z M61.1,29.4c-0.1,0.1-0.2,0.2-0.3,0.3
		c0,0,0,0,0,0c0-0.1,0-0.2,0.1-0.3L61.1,29.4z M59.5,29l0.2,0.2c-0.2,0.2-0.4,0.5-0.6,0.6c0.1-0.3,0.1-0.6,0.2-0.8L59.5,29z
		 M59.8,29.3l0.2-0.1l0-0.1l0,0l0.3,0c0,0.1,0,0.2,0,0.2c0,0.2,0,0.4,0,0.7c0,0.1,0,0.1,0,0.2c-0.1,0.1-0.3,0.3-0.4,0.4
		c-0.1,0.1-0.4,0.3-1,0.5c0.1-0.3,0.1-0.6,0.2-0.8C59.3,30,59.6,29.6,59.8,29.3z M58.6,31.2c-0.2,0.1-0.5,0.2-0.7,0.2
		c0.3-0.3,0.6-0.6,0.8-0.9C58.6,30.8,58.6,31,58.6,31.2z M63.5,48c-0.5,0.2-0.9,0.3-1.3,0.5c0-0.1,0-0.2-0.1-0.2l0.7-1.7
		c0.1-0.2,0.1-0.3,0-0.4c-0.2-0.1-0.3-0.1-0.3,0c-0.1,0.5-0.3,1-0.5,1.5c-0.2-0.7-0.4-1.4-0.6-2c-0.2-0.7-0.3-1.2-0.4-1.6
		c-0.1-0.4-0.2-0.7-0.3-1.1c-0.1-0.4-0.1-0.7-0.2-1.1c0-0.4-0.1-0.7-0.1-1.2c0-0.4,0-0.8,0-1.3c0-0.5,0-1.2,0-2.1c0,0,0-0.1,0-0.1
		l0.1-0.1c0.6-0.5,1.3-1,1.9-1.5c0,0,0,0,0.1-0.1v0c0,1.4,0.1,2.3,0.2,3.2c0.1,0.9,0.2,1.9,0.3,3c0.1,1.1,0.3,2.2,0.4,3
		c0.1,0.7,0.2,1.2,0.3,1.9c0.1,0.4,0.1,0.8,0.3,1.3L63.5,48z M61.9,34.5c0.1-0.5,0.3-0.9,0.3-1.4c0,0.3,0,0.7,0,1
		C62.2,34.2,62.1,34.4,61.9,34.5z M64.5,48.6c0,0.3,0,0.6,0,0.9c0,0.3,0,0.6,0,0.9c0,0.1,0,0.2,0,0.3c-0.2-1-0.4-1.8-0.5-2.6
		c0,0,0.1-0.1,0.1-0.1c0.2-0.2,0.2-0.2,0.1-0.2c0,0-0.1,0-0.2,0l-0.1,0c0-0.2,0-0.3-0.1-0.5c-0.2-0.9-0.3-1.5-0.3-1.9
		c0-0.3-0.2-1.6-0.3-2.7c-0.1-1.1-0.3-2.2-0.4-3.1c-0.1-1-0.2-1.9-0.2-2.7c0-0.4,0-1,0-1.7c0.3-0.3,0.6-0.7,1-1.3
		c0.2-0.2,0.4-0.3,0.6-0.5c0,0.5,0,1.1,0,1.6c0,0.8,0,1.4,0,2c0,0.5,0,0.9,0,1.2c0,0.2,0,0.3,0,0.7c0,0.3,0,0.9,0,1.6
		c0,0.7,0,1.6,0.1,2.6c0,0.9,0.1,1.6,0.1,2.2c0,0.6,0,1.1,0.1,1.4c0,0.3,0,0.6,0,0.8C64.5,48,64.5,48.2,64.5,48.6z M64.3,28.8
		L64.3,28.8l-0.7,0.1l0.1,0.3h0.6c0,0.5,0,0.9-0.1,1c0,0.5-0.1,0.9-0.2,1.2c-0.1,0.5-0.3,1-0.4,1.5c-0.4,0.4-0.7,0.7-1,1
		c0-0.5,0-0.9,0-1.4c0-0.2,0-0.4,0-0.6c0.3-1.1,0.6-2.2,0.9-3.2C63.8,28.7,64.1,28.8,64.3,28.8z M65.9,30l0.2-0.1c0,0.1,0,0.1,0,0.2
		c0,0.2,0,0.3,0,0.5c-0.2,0.2-0.3,0.3-0.5,0.4c0-0.2,0-0.4,0-0.6c0-0.2,0-0.3,0.1-0.5L65.9,30z M65.3,32.1c0,0,0.1-0.1,0.1-0.1
		c0,0,0,0,0,0.1C65.4,32.1,65.3,32.1,65.3,32.1z M66.2,31.3c0,0.2,0,0.3,0,0.5C66,31.9,65.8,32,65.6,32c0-0.1,0-0.2,0-0.3
		C65.8,31.6,65.9,31.4,66.2,31.3C66.2,31.2,66.2,31.2,66.2,31.3z M65.5,29.4c0,0.6-0.1,1.2-0.1,1.8c-0.3,0.2-0.5,0.4-0.7,0.6
		c0-0.3,0.1-0.6,0.1-0.9c0-0.3,0.1-0.5,0.2-0.7c0-0.1,0.1-0.5,0.2-0.8L65.5,29.4z M65.9,51.2c-0.4,1-0.6,1.8-0.7,2.4c0,0,0,0,0,0.1
		c-0.1-0.6-0.3-1.3-0.4-2.1c0-0.3,0-0.5,0-0.8c0-0.4,0-0.7,0-1c0-0.3,0-0.6,0-0.9c0-0.3,0-0.6,0-0.9s0-0.4,0-0.7c0-0.2,0-0.7,0-1.2
		c0-0.5-0.1-1.2-0.1-1.9c0-0.7-0.1-1.8-0.1-2.7c0-0.9,0-1.5,0-2c0-0.5,0-0.7,0-0.8c0-0.1,0-0.4,0-0.9c0-0.5,0-1,0-1.7
		c0-0.7,0.1-1.5,0.1-2.5c0-0.1,0-0.2,0-0.3c0.2-0.1,0.4-0.3,0.6-0.4c0,0,0.1,0,0.1-0.1c-0.1,0.9,0,1.6,0,2.3c0,0.8,0.1,1.6,0.2,2.5
		c0.1,0.8,0.1,1.7,0.2,2.3c0.1,0.6,0.1,1,0.2,1.4c0,0.4,0.1,0.7,0.1,1.1c0,0.3,0.1,0.7,0.2,1.4c0.1,0.8,0.3,1.8,0.5,2.7
		c0.1,0.6,0.2,1.1,0.3,1.5C66.7,49,66.3,50.2,65.9,51.2z M66.4,33.6c0.1,0.8,0.3,1.9,0.4,3.3c0.2,1.4,0.4,3,0.5,4.1
		c0.1,1.1,0.2,1.5,0.2,1.9c0,0.4,0,0.7,0,1c0,0.3,0,0.5,0,0.8c0,0.3,0,0.6-0.1,0.9c0,0.3-0.1,0.7-0.2,1c0,0.3-0.1,0.5-0.3,1.1
		c0-0.1,0-0.2,0-0.3c-0.1-0.7-0.3-1.6-0.5-2.8c-0.2-1.1-0.3-1.4-0.3-1.8c0-0.3-0.1-0.7-0.1-1c0-0.4-0.1-0.7-0.1-1.1
		c0-0.4-0.1-1.2-0.2-2.1c-0.1-0.9-0.1-1.7-0.2-2.5c0-0.8-0.1-1.6-0.1-2.5c0-0.2,0-0.5,0-0.9c0.2-0.1,0.5-0.3,0.8-0.4
		C66.3,32.7,66.4,33.1,66.4,33.6z M68.3,30.9c-0.4,0.2-1,0.5-1.8,0.8c0,0,0-0.1,0-0.1c0-0.2,0-0.4,0-0.6c0.5-0.4,1-0.8,1.5-1.2
		l0.1,0l0-0.1c0.2-0.1,0.4-0.3,0.5-0.4l0.1,0.2l0.2-0.1c0,0.3,0.1,0.5,0.1,0.8c0,0.1,0,0.2,0,0.4C68.7,30.7,68.4,30.9,68.3,30.9z
		 M68.2,6.6L68.2,6.6V6.2l0.2,0.5C68.3,6.6,68.3,6.6,68.2,6.6z M69.4,29.3l0.1,0c0,0.3,0,0.6-0.1,0.9c0,0,0,0-0.1,0
		C69.4,29.9,69.4,29.6,69.4,29.3z M69.5,31.5c0-0.2,0-0.4,0-0.6c0-0.1,0-0.1,0-0.2c0,0,0,0,0,0c0,0,0,0,0,0
		C69.5,31,69.5,31.3,69.5,31.5z M69.8,39.8c0-0.4-0.1-0.9-0.2-1.6c0-0.6-0.1-1.2-0.1-1.7c0.1,0.8,0.2,1.6,0.2,2.2
		c0.1,0.7,0.1,1,0.1,1.2c0,0.2,0,0.5,0,0.7c0,0.1,0,0.2,0,0.2c0,0,0,0,0,0C69.9,40.5,69.9,40.2,69.8,39.8z M78.4,10.8l0.2-0.1l0,0.2
		C78.5,10.9,78.5,10.9,78.4,10.8z M78.8,34.4c0-0.8,0-1.8,0-3c0-0.9,0.1-1.4,0.1-1.8l0.1,0c0.1,0.5,0.2,0.9,0.2,1.2
		c0,0.2,0,0.3,0.1,0.5c0,0.1,0,0.2,0,0.3c0,0.1,0,0.2,0,0.5c0,0.2,0,0.7,0,1.2c0,0.5,0,0.9-0.1,1.4c0,0.5-0.1,1-0.2,1.4
		c0,0.4-0.1,0.6-0.2,0.8c0,0.1,0,0.1,0,0.2c0-0.2,0-0.3,0-0.5C78.8,35.9,78.8,35.2,78.8,34.4z M85.8,40.3c0,0.1,0,0.2,0,0.3
		c0,0.2,0,0.5,0,0.8c0,0.4,0,0.9,0,1.4c0-0.3,0-0.6,0-0.8c0-0.5,0-0.9,0-1.1C85.8,40.8,85.8,40.6,85.8,40.3c0-0.1,0-0.2,0-0.3
		C85.8,40.1,85.8,40.2,85.8,40.3z M86.2,33c-0.1,1.2-0.3,2.9-0.5,4.3c0-0.4,0-0.7,0-1c0-0.4,0-0.7,0-0.7c0-0.1,0-0.5,0-0.8
		c0-0.3,0-0.7,0-0.9c0-0.3,0-0.6,0-0.9c0-0.3,0.1-1.4,0.3-2.5c0,0,0,0,0,0l0,0.1l0.3-0.2h0l0-0.1l0.1-0.1
		C86.4,30.5,86.4,31.1,86.2,33z M86.3,15.8l0.5,0.2l-0.5,0.3c0,0-0.1-0.1-0.1-0.1L86.3,15.8z M85.1,29.5c0.1,0,0.3,0,0.4,0l0,0.1
		l-0.7,0.1L85.1,29.5z M84,30.1l0.3-0.5l0.3,0.4l0.3-0.2l0.5,0.2l0.2,0.1c0,0.8-0.1,1.6-0.1,2.2c0,0.7,0,1,0,1.4c0,0.3,0,0.6,0,0.9
		c0,0.3,0,0.7,0,0.9c0,0.2,0,0.4,0,0.7c0,0.3,0,0.7,0.1,1.3c0,0.3,0,0.7,0.1,1c-0.1,0.6-0.1,1.1-0.2,1.2c0,0.3-0.1,0.5-0.1,0.8
		c0,0.2-0.1,0.5-0.1,0.6c0,0.2,0,0.3-0.1,0.8c-0.1,0.5-0.1,1-0.2,1.6c-0.1,0.6-0.1,1.3,0,1.8c0.1,0.4,0.3,0.5,0.5,0.4
		c0,0.5-0.1,0.9-0.2,1.3c-0.1,0.6-0.2,1.1-0.3,1.6c-0.1,0.5-0.2,1.1-0.4,1.6c-0.1,0.6-0.3,1.2-0.4,1.5c-0.1-0.5-0.3-1.2-0.5-1.9
		c-0.3-0.8-0.5-1.5-0.6-2.2c-0.2-0.6-0.3-1.2-0.4-1.6c-0.1-0.5-0.2-1-0.3-1.5c-0.1-0.5-0.2-1-0.2-1.5c0-0.5-0.1-0.9-0.1-1.4
		c0-0.3,0-0.7,0-1.2c0.1-0.5,0.2-0.9,0.3-1.4c0.2-1,0.2-1.4,0.3-1.8c0-0.4,0.1-0.7,0.1-1.1c0-0.4,0.1-0.7,0.1-1
		c0-0.3,0.1-1.1,0.1-1.8c0-0.5,0.1-1,0.1-1.4c0.2-0.5,0.3-1.1,0.5-1.6L84,30.1z M82,39c0-0.6,0-1.2,0.1-1.9c0-0.7,0.1-1.4,0.2-2
		c0.1-0.6,0.1-0.9,0.2-1.4c0-0.2,0.1-0.3,0.1-0.5c0,0.4,0,0.8,0,1.1c0,0.5,0,0.9-0.1,1.2c0,0.3,0,0.7-0.1,1.1c0,0.4-0.1,0.7-0.2,1.5
		C82.1,38.3,82.1,38.6,82,39z M80.7,29.7l-0.4-0.2c0.4,0,0.8,0,1.1,0l0.6,0.2l0.4,0.2c0,0.1,0,0.2,0,0.3c0,0.1,0,0.3,0,0.4
		c-0.1,1-0.3,1.8-0.4,2.4c-0.1,0.6-0.2,1.1-0.2,1.5c0,0.5-0.1,1.1-0.1,1.8c0,0.7,0,1.4-0.1,2.2c0,0.6,0,1.2,0,1.6c0,0.1,0,0.2,0,0.3
		c-0.1,0.8-0.2,1.4-0.3,1.9c-0.1,0.5-0.1,0.7-0.1,1c0,0.2,0,0.5-0.1,0.9c0,0.3,0,0.7-0.1,1c0,0.2,0,0.5,0,0.9c0-0.3-0.1-0.5-0.2-0.8
		c-0.1-0.3-0.2-0.9-0.4-1.5c-0.2-0.7-0.5-1.5-0.8-2.5c-0.3-1-0.4-1.2-0.5-1.6c-0.1-0.3-0.1-0.6-0.2-0.9c0-0.3-0.1-0.7-0.2-1
		c0-0.1,0-0.2,0-0.4c0-0.1,0.1-0.3,0.1-0.4c0-0.2,0.1-0.5,0.2-0.7c0-0.2,0.1-0.7,0.2-1.3c0-0.5,0.1-1,0.2-1.5c0-0.5,0.1-0.9,0.1-1.4
		c0-0.5,0-0.6,0-0.7c0-0.1,0-0.2,0-0.3c0-0.1,0-0.2,0-0.3c0-0.1,0-0.4-0.1-0.8l0.2,0.2L80.7,29.7z M79.1,10.7l-0.3,0.2l-0.1-0.2
		H79.1z M77.8,9.7L77.8,9.7H78l0.6,0l-0.4,0.2L77.8,9.7l0.1,0.4L77.8,9.7L77.8,9.7z M77.9,30.1c0,0.1,0,0.3,0.1,0.4
		c0.1,0.8,0.2,1.9,0.3,2.8c0,0.9,0.1,1.7,0.2,2.4c0,0.7,0.1,1.2,0.2,1.6c0,0,0,0,0,0.1c-0.1,0.2-0.2,0.5-0.8,1.6
		c-0.3,0.6-0.8,1.5-1.2,2.3c-0.1-0.5-0.3-1.4-0.4-2.1c-0.2-1.1-0.3-2-0.5-2.6c-0.1-0.7-0.2-1.2-0.3-1.4c0-0.3-0.1-0.6-0.1-0.9
		c0-0.3-0.1-0.6-0.1-0.9c0-0.3,0-0.6,0-0.9s0-0.5,0-0.8c0-0.3,0-0.5,0-0.8c0-0.2,0-0.4,0.1-0.6l0.2-0.2l0.5,0.2v-0.2h1.3L77.9,30.1z
		 M77.4,29.5l-0.1,0.1l-0.4-0.2C77.1,29.5,77.2,29.5,77.4,29.5z M76,29.7l1.3-0.1l-0.1,0.1L76,29.9V29.7z M72.7,29.5L72.7,29.5
		l-0.1,0.3l0.6,0.2l0.1-0.2l0.3,0.2l0.3-0.7l0.1,0l0.6,0.7l-0.2-0.6l0.2,0.1l0.1,0.2c0,0.1,0,0.1,0,0.2c0,0.2,0,0.5,0,0.8
		c0,0.3,0,0.6,0,0.9c0,0.3,0,0.6,0.1,0.8c0,0.3,0,0.6,0.1,0.9c0,0.3,0.1,0.6,0.1,0.9c0,0.3,0.1,0.6,0.1,0.9c0,0.3,0.1,0.6,0.2,1.2
		c0.1,0.5,0.3,1.3,0.4,2.2c0.2,0.9,0.4,2.1,0.5,2.9c0,0.2,0,0.4,0.1,0.5c-0.5,0.9-0.8,1.8-1.1,2.3c-0.4,1-0.8,1.9-1.1,2.6
		c-0.3,0.7-0.5,1.2-0.6,1.6c-0.1,0.4-0.2,0.6-0.4,1.3c-0.2,0.7-0.3,1.3-0.4,2.1c-0.1,0.5-0.1,1,0,1.4c-0.2-0.6-0.4-1.2-0.6-1.6
		c-0.3-0.7-0.5-1.3-0.6-1.9c-0.1-0.5-0.3-0.9-0.9-4c-0.3-1.6-0.5-2.4-0.6-2.9c0,0,0-0.1,0-0.2c-0.1-1.2-0.1-1.4-0.1-1.6
		c0-0.2,0-0.5,0-0.7c0-0.2,0-0.5,0-0.7c0-0.2-0.1-1.5-0.2-2.6c-0.1-0.9-0.1-1.6-0.2-2.1c0-0.1,0-0.1,0-0.2c0-0.6,0.2-1.8,0.3-2.8
		c0.1-0.5,0.2-1,0.3-1.4c0.6-0.4,1.1-0.7,1.5-1.1c0.1,0.2,0.1,0.5,0.1,0.7c0.1,0.5,0.1,0.8,0.2,1.1c0,0.3,0.1,0.6,0.1,0.9
		c0,0.3,0.1,0.6,0.1,1c0,0.5,0.1,1.2,0.2,2.1c0,0.9,0.1,2,0.2,3.3c0,1.3,0,2.7,0,3.6c0,0.9,0,1.2,0,1.6c0,0.3,0,0.6,0.1,0.9
		c0,0.3,0,0.6,0,0.8c0,0.2,0.5,0.3,0.5,0.1c0,0,0-0.3,0.1-0.6c0.1-0.3,0.1-0.6,0.2-0.9c0-0.3,0-0.7,0-0.9c0-0.3-0.3-1.9-0.4-3.3
		c-0.2-1.4-0.3-2.6-0.3-3.6c-0.1-1-0.1-1.9-0.2-2.5c0-0.7,0-0.9-0.1-1.3c0-0.3,0-0.6-0.1-0.9c0-0.3,0-0.6-0.1-0.9
		c0-0.2-0.1-0.5-0.1-0.9l0.2,0L72.7,29.5z M70.3,29.7c0-0.1,0-0.2,0-0.2l0.1,0l0.3-0.1C70.6,29.5,70.5,29.6,70.3,29.7z M70,6.7
		l0.8,0.1l-0.4,0.5l-0.7-0.6L70,6.7z M69.2,6.8l0.2,0l0,0.2c-0.1,0-0.3-0.1-0.3-0.1L69.2,6.8z M68.4,5.8l0.7,0l0,0l-0.8,0L68.4,5.8z
		 M67.2,29.5c-0.2,0.2-0.5,0.4-0.7,0.6c0-0.2,0-0.3,0-0.5l0.3-0.2l-0.1-0.2l0.3,0.2L67.2,29.5z M66.6,29c0.1,0,0.3,0,0.3,0H66.6
		L66.6,29z M61.7,29.5l0.2,0l0.1-0.3l0.1-0.1l-0.2,0.7l0.6-0.4c0,0.2,0,0.4,0,0.6c-0.1,0.4-0.3,0.8-0.4,1.2l-0.6,2.3
		c-0.2,0.5-0.4,1-0.6,1.4c-0.1,0.2-0.3,0.4-0.4,0.6c0-0.3,0-0.7,0-1c0-1.2,0.2-2.4,0.2-2.9c0-0.5,0.1-0.8,0.1-1.2c0,0,0,0,0,0
		C61.1,30,61.5,29.7,61.7,29.5z M58.5,28.7c0.1,0,0.3,0,0.4,0l0,0.1L58.4,29L58.5,28.7z M58.4,29.3l0.5,0l0.1,0
		c-0.1,0.4-0.2,0.7-0.2,1.1c-0.1,0.1-0.2,0.2-0.3,0.3l-0.5,0.5c-0.6,0.4-1,0.8-1.3,1l0.6-3.4c0,0,0-0.1,0-0.1c0.2,0,0.3,0,0.5,0
		l0.4,0.5l-0.5,0.2l0.6,0l0.1,0.2L58.4,29.3z M57.6,3.1L58.3,3l-0.5,0.5c-0.1,0-0.2,0-0.3-0.1L57.6,3.1z M55.6,2.8L55.6,2.8V3
		l-0.3-0.1L55.6,2.8z M55.2,2.9l0.1,0L55.2,3c0,0,0,0-0.1,0L55.2,2.9z M54.7,2.4l0.2,0l-0.2,0.5l-0.2-0.4H54.7z M53.6,29.5l1.2-0.3
		v-0.3l0.5,0v-0.2l0.2,0.2l0.5,0.2c-0.1,0.9-0.2,1.8-0.2,2.5c0,0.1,0,0.2,0,0.3c-0.1,0.3-0.2,0.6-0.3,0.8c0,0,0,0.1-0.1,0.1
		c-0.5-0.6-0.9-1.1-1.3-1.6c0,0-0.1-0.1-0.1-0.2c-0.1-0.2-0.2-0.5-0.3-0.7c0-0.2-0.1-0.4-0.1-0.6C53.6,29.7,53.6,29.6,53.6,29.5z
		 M53.4,2.5L53.4,2.5l0.1,0l0,0.2c0,0,0,0-0.1,0V2.5L53.4,2.5z M53.4,28.6C53.4,28.6,53.4,28.6,53.4,28.6L53.4,28.6
		C53.4,28.6,53.4,28.6,53.4,28.6z M53.2,29l-0.1,0.2l0.1,0.1c0,0,0,0,0,0.1c0,0.2-0.1,0.5-0.1,0.7c0,0-0.1-0.1-0.1-0.2l-0.1-0.2
		c0-0.3,0-0.4,0.1-0.7c0,0,0,0,0,0H53.2z M50.3,2.3L50.3,2.3L50.3,2.3L50.3,2.3z M50.1,28.5L50.1,28.5C50,28.5,50.1,28.5,50.1,28.5z
		 M48.9,28.6L48.9,28.6L49,29L48.8,29L48.9,28.6z M49.4,29.3L49,31c0,0,0,0,0,0.1c0,0,0,0,0,0.1l-0.1,0.3c-0.1-0.1-0.3-0.2-0.5-0.3
		c-0.1,0-0.1-0.1-0.2-0.2c0-0.1,0-0.1,0-0.2c0-0.5,0-0.9,0-1.1c0,0,0-0.1,0-0.1l0,0.1L49.4,29.3z M47.7,29.4c0,0.1,0,0.3,0,0.5
		c0,0.2,0,0.3,0,0.5c-0.2-0.3-0.4-0.6-0.6-1.1L47.7,29.4L47.7,29.4z M47.1,28.4L47.1,28.4l0.2,0.1l0-0.1c0.1,0,0.1,0,0.2,0
		c0,0.2,0.1,0.4,0.1,0.5L47,29.1c0-0.1-0.1-0.2-0.1-0.2l0-0.1L47.1,28.4z M46.1,28.9l0.4,0.2c0,0.1,0,0.1,0.1,0.2
		c0,0.1,0,0.1,0.1,0.2c0.2,0.5,0.4,0.9,0.5,1.2c0.2,0.4,0.4,0.7,0.6,1c0,0.4,0,0.8,0,1.2c0,0.6,0,1.3,0,1.6c0,0.2,0,0.3,0,0.5
		c-0.2-0.1-0.3-0.1-0.4-0.2l0.2,0.1c-0.3-0.2-0.7-0.5-1.2-1c-0.2-0.2-0.4-0.6-0.5-1c-0.1-0.3-0.2-0.7-0.2-1c0-0.1,0-0.7,0-1.7
		c0-0.2,0-0.4,0-0.6c-0.1-0.4-0.1-0.7-0.2-0.9l0.5,0.2l-0.3,0.1H46.1z M45.5,28.3l-0.3,0.2c0-0.1,0-0.2,0-0.2L45.5,28.3z M45.4,29.7
		c0,0.2,0,0.4,0,0.7c-0.1,0.8-0.1,1.3-0.1,1.5c0,0.4,0,0.7,0,1c0,0.2,0.1,0.4,0.1,0.6c-0.1-0.2-0.3-0.3-0.4-0.5c0-0.3,0-0.7,0-1.4
		c0-0.8-0.2-1.9-0.3-3c0,0,0-0.1,0-0.1l0.4-0.1C45.3,29,45.4,29.5,45.4,29.7z M43.8,31.6c0-0.2-0.1-0.5-0.1-0.7c0-0.2,0-0.6,0-1.4
		c0-0.1,0-0.5,0.1-1l0.4-0.1c0.1,0.4,0.2,0.8,0.2,1.2c0.2,1.1,0.3,2.3,0.3,2.7c0,0.1,0,0.2,0,0.3C44.3,32.3,44,31.9,43.8,31.6z
		 M41.9,30.3c-0.1-0.4-0.1-0.7-0.2-1.1l0.1,0l0.2,0c0.2,0.5,0.5,1.1,0.8,1.6C42.6,30.7,42.3,30.5,41.9,30.3z M40.3,29.1L40.3,29.1
		c-0.1-0.1-0.1-0.2-0.1-0.2h0.1l0.3,0.2L40.3,29.1z M41.5,27.9c0.1,0.2,0.2,0.4,0.2,0.6l-0.2,0.1c-0.1-0.2-0.1-0.4-0.2-0.7
		L41.5,27.9z M41.1,28.4c0,0.1,0.1,0.2,0.1,0.3l-0.4,0.1l-0.1,0v-0.2H41L41.1,28.4z M41.1,29.4l0.2,0c0.1,0.3,0.1,0.5,0.2,0.8
		c0,0,0,0-0.1,0c-0.3-0.2-0.6-0.4-0.8-0.5l0,0L41.1,29.4z M43,29l0.1-0.3l0.5,0c0,0.4-0.1,0.7-0.2,1c0,0.2-0.1,0.5-0.2,0.8
		c-0.2-0.5-0.5-1-0.7-1.4L43,29z M42.1,28.1c0-0.1,0-0.1-0.1-0.2l0.1,0L42.1,28.1z M40.3,2.6l1.4-0.5l0.1,0.5
		c-0.5,0.1-1,0.2-1.5,0.4V2.6z M38.3,31.5l0.5,1c0.1,0.1,0.1,0.3,0.2,0.7c-0.2-0.1-0.4-0.3-0.7-0.5C38.3,32.3,38.3,31.9,38.3,31.5z
		 M38.5,28.3l0.2,0v0.1l-0.2,0.4C38.5,28.5,38.5,28.4,38.5,28.3z M37.1,29.3l0.7-0.1c0,0,0,0.1,0,0.1l-0.3,0.2l0.3,0.1
		c0.1,0.9,0.2,1.8,0.2,2.9c0,0,0,0,0,0c-0.5-0.5-0.8-0.9-0.9-1c-0.2-0.2-0.3-0.5-0.5-0.8c-0.1-0.2-0.2-0.5-0.2-0.7c0,0,0-0.1,0-0.1
		c0-0.2,0-0.4-0.1-0.6L37.1,29.3z M36,32c0,0.4,0.1,0.7,0.1,1.7c0,0.8,0.1,1.4,0.1,2.1c-0.4-0.2-0.6-0.3-0.6-0.4l-0.2-0.2
		c-0.1-0.1-0.1-0.2-0.2-0.3c0-0.7,0-1.4,0-2.2c0-0.6,0-1.2,0-1.9c0,0,0,0,0,0.1c0.2,0.2,0.3,0.3,0.5,0.5l0.1,0.1
		C36,31.7,36,31.8,36,32z M35.4,29.5v-0.7c0,0.1,0,0.1,0,0.2c0.1,0.5,0.3,1.2,0.3,1.4c0,0.1,0,0.2,0.1,0.3c0,0.1,0,0.1,0,0.2
		c-0.2-0.3-0.4-0.5-0.6-0.8c0-0.2,0-0.4,0-0.5L35.4,29.5z M34.8,30.3c0.1,1.2,0.2,2.5,0.2,3.3c0,0.3,0,0.5,0,0.7
		c-0.2-0.3-0.4-0.6-0.5-0.9c-0.1-0.2-0.2-0.4-0.3-0.6c0-0.4,0.1-0.7,0.1-0.9c0-0.3,0-0.5,0-0.7c0-0.2,0-0.4,0-0.6c0-0.2,0-0.4,0-0.7
		c0,0,0-0.1,0-0.1l0.2-0.1c0.1,0.1,0.1,0.2,0.2,0.3C34.7,30.2,34.8,30.2,34.8,30.3z M34.2,30c0,0.2,0,0.3,0,0.4c0,0.2,0,0.4,0,0.6
		c0,0.2,0,0.4,0,0.6c0,0.2,0,0.4,0,0.9c0,0.1,0,0.2,0,0.4c-0.4-0.8-0.8-1.8-1.2-3h0.5L34.2,30z M35.4,4l0.3,0.5c0,0,0,0-0.1,0
		l-0.1-0.1l-0.3-0.2L35.4,4z M34.1,4.7l0.2-0.1l0.3,0.2l0.1,0c-0.2,0.1-0.3,0.1-0.5,0.2V4.7z M33.6,28.7c0,0.1,0.1,0.2,0.2,0.2
		l-0.4-0.2H33.6z M33.7,29.1l-0.4,0.2l-0.6,0.2L33.7,29.1z M33.3,33L33,32.6c-0.5-0.5-0.9-0.9-1.3-1.2c0-0.3,0-0.7,0.1-1.2
		c0-0.1,0-0.2,0-0.3l0.4-0.1v-0.1h0.3L33.3,33z M27.3,30.4l0.1,0l0.5-0.8c0.1,0.1,0.3,0.2,0.4,0.3c0,0.2,0,0.5,0,0.6
		c0,0.1,0,0.3,0,0.4c-0.2,0-0.4-0.1-0.7-0.2c-0.1,0-0.2-0.1-0.3-0.1V30.4z M28.2,29.3C28.2,29.3,28.2,29.3,28.2,29.3l0.1-0.1
		L28.2,29.3z M28.9,30.2c0.4,0.2,0.8,0.5,1.3,0.8c0.2,0.1,0.3,0.2,0.5,0.3c0,0,0,0.1,0,0.2c0,0-0.1,0-0.1,0
		c-0.3-0.1-0.9-0.2-1.8-0.4C28.8,30.8,28.8,30.5,28.9,30.2z M32.2,29.7L32,29.7l0-0.5l0-0.1L32.2,29.7z M32.2,5.9L32.2,5.9
		c0,0.1-0.1,0.1-0.2,0.1L32.2,5.9z M31.3,29.8c0,0.4,0,0.8,0,1.2c0,0,0,0,0,0.1c0,0,0,0,0,0c0-0.1,0-0.2,0-0.2c0-0.8-0.1-1.4-0.1-2
		l0.2,0L31.3,29.8z M30,29.5l0.2,0.1c0,0.3,0.1,0.6,0.2,0.9c0,0-0.1-0.1-0.2-0.1c-0.4-0.3-0.8-0.4-1.2-0.7l0-0.2l0.6,0.3L30,29.5z
		 M28.7,7.5l0.8-0.7l0.3,0.3c-0.3,0.2-0.7,0.4-1.1,0.6V7.5z M28.3,7.4l0.1,0.5l-0.2-0.2l-0.1-0.1L28.3,7.4z M26,29.4L26,30l-0.1,0
		c0,0,0,0,0,0c0-0.1,0-0.3,0-0.4L26,29.4L26,29.4z M24,10.3L25,9.5l0.4,0.1l0.2,0c-0.6,0.4-1.3,0.8-1.9,1.3L24,10.3z M24.7,29.5
		c0,0,0.1,0.1,0.1,0.1l-1.1,0.4l-0.1-0.2l-0.1,0l0-0.1L24.7,29.5z M20.6,13.1c-0.2,0.1-0.4,0.3-0.6,0.4h0L20.6,13.1z M18.2,30.4
		c0-0.1,0-0.1,0-0.2l0.2,0v0.1L18.2,30.4C18.2,30.4,18.2,30.4,18.2,30.4z M16,30.5L16,30.5l-0.1,0.2L16,30.5z M14.3,30.8l0.1,0.1
		l0,0.1l-0.1,0C14.3,30.9,14.3,30.8,14.3,30.8z M13.6,31.1l-0.1-0.7c0.1,0,0.1,0,0.2,0c0,0.1,0,0.2,0.1,0.3c0,0.1,0,0.2,0.1,0.4
		L13.6,31.1z M15,37.4c-0.2-1.4-0.4-3.1-0.5-4.3c-0.1-0.7-0.1-1.2-0.1-1.6l0.5,0.2c0.1,0.6,0.1,1.2,0.1,1.3c0,0.3,0,0.6,0,0.9
		c0,0.3,0,0.6,0,0.9s0,0.7,0,0.8s0,0.4,0,0.7C15,36.7,15,37,15,37.4z M18.8,41.7c0,0.5,0,0.9-0.1,1.4c0,0.5-0.1,1-0.2,1.5
		c-0.1,0.5-0.2,1.1-0.3,1.5c-0.1,0.5-0.2,0.9-0.4,1.6c-0.2,0.6-0.4,1.4-0.6,2.2c-0.2,0.7-0.4,1.4-0.5,1.9c-0.1-0.4-0.3-1-0.4-1.5
		c-0.1-0.6-0.3-1.1-0.4-1.6c-0.1-0.5-0.2-1-0.3-1.6c0-0.4-0.1-0.9-0.2-1.3c0.2,0.1,0.4,0,0.5-0.4c0.1-0.5,0.1-1.2,0-1.8
		c-0.1-0.6-0.1-1.2-0.2-1.6c-0.1-0.5-0.1-0.6-0.1-0.8c0-0.2,0-0.4-0.1-0.6c0-0.2-0.1-0.5-0.1-0.8c0-0.1-0.1-0.5-0.2-1.2
		c0-0.4,0-0.7,0.1-1c0-0.6,0.1-1,0.1-1.3c0-0.3,0-0.5,0-0.7c0-0.2,0-0.5,0-0.9s0-0.7,0-0.9c0-0.3,0-0.6,0-1.4c0-0.1,0-0.3,0-0.5
		l0.1,0l0.2-0.5l0.5,0.1l1.2-0.2l0-0.2l0.4-0.1c0.1,0.3,0.2,0.5,0.2,0.8c0,0.5,0.1,0.9,0.1,1.4c0,0.5,0.1,1.1,0.1,1.5
		c0-0.1,0-0.2,0-0.4c0-0.3,0-0.7,0-1.1c0,0.2,0.1,0.4,0.1,0.5c0.1,0.5,0.1,0.8,0.2,1.4c0.1,0.6,0.1,1.3,0.2,2c0,0.5,0,1,0,1.6
		c0,0.1,0,0.1,0,0.2c0.1,0.5,0.2,1,0.3,1.4C18.8,40.9,18.8,41.4,18.8,41.7z M21.8,38c0,0.4-0.1,0.7-0.2,1c0,0.3-0.1,0.7-0.2,0.9
		c-0.1,0.3-0.1,0.6-0.5,1.6c-0.3,1-0.6,1.8-0.8,2.5c-0.2,0.7-0.3,1.2-0.4,1.5c-0.1,0.3-0.1,0.5-0.2,0.8c0-0.4,0-0.6,0-0.9
		c0-0.4,0-0.7-0.1-1c0-0.3-0.1-0.6-0.1-0.9c0-0.2-0.1-0.5-0.1-1c0-0.5-0.2-1.1-0.3-1.9c0-0.1,0-0.2,0-0.3c0-0.5,0-1.1,0-1.6
		c0-0.8,0-1.5-0.1-2.2c0-0.7-0.1-1.3-0.1-1.8c0-0.5-0.1-0.9-0.2-1.5c-0.1-0.6-0.2-1.4-0.4-2.3l1.2,0.4l0.4-0.7l-0.3-0.2l0-0.3h0.2v0
		l1.3,0.7l0.1-0.5h0c0,0.3-0.1,0.5-0.1,0.6c0,0.1,0,0.2,0,0.3c0,0.1,0,0.2,0,0.3c0,0.1,0,0.2,0,0.7c0,0.3,0,0.6,0,0.9c0,0,0,0,0,0
		c0-0.5,0-0.9,0-1.2c0-0.2,0-0.4,0-0.5c0-0.1,0-0.2,0-0.3c0-0.1,0-0.2,0.1-0.5c0-0.1,0-0.2,0.1-0.4h0.2c0,0.3,0,0.6,0,1.1
		c0,1.1,0.1,2.1,0,3c0,0.8,0,1.6-0.1,2.1c0,0.1,0,0.2,0,0.2c0,0.1,0.1,0.3,0.1,0.4c0,0.2,0.1,0.3,0.1,0.4
		C21.9,37.7,21.8,37.9,21.8,38z M24.1,41.6c-0.4-0.9-0.8-1.7-1.2-2.3c-0.5-1.1-0.7-1.4-0.8-1.6c0,0,0,0,0-0.1c0-0.4,0.1-0.9,0.2-1.6
		c0-0.7,0.1-1.4,0.2-2.4c0-0.9,0.2-1.9,0.2-2.7l0.3,0.1l0.2-0.7l0.3,0l0.9,0.9l-0.5-1.2l0.9,0.1l0.5,0.1c0,0,0,0,0,0
		c0,0.3,0.1,0.6,0.1,0.9c0,0.3,0,0.6,0,0.8c0,0.3,0,0.5,0,0.8c0,0.3,0,0.6,0,0.9c0,0.3,0,0.6-0.1,0.9c0,0.3-0.1,0.7-0.1,0.9
		c0,0.3-0.1,0.8-0.3,1.4c-0.1,0.7-0.3,1.6-0.5,2.6C24.3,40.3,24.1,41.1,24.1,41.6z M31.1,34.9c0,0.6-0.1,1.3-0.2,2.1
		c-0.1,0.9-0.2,1.9-0.2,2.4c0-0.2,0-0.4,0.1-0.6c0-0.6,0.1-1.4,0.2-2.2c0,0.6,0,1.2-0.1,1.7c0,0.6-0.1,1.2-0.2,1.6
		c0,0.3-0.1,0.6-0.1,0.9c0,0.1,0,0.2,0,0.2c0,0.2,0,0.5-0.1,1.6c0,0,0,0.1,0,0.2c-0.1,0.5-0.3,1.4-0.6,2.9c-0.7,3.1-0.8,3.5-0.9,4
		c-0.1,0.5-0.3,1.1-0.6,1.9c-0.2,0.5-0.4,1-0.6,1.6c0-0.5,0-0.9,0-1.4c-0.1-0.7-0.3-1.4-0.4-2.1c-0.2-0.7-0.3-0.9-0.4-1.3
		c-0.1-0.4-0.4-0.9-0.6-1.6c-0.3-0.7-0.6-1.6-1.1-2.6c-0.2-0.5-0.6-1.4-1.1-2.3c0-0.1,0-0.3,0.1-0.5c0.1-0.8,0.3-1.9,0.5-2.9
		c0.2-0.9,0.3-1.7,0.4-2.2c0.1-0.5,0.2-0.9,0.2-1.2c0-0.3,0.1-0.6,0.1-0.9c0-0.3,0.1-0.6,0.1-0.9c0-0.3,0.1-0.6,0.1-0.9
		c0-0.3,0-0.5,0.1-0.8c0-0.3,0-0.6,0-0.9c0-0.2,0-0.4,0-0.6c1.3,0.9,2.1,1.3,2.1,1.3c0.1,0,0.1,0.1,0.2,0.1c0,0.2,0,0.5-0.1,0.7
		c0,0.3,0,0.6-0.1,1.3c0,0.7-0.1,1.5-0.2,2.5c-0.1,1-0.2,2.2-0.3,3.6c-0.2,1.4-0.4,2.9-0.4,3.3c0,0.3,0,0.7,0,0.9
		c0,0.3,0.1,0.6,0.2,0.9c0.1,0.3,0.1,0.6,0.1,0.6c0,0.2,0.5,0.1,0.5-0.1c0-0.2,0-0.5,0-0.8c0-0.3,0-0.6,0.1-0.9c0-0.3,0-0.6,0-1.6
		c0-0.9,0-2.4,0-3.6c0.1-1.2,0.1-2.3,0.2-3.3c0.1-0.9,0.1-1.6,0.2-2.1c0-0.5,0.1-0.7,0.1-1c0-0.1,0-0.2,0-0.3c0,0,0,0,0,0
		c0.6,0.1,1.3,0.3,2.1,0.6c0.1,0.9,0.2,1.8,0.3,2.3C31.1,34.7,31.1,34.8,31.1,34.9z M35.9,51.6c-0.2,0.8-0.4,1.5-0.5,2.1
		c0,0,0,0,0-0.1c-0.1-0.6-0.3-1.4-0.7-2.4c-0.4-1-0.8-2.2-1.1-3c0.1-0.4,0.1-0.9,0.3-1.5c0.1-0.9,0.3-1.9,0.5-2.7
		c0.1-0.8,0.2-1.1,0.2-1.4c0-0.3,0.1-0.7,0.1-1.1c0-0.4,0.1-0.7,0.2-1.4c0.1-0.7,0.1-1.5,0.2-2.3c0-0.6,0.1-1.2,0.1-1.7
		c0.1,0.2,0.3,0.3,0.4,0.5c0.3,0.1,0.5,0.3,0.7,0.4c0,0.3,0,0.7,0,0.9c0,0.5,0,0.8,0,0.9c0,0.1,0,0.4,0,0.8s0,1.2,0,2
		c0,0.9,0,1.9-0.1,2.7c0,0.7-0.1,1.4-0.1,1.9c0,0.5,0,0.9,0,1.2c0,0.2,0,0.4,0,0.7c0,0.3,0,0.6,0,0.9c0,0.3,0,0.6,0,0.9
		c0,0.3,0,0.6,0,1C35.9,51.1,35.9,51.3,35.9,51.6z M37.7,39.8c-0.1,1-0.2,2-0.4,3.1C37.2,44,37,45.2,37,45.6c0,0.4-0.2,1-0.3,1.9
		c-0.2,0.9-0.4,1.9-0.6,3.3c0-0.1,0-0.2,0-0.3c0-0.3,0-0.7,0-0.9c0-0.3,0-0.6,0-0.9c0-0.3,0-0.6,0-0.8c0-0.2,0-0.4,0-0.8
		c0-0.3,0-0.8,0.1-1.4c0-0.6,0.1-1.3,0.1-2.2c0-0.9,0.1-1.9,0.1-2.6c0-0.7,0-1.3,0-1.6s0-0.5,0-0.7c0-0.2,0-0.6,0-1.2
		c0-0.1,0-0.2,0-0.3c0.5,0.3,1,0.6,1.5,0.8C37.8,38.4,37.8,39.1,37.7,39.8z M38.1,36.8c-0.7-0.3-1.2-0.6-1.6-0.8c0-0.2,0-0.3,0-0.5
		c0-0.8,0-1.7,0-2.4c0-0.6,0-0.9,0-1.2l1.5,1.4c0.1,0.1,0.1,0.1,0.1,0.1C38.1,34.7,38.1,35.9,38.1,36.8z M38.2,36.6c0-0.3,0-0.6,0-1
		c0-0.6,0-1.3,0-2c0.2,0.2,0.3,0.3,0.3,0.4c0.2,0.3,0.3,0.6,0.5,0.8C39,35.5,39,35.8,39,36c0,0.3,0.1,0.7,0.2,1.1
		C38.8,36.9,38.5,36.8,38.2,36.6z M40,36.3l-0.1-0.9c0-0.4,0-0.8,0-1.3c0-0.1,0-0.2,0-0.4c0-0.2-0.1-0.5-0.2-0.6
		c-0.4-0.9-0.7-1.5-0.7-1.7c-0.1-0.2-0.2-0.6-0.3-0.9c0,0-0.1-0.3-0.1-0.9l0.5-0.1V29h0l0.2-0.7c0.1,0.2,0.2,0.3,0.3,0.5v0h0
		c0,0,0,0,0,0c0,0.2,0.1,0.4,0.1,0.5l-0.4,0.2l0.4,0.2l0.1,0c0,0,0,0.1,0,0.1c0,0.2,0,0.5,0.1,0.8c0,0.3,0.1,0.7,0.1,1.2
		c0,0.5,0.1,1.7,0.2,2.9c0,1.1,0.1,2,0.1,2.8C40.1,37,40,36.6,40,36.3z M41.9,39.3C41.9,39.4,41.9,39.4,41.9,39.3
		c-0.6-0.6-1.1-1.2-1.4-1.7c0-0.4,0-0.7,0-1.2c0-0.9-0.1-2-0.1-3.3c0-1.3-0.1-1.7-0.1-2.1c0-0.4,0-0.7,0-1c0-0.2,0-0.3,0-0.4l0,0
		c0.2,0.2,0.4,0.5,0.5,0.6c0.2,0.2,0.4,0.4,0.7,0.5c0.1,0,0.1,0.1,0.2,0.1c0.1,0.3,0.1,0.5,0.1,0.8c0.2,1.3,0.3,2.6,0.3,3.1
		c0,0.5,0,1.1,0,1.6s0,1.1-0.1,1.6C42,38.6,41.9,39.1,41.9,39.3z M43.8,41l-0.3-0.1c-0.5-0.2-0.9-0.5-1.4-1.1c0-0.2,0-0.3,0.1-0.6
		c0-0.4,0.1-0.9,0.1-1.5c0-0.6,0-1.1,0.1-1.6c0-0.5,0-1.1,0-2c0-0.8-0.1-1.9-0.3-3c0.5,0.3,0.9,0.6,1.2,0.7c0,0,0.1,0.1,0.1,0.1
		c0.2,0.3,0.3,0.6,0.5,0.9c0.3,0.4,0.5,0.8,0.9,1.2c0,0.3,0,0.5,0,0.8c0,0.4,0,0.8-0.1,1c0,0.2,0,0.4-0.1,0.6c0,0.2,0,0.4-0.1,0.6
		c0,0.2,0,0.4-0.2,1.3S44,40,43.8,40.7C43.8,40.8,43.8,40.9,43.8,41z M46.6,40.6c-0.2,0.2-0.4,0.4-0.6,0.5c-0.1,0-0.2,0-0.3,0.1
		c-0.3-0.1-0.8-0.2-1.3-0.2L44,40.8c0-0.3,0.1-0.7,0.2-1.1c0.1-0.7,0.3-1.6,0.3-2.2c0.1-0.6,0.1-0.7,0.1-0.9c0-0.2,0-0.4,0.1-0.6
		c0-0.2,0-0.4,0.1-0.7c0-0.3,0.1-0.7,0.1-1.2c0-0.1,0-0.1,0-0.2c0.6,0.7,1.4,1.4,2.3,2.3c0.1,0.1,0.3,0.2,0.3,0.4c0,0.1,0,0.3,0,0.4
		c0,0.3-0.1,0.7-0.2,1.3c-0.1,0.5-0.3,1.2-0.4,2C46.8,40.4,46.7,40.5,46.6,40.6z M47.9,38.8c-0.2,0.5-0.4,0.8-0.6,1.2
		c0,0-0.1,0.1-0.1,0.1c0-0.1,0-0.2,0-0.2c0.2-0.8,0.3-1.4,0.4-1.9c0.1-0.5,0.1-0.7,0.2-1c0,0,0,0,0.1,0.1c0.1,0.1,0.2,0.3,0.3,0.5
		C48,38.2,48,38.6,47.9,38.8z M48.8,35.4c-0.3-0.1-0.5-0.2-0.8-0.3c0-0.3,0-0.6,0.1-1c0-0.5,0-1.2,0.1-1.8c0,0,0,0,0-0.1
		c0.1,0.2,0.2,0.3,0.2,0.4c0,0.1,0.1,0.3,0.3,0.7C48.8,34.1,48.8,34.7,48.8,35.4z M52.6,37c-0.9-1.2-1.8-2.7-2.5-4.4l-0.2-0.5
		c-0.1-0.2-0.2-0.5-0.2-0.8c0-0.2,0-0.8,0-1.8c0,0,0-0.2,0-0.3l0.8,0.2l0.3-1c0.2,0,0.4,0,0.6,0l0.5,0.2L51.2,29l0.4,0.3l0.8-0.2
		c0,0.1,0,0.1,0,0.2c0,0.1,0,0.2,0,0.4c0,0.2,0,0.6,0,1.1c0,0.5,0,1,0,1.6c0,0.6,0,1.2,0.1,1.8c0,0.5,0,0.8,0.1,1.2
		c0,0.3,0,0.6,0.1,0.9c0,0.2,0,0.3,0.1,0.5C52.8,36.8,52.7,36.9,52.6,37z M53.2,35.9c-0.1,0.1-0.1,0.2-0.2,0.4c0-0.3,0-0.5-0.1-0.8
		c0-0.3,0-0.6,0-0.9c0-0.3,0-1,0-1.6c0-0.6,0-1.2,0-1.7c0-0.3,0-0.6,0.1-0.9c0,0,0,0.1,0.1,0.1c0.5,0.8,0.8,1.2,0.9,1.4
		c0.2,0.3,0.3,0.6,0.4,0.9c0.2,0.5,0.2,1,0.1,1.6C54,34.8,53.6,35.3,53.2,35.9z M54.9,41.6c-0.1,0.1-0.3,0.2-0.3,0.3
		c-0.3-1-0.4-2-0.4-2.8c0.1-0.9,0.3-1.9,0.7-3c0.2-0.5,0.4-1.1,0.8-1.9c0,0.4,0,0.8,0.1,1.2c0,0.3,0,0.5,0.1,0.7
		c0,0.2,0,0.4,0.1,0.6c0,0.2,0,0.4,0.1,0.9c0.1,0.6,0.3,1.4,0.3,2.2c0,0.2,0.1,0.4,0.1,0.6L54.9,41.6z M57.2,48.9
		c-0.1-0.3-0.3-0.7-0.4-1.1c-0.4-1.9-0.5-3.3-0.3-4c0-0.2,0.2-0.6,0.3-1c0,0,0,0.1,0,0.2c0,0.5,0.1,1.2,0.2,1.8
		c0,0.6,0.1,1.2,0.1,1.6c0,0.5,0,0.9,0,1.4C57.2,48.2,57.2,48.6,57.2,48.9z M58,50.4c-0.1-0.1-0.2-0.3-0.3-0.5
		c-0.1-0.2-0.2-0.4-0.3-0.6c0-0.3,0-0.6,0-0.9c0-0.7,0-1.1,0-1.5c0-0.5,0-0.9-0.1-1.5c0-0.6-0.1-1.2-0.2-1.9c0-0.5-0.1-0.7-0.1-1
		c0.1-0.3,0.3-0.6,0.5-0.9l1.1-1.7c0,0.2,0,0.3,0.1,0.5c0,0.2,0.1,0.4,0.2,1c0.1,0.6,0.3,1.5,0.5,2.3c0.2,0.8,0.3,1.5,0.4,2.1
		c0.1,0.6,0.2,1.1,0.2,1.6c0,0.5,0,1,0,1.5c0,0.2,0,0.3,0,0.5c-0.5,0.2-1,0.5-1.6,0.7C58.2,50.3,58.1,50.4,58,50.4z M80.4,73
		c0.2,0,0.3,0,0.5,0.1l0.2,0c0,0,0.1,0,0.3,0.1c0,0,0.1,0,0.1,0c0,0,0.1,0.1,0.1,0.2c-0.3,0-0.5,0-0.7,0c-0.1-0.1-0.2-0.1-0.2-0.2
		c0,0-0.1-0.1-0.2-0.1l0,0C80.5,73.1,80.5,73.1,80.4,73L80.4,73L80.4,73z M78.7,73c0.2,0,0.3-0.1,0.4-0.1c0.2,0,0.3,0,0.5-0.1
		c0.1,0,0.2,0,0.4,0.1c0,0,0.1,0,0.1,0.1c0,0,0.1,0.1,0.2,0.2c0,0,0,0,0.1,0c0.3,0.1,0.4,0.2,0.5,0.2c0,0-0.2,0-0.5,0
		c0,0-0.1,0-0.2,0c0,0-0.1,0-0.1,0l-0.8-0.3C79.2,73.1,79,73,78.7,73z M82.6,75.6c0.2,0,0.4-0.1,0.6-0.2c0.6-0.1,1.1-0.2,1.4-0.3
		l0.1,0l0.1,0l1.4,0.5l-1.8,0C83.8,75.7,83.2,75.6,82.6,75.6L82.6,75.6z" id="id_141" style="fill: rgb(139, 0, 0);"></path>
	<path d="M21.5,36c0.1,0.4,0.1,0.6,0.2,0.8c0,0,0,0.1,0,0.1c0,0,0-0.1,0-0.1c0-0.1,0-0.2-0.1-0.3c0-0.2-0.1-0.8-0.2-1.3
		c-0.1-0.5-0.1-1-0.2-1.5c0-0.2,0-0.4,0-0.5c0,0.4,0,0.9,0.1,1.4C21.3,35.1,21.4,35.6,21.5,36z" id="id_142"></path>
	<path d="M43.4,47c0-0.5,0-1,0.1-1.5c0-0.5,0.1-1.2,0.2-1.9c0-0.2,0.1-0.4,0.1-0.5c0,0,0,0,0,0c0,0.5-0.1,1.2-0.2,1.8
		c-0.1,0.6-0.1,1.2-0.1,1.6c0,0.5,0,0.9,0,1.4c0,0.3,0,0.7,0,1.1c0-0.1,0-0.3,0-0.4C43.4,47.8,43.4,47.5,43.4,47z" id="id_143" style="fill: rgb(139, 0, 0);"></path>
	<path d="M30.6,40.7c0,0.1,0,0.2,0,0.4c0,0,0-0.1,0-0.2C30.6,40.8,30.6,40.8,30.6,40.7c0-0.1,0-0.2,0-0.4c0-0.2,0-0.5,0-0.7
		c0,0,0-0.1,0-0.2c0,0.3-0.1,0.4-0.1,0.6C30.6,40.2,30.6,40.4,30.6,40.7z" id="id_144" style="fill: rgb(139, 0, 0);"></path>
</g>
</svg>