<svg xmlns="http://www.w3.org/2000/svg" width="96px" height="96px" viewBox="0 0 1000 1000">
  <g fill="none" stroke-linejoin="round">
    <rect x="115" y="115" width="770" height="770" rx="58" stroke="#8A5CF6" stroke-width="22"/>
    <rect x="202" y="202" width="596" height="596" rx="45" stroke="#4E7BEE" stroke-width="20" transform="rotate(16 500 500)"/>
    <rect x="269" y="269" width="462" height="462" rx="35" stroke="#2E9BE6" stroke-width="19" transform="rotate(32 500 500)"/>
    <rect x="321" y="321" width="358" height="358" rx="27" stroke="#21D4C4" stroke-width="18" transform="rotate(48 500 500)"/>
    <rect x="361" y="361" width="278" height="278" rx="21" stroke="#19E6A0" stroke-width="17" transform="rotate(64 500 500)"/>
    <rect x="410" y="410" width="180" height="180" rx="30" stroke="#FFC93C" stroke-width="20" transform="rotate(80 500 500)"/>
  </g>
  <rect x="440" y="440" width="120" height="120" rx="20" fill="#0A1020" transform="rotate(80 500 500)"/>
  <rect x="440" y="440" width="120" height="120" rx="20" fill="none" stroke="#EAF7FF" stroke-width="5" transform="rotate(80 500 500)"/>
  <circle cx="478" cy="482" r="13" fill="#FFFFFF"/>
  <circle cx="512" cy="468" r="5.5" fill="#FFFFFF" opacity=".85"/>
</svg>
