<svg xmlns="http://www.w3.org/2000/svg" xmlns:xlink="http://www.w3.org/1999/xlink" xmlns:s="https://github.com/nturley/netlistsvg" width="702" height="349">
  <style>svg {
    stroke:#000;
    fill:none;
  }
  text {
    fill:#000;
    stroke:none;
    font-size:10px;
    font-weight: bold;
    font-family: "Courier New", monospace;
  }
  .nodelabel {
    text-anchor: middle;
  }
  .inputPortLabel {
    text-anchor: end;
  }
  .splitjoinBody {
    fill:#000;
  }</style>
  <g s:type="generic" transform="translate(186,99)" s:width="30" s:height="40" id="cell_u0">
    <text x="15" y="-4" class="nodelabel cell_u0" s:attribute="ref">adder1bit</text>
    <rect width="30" height="60" s:generic="body" class="cell_u0"/>
    <g transform="translate(0,10)" s:x="0" s:y="10" s:pid="in0" id="port_u0~a">
      <text x="-3" y="-4" class="inputPortLabel cell_u0">a</text>
    </g>
    <g transform="translate(0,30)" s:x="0" s:y="10" s:pid="in0" id="port_u0~b">
      <text x="-3" y="-4" class="inputPortLabel cell_u0">b</text>
    </g>
    <g transform="translate(0,50)" s:x="0" s:y="10" s:pid="in0" id="port_u0~cin">
      <text x="-3" y="-4" class="inputPortLabel cell_u0">cin</text>
    </g>
    <g transform="translate(30,10)" s:x="30" s:y="10" s:pid="out0" id="port_u0~cout">
      <text x="5" y="-4" style="fill:#000; stroke:none" class="cell_u0">cout</text>
    </g>
    <g transform="translate(30,30)" s:x="30" s:y="10" s:pid="out0" id="port_u0~sum">
      <text x="5" y="-4" style="fill:#000; stroke:none" class="cell_u0">sum</text>
    </g>
  </g>
  <g s:type="generic" transform="translate(301,152)" s:width="30" s:height="40" id="cell_u1">
    <text x="15" y="-4" class="nodelabel cell_u1" s:attribute="ref">adder1bit</text>
    <rect width="30" height="60" s:generic="body" class="cell_u1"/>
    <g transform="translate(0,10)" s:x="0" s:y="10" s:pid="in0" id="port_u1~a">
      <text x="-3" y="-4" class="inputPortLabel cell_u1">a</text>
    </g>
    <g transform="translate(0,30)" s:x="0" s:y="10" s:pid="in0" id="port_u1~b">
      <text x="-3" y="-4" class="inputPortLabel cell_u1">b</text>
    </g>
    <g transform="translate(0,50)" s:x="0" s:y="10" s:pid="in0" id="port_u1~cin">
      <text x="-3" y="-4" class="inputPortLabel cell_u1">cin</text>
    </g>
    <g transform="translate(30,10)" s:x="30" s:y="10" s:pid="out0" id="port_u1~cout">
      <text x="5" y="-4" style="fill:#000; stroke:none" class="cell_u1">cout</text>
    </g>
    <g transform="translate(30,30)" s:x="30" s:y="10" s:pid="out0" id="port_u1~sum">
      <text x="5" y="-4" style="fill:#000; stroke:none" class="cell_u1">sum</text>
    </g>
  </g>
  <g s:type="generic" transform="translate(411,214.5)" s:width="30" s:height="40" id="cell_u2">
    <text x="15" y="-4" class="nodelabel cell_u2" s:attribute="ref">adder1bit</text>
    <rect width="30" height="60" s:generic="body" class="cell_u2"/>
    <g transform="translate(0,10)" s:x="0" s:y="10" s:pid="in0" id="port_u2~a">
      <text x="-3" y="-4" class="inputPortLabel cell_u2">a</text>
    </g>
    <g transform="translate(0,30)" s:x="0" s:y="10" s:pid="in0" id="port_u2~b">
      <text x="-3" y="-4" class="inputPortLabel cell_u2">b</text>
    </g>
    <g transform="translate(0,50)" s:x="0" s:y="10" s:pid="in0" id="port_u2~cin">
      <text x="-3" y="-4" class="inputPortLabel cell_u2">cin</text>
    </g>
    <g transform="translate(30,10)" s:x="30" s:y="10" s:pid="out0" id="port_u2~cout">
      <text x="5" y="-4" style="fill:#000; stroke:none" class="cell_u2">cout</text>
    </g>
    <g transform="translate(30,30)" s:x="30" s:y="10" s:pid="out0" id="port_u2~sum">
      <text x="5" y="-4" style="fill:#000; stroke:none" class="cell_u2">sum</text>
    </g>
  </g>
  <g s:type="generic" transform="translate(521,274)" s:width="30" s:height="40" id="cell_u3">
    <text x="15" y="-4" class="nodelabel cell_u3" s:attribute="ref">adder1bit</text>
    <rect width="30" height="60" s:generic="body" class="cell_u3"/>
    <g transform="translate(0,10)" s:x="0" s:y="10" s:pid="in0" id="port_u3~a">
      <text x="-3" y="-4" class="inputPortLabel cell_u3">a</text>
    </g>
    <g transform="translate(0,30)" s:x="0" s:y="10" s:pid="in0" id="port_u3~b">
      <text x="-3" y="-4" class="inputPortLabel cell_u3">b</text>
    </g>
    <g transform="translate(0,50)" s:x="0" s:y="10" s:pid="in0" id="port_u3~cin">
      <text x="-3" y="-4" class="inputPortLabel cell_u3">cin</text>
    </g>
    <g transform="translate(30,10)" s:x="30" s:y="10" s:pid="out0" id="port_u3~cout">
      <text x="5" y="-4" style="fill:#000; stroke:none" class="cell_u3">cout</text>
    </g>
    <g transform="translate(30,30)" s:x="30" s:y="10" s:pid="out0" id="port_u3~sum">
      <text x="5" y="-4" style="fill:#000; stroke:none" class="cell_u3">sum</text>
    </g>
  </g>
  <g s:type="inputExt" transform="translate(12,25)" s:width="30" s:height="20" id="cell_A">
    <text x="15" y="-4" class="nodelabel cell_A" s:attribute="ref">A</text>
    <s:alias val="$_inputExt_"/>
    <path d="M0,0 L0,20 L15,20 L30,10 L15,0 Z" class="cell_A"/>
    <g s:x="28" s:y="10" s:pid="Y"/>
  </g>
  <g s:type="inputExt" transform="translate(12,205)" s:width="30" s:height="20" id="cell_B">
    <text x="15" y="-4" class="nodelabel cell_B" s:attribute="ref">B</text>
    <s:alias val="$_inputExt_"/>
    <path d="M0,0 L0,20 L15,20 L30,10 L15,0 Z" class="cell_B"/>
    <g s:x="28" s:y="10" s:pid="Y"/>
  </g>
  <g s:type="inputExt" transform="translate(77,139.5)" s:width="30" s:height="20" id="cell_Cin">
    <text x="15" y="-4" class="nodelabel cell_Cin" s:attribute="ref">Cin</text>
    <s:alias val="$_inputExt_"/>
    <path d="M0,0 L0,20 L15,20 L30,10 L15,0 Z" class="cell_Cin"/>
    <g s:x="28" s:y="10" s:pid="Y"/>
  </g>
  <g s:type="outputExt" transform="translate(660,205)" s:width="30" s:height="20" id="cell_Sum">
    <text x="15" y="-4" class="nodelabel cell_Sum" s:attribute="ref">Sum</text>
    <s:alias val="$_outputExt_"/>
    <path d="M30,0 L30,20 L15,20 L0,10 L15,0 Z" class="cell_Sum"/>
    <g s:x="0" s:y="10" s:pid="A"/>
  </g>
  <g s:type="outputExt" transform="translate(660,274.5)" s:width="30" s:height="20" id="cell_Cout">
    <text x="15" y="-4" class="nodelabel cell_Cout" s:attribute="ref">Cout</text>
    <s:alias val="$_outputExt_"/>
    <path d="M30,0 L30,20 L15,20 L0,10 L15,0 Z" class="cell_Cout"/>
    <g s:x="0" s:y="10" s:pid="A"/>
  </g>
  <g s:type="join" transform="translate(619,194.5)" s:width="4" s:height="40" id="cell_$join$,11,12,13,14,">
    <rect width="5" height="80" class="splitjoinBody" s:generic="body"/>
    <s:alias val="$_join_"/>
    <g s:x="5" s:y="20" s:pid="out"/>
    <g transform="translate(0,10)" s:x="0" s:y="10" s:pid="in0">
      <text x="-3" y="-4" class="inputPortLabel">0</text>
    </g>
    <g transform="translate(0,30)" s:x="0" s:y="10" s:pid="in0">
      <text x="-3" y="-4" class="inputPortLabel">1</text>
    </g>
    <g transform="translate(0,50)" s:x="0" s:y="10" s:pid="in0">
      <text x="-3" y="-4" class="inputPortLabel">2</text>
    </g>
    <g transform="translate(0,70)" s:x="0" s:y="10" s:pid="in0">
      <text x="-3" y="-4" class="inputPortLabel">3</text>
    </g>
  </g>
  <g s:type="split" transform="translate(92.8,14.5)" s:width="5" s:height="40" id="cell_$split$,2,3,4,5,">
    <rect width="5" height="80" class="splitjoinBody" s:generic="body"/>
    <s:alias val="$_split_"/>
    <g s:x="0" s:y="20" s:pid="in"/>
    <g transform="translate(4,10)" s:x="4" s:y="10" s:pid="out0">
      <text x="5" y="-4">0</text>
    </g>
    <g transform="translate(4,30)" s:x="4" s:y="10" s:pid="out0">
      <text x="5" y="-4">1</text>
    </g>
    <g transform="translate(4,50)" s:x="4" s:y="10" s:pid="out0">
      <text x="5" y="-4">2</text>
    </g>
    <g transform="translate(4,70)" s:x="4" s:y="10" s:pid="out0">
      <text x="5" y="-4">3</text>
    </g>
  </g>
  <g s:type="split" transform="translate(92.8,194.5)" s:width="5" s:height="40" id="cell_$split$,6,7,8,9,">
    <rect width="5" height="80" class="splitjoinBody" s:generic="body"/>
    <s:alias val="$_split_"/>
    <g s:x="0" s:y="20" s:pid="in"/>
    <g transform="translate(4,10)" s:x="4" s:y="10" s:pid="out0">
      <text x="5" y="-4">0</text>
    </g>
    <g transform="translate(4,30)" s:x="4" s:y="10" s:pid="out0">
      <text x="5" y="-4">1</text>
    </g>
    <g transform="translate(4,50)" s:x="4" s:y="10" s:pid="out0">
      <text x="5" y="-4">2</text>
    </g>
    <g transform="translate(4,70)" s:x="4" s:y="10" s:pid="out0">
      <text x="5" y="-4">3</text>
    </g>
  </g>
  <line x1="97.8" x2="157" y1="25" y2="25" class="net_2"/>
  <line x1="157" x2="157" y1="25" y2="109.5" class="net_2"/>
  <line x1="157" x2="186" y1="109.5" y2="109.5" class="net_2"/>
  <line x1="97.8" x2="117" y1="205" y2="205" class="net_6"/>
  <line x1="117" x2="117" y1="205" y2="129.5" class="net_6"/>
  <line x1="117" x2="186" y1="129.5" y2="129.5" class="net_6"/>
  <line x1="105" x2="186" y1="149.5" y2="149.5" class="net_10"/>
  <line x1="97.8" x2="272" y1="45" y2="45" class="net_3"/>
  <line x1="272" x2="272" y1="45" y2="162.5" class="net_3"/>
  <line x1="272" x2="301" y1="162.5" y2="162.5" class="net_3"/>
  <line x1="97.8" x2="127" y1="225" y2="225" class="net_7"/>
  <line x1="127" x2="127" y1="225" y2="182.5" class="net_7"/>
  <line x1="127" x2="301" y1="182.5" y2="182.5" class="net_7"/>
  <line x1="217" x2="252" y1="109.5" y2="109.5" class="net_16"/>
  <line x1="252" x2="252" y1="109.5" y2="202.5" class="net_16"/>
  <line x1="252" x2="301" y1="202.5" y2="202.5" class="net_16"/>
  <line x1="97.8" x2="137" y1="65" y2="65" class="net_4"/>
  <line x1="137" x2="137" y1="65" y2="225" class="net_4"/>
  <line x1="137" x2="411" y1="225" y2="225" class="net_4"/>
  <line x1="97.8" x2="411" y1="245" y2="245" class="net_8"/>
  <line x1="332" x2="377" y1="162.5" y2="162.5" class="net_17"/>
  <line x1="377" x2="377" y1="162.5" y2="265" class="net_17"/>
  <line x1="377" x2="411" y1="265" y2="265" class="net_17"/>
  <line x1="97.8" x2="147" y1="85" y2="85" class="net_5"/>
  <line x1="147" x2="147" y1="85" y2="34" class="net_5"/>
  <line x1="147" x2="487" y1="34" y2="34" class="net_5"/>
  <line x1="487" x2="487" y1="34" y2="284.5" class="net_5"/>
  <line x1="487" x2="521" y1="284.5" y2="284.5" class="net_5"/>
  <line x1="97.8" x2="117" y1="265" y2="265" class="net_9"/>
  <line x1="117" x2="117" y1="265" y2="304.5" class="net_9"/>
  <line x1="117" x2="521" y1="304.5" y2="304.5" class="net_9"/>
  <line x1="442" x2="477" y1="225" y2="225" class="net_18"/>
  <line x1="477" x2="477" y1="225" y2="324.5" class="net_18"/>
  <line x1="477" x2="521" y1="324.5" y2="324.5" class="net_18"/>
  <line x1="625" x2="660" y1="215" y2="215" class="net_11,12,13,14"/>
  <line x1="552" x2="660" y1="284.5" y2="284.5" class="net_15"/>
  <line x1="217" x2="262" y1="129.5" y2="129.5" class="net_11"/>
  <line x1="262" x2="262" y1="129.5" y2="12" class="net_11"/>
  <line x1="262" x2="597" y1="12" y2="12" class="net_11"/>
  <line x1="597" x2="597" y1="12" y2="205" class="net_11"/>
  <line x1="597" x2="619" y1="205" y2="205" class="net_11"/>
  <line x1="332" x2="367" y1="182.5" y2="182.5" class="net_12"/>
  <line x1="367" x2="367" y1="182.5" y2="23" class="net_12"/>
  <line x1="367" x2="587" y1="23" y2="23" class="net_12"/>
  <line x1="587" x2="587" y1="23" y2="225" class="net_12"/>
  <line x1="587" x2="619" y1="225" y2="225" class="net_12"/>
  <line x1="442" x2="619" y1="245" y2="245" class="net_13"/>
  <line x1="552" x2="619.5" y1="304.5" y2="304.5" class="net_14"/>
  <line x1="619.5" x2="619.5" y1="304.5" y2="265.5" class="net_14"/>
  <line x1="40" x2="92.8" y1="35" y2="35" class="net_2,3,4,5"/>
  <line x1="40" x2="92.8" y1="215" y2="215" class="net_6,7,8,9"/>
</svg>
