<svg xmlns="http://www.w3.org/2000/svg" xmlns:xlink="http://www.w3.org/1999/xlink" xmlns:s="https://github.com/nturley/netlistsvg" width="235" height="184">
  <style>svg {
    stroke:#000;
    fill:none;
  }
  text {
    fill:#000;
    stroke:none;
    font-size:10px;
    font-weight: bold;
    font-family: "Courier New", monospace;
  }
  .nodelabel {
    text-anchor: middle;
  }
  .inputPortLabel {
    text-anchor: end;
  }
  .splitjoinBody {
    fill:#000;
  }</style>
  <g s:type="generic" transform="translate(96,66.5)" s:width="30" s:height="40" id="cell_myadder">
    <text x="15" y="-4" class="nodelabel cell_myadder" s:attribute="ref">adder4bit</text>
    <rect width="30" height="60" s:generic="body" class="cell_myadder"/>
    <g transform="translate(0,10)" s:x="0" s:y="10" s:pid="in0" id="port_myadder~A">
      <text x="-3" y="-4" class="inputPortLabel cell_myadder">A</text>
    </g>
    <g transform="translate(0,30)" s:x="0" s:y="10" s:pid="in0" id="port_myadder~B">
      <text x="-3" y="-4" class="inputPortLabel cell_myadder">B</text>
    </g>
    <g transform="translate(0,50)" s:x="0" s:y="10" s:pid="in0" id="port_myadder~Cin">
      <text x="-3" y="-4" class="inputPortLabel cell_myadder">Cin</text>
    </g>
    <g transform="translate(30,10)" s:x="30" s:y="10" s:pid="out0" id="port_myadder~Cout">
      <text x="5" y="-4" style="fill:#000; stroke:none" class="cell_myadder">Cout</text>
    </g>
    <g transform="translate(30,30)" s:x="30" s:y="10" s:pid="out0" id="port_myadder~Sum">
      <text x="5" y="-4" style="fill:#000; stroke:none" class="cell_myadder">Sum</text>
    </g>
  </g>
  <g s:type="inputExt" transform="translate(12,22)" s:width="30" s:height="20" id="cell_A">
    <text x="15" y="-4" class="nodelabel cell_A" s:attribute="ref">A</text>
    <s:alias val="$_inputExt_"/>
    <path d="M0,0 L0,20 L15,20 L30,10 L15,0 Z" class="cell_A"/>
    <g s:x="28" s:y="10" s:pid="Y"/>
  </g>
  <g s:type="inputExt" transform="translate(12,87)" s:width="30" s:height="20" id="cell_B">
    <text x="15" y="-4" class="nodelabel cell_B" s:attribute="ref">B</text>
    <s:alias val="$_inputExt_"/>
    <path d="M0,0 L0,20 L15,20 L30,10 L15,0 Z" class="cell_B"/>
    <g s:x="28" s:y="10" s:pid="Y"/>
  </g>
  <g s:type="inputExt" transform="translate(12,152)" s:width="30" s:height="20" id="cell_Cin">
    <text x="15" y="-4" class="nodelabel cell_Cin" s:attribute="ref">Cin</text>
    <s:alias val="$_inputExt_"/>
    <path d="M0,0 L0,20 L15,20 L30,10 L15,0 Z" class="cell_Cin"/>
    <g s:x="28" s:y="10" s:pid="Y"/>
  </g>
  <g s:type="outputExt" transform="translate(187,132)" s:width="30" s:height="20" id="cell_Result">
    <text x="15" y="-4" class="nodelabel cell_Result" s:attribute="ref">Result</text>
    <s:alias val="$_outputExt_"/>
    <path d="M30,0 L30,20 L15,20 L0,10 L15,0 Z" class="cell_Result"/>
    <g s:x="0" s:y="10" s:pid="A"/>
  </g>
  <g s:type="outputExt" transform="translate(187,67)" s:width="30" s:height="20" id="cell_Cout">
    <text x="15" y="-4" class="nodelabel cell_Cout" s:attribute="ref">Cout</text>
    <s:alias val="$_outputExt_"/>
    <path d="M30,0 L30,20 L15,20 L0,10 L15,0 Z" class="cell_Cout"/>
    <g s:x="0" s:y="10" s:pid="A"/>
  </g>
  <line x1="40" x2="52" y1="32" y2="32" class="net_2,3,4,5"/>
  <line x1="52" x2="52" y1="32" y2="77" class="net_2,3,4,5"/>
  <line x1="52" x2="96" y1="77" y2="77" class="net_2,3,4,5"/>
  <line x1="40" x2="96" y1="97" y2="97" class="net_6,7,8,9"/>
  <line x1="40" x2="52" y1="162" y2="162" class="net_10"/>
  <line x1="52" x2="52" y1="162" y2="117" class="net_10"/>
  <line x1="52" x2="96" y1="117" y2="117" class="net_10"/>
  <line x1="127" x2="162" y1="97" y2="97" class="net_11,12,13,14"/>
  <line x1="162" x2="162" y1="97" y2="142" class="net_11,12,13,14"/>
  <line x1="162" x2="187" y1="142" y2="142" class="net_11,12,13,14"/>
  <line x1="127" x2="187" y1="77" y2="77" class="net_15"/>
</svg>
